<svg width="248" height="248" viewBox="0 0 248 248" fill="none" xmlns="http://www.w3.org/2000/svg">
<path d="M198.181 134.251C199.783 135.571 203.442 138.58 203.668 138.767C204.118 139.139 204.766 138.496 204.312 138.123L198.824 133.606C198.375 133.237 197.727 133.878 198.181 134.251Z" fill="black"/>
<path d="M199.745 132.531L203.676 133.962C204.228 134.164 204.466 133.284 203.924 133.084L199.993 131.652C199.437 131.451 199.199 132.331 199.745 132.531Z" fill="black"/>
<path d="M158.555 134.436L154.339 137.633C153.878 137.982 154.331 138.773 154.799 138.42L159.015 135.222C159.476 134.872 159.023 134.081 158.555 134.436Z" fill="black"/>
<path d="M158.555 131.819L151.344 135.138C150.812 135.386 151.275 136.168 151.804 135.924L159.015 132.606C159.547 132.361 159.085 131.575 158.555 131.819Z" fill="black"/>
<path d="M173.848 105.524C173.547 104.866 173.046 103.993 172.205 104.024C171.475 104.051 171.284 104.878 171.27 105.471C171.24 106.719 171.538 107.953 172.136 109.049C172.733 110.146 173.609 111.065 174.675 111.715C174.859 109.616 174.576 107.502 173.848 105.524Z" fill="#6596E1"/>
<path d="M181.856 105.762C181.779 105.38 181.603 105.024 181.344 104.732C181.085 104.44 180.754 104.222 180.384 104.099C180.037 104.024 179.674 104.081 179.367 104.26C179.06 104.439 178.832 104.726 178.726 105.065C178.472 105.91 178.426 106.803 178.592 107.669C178.675 108.995 179.047 110.286 179.682 111.452C180.571 110.829 181.252 109.954 181.64 108.94C182.027 107.926 182.102 106.819 181.856 105.762Z" fill="#6596E1"/>
<path d="M188.894 106.668C188.941 104.312 186.744 105.198 186.513 106.62C186.206 108.319 185.988 110.034 185.861 111.756C186.701 111.174 187.407 110.419 187.93 109.542C188.453 108.664 188.782 107.684 188.894 106.668Z" fill="#6596E1"/>
<path d="M184.74 113.424C183.514 113.992 182.12 114.08 180.832 113.672C180.278 113.453 179.789 113.097 179.411 112.638C178.221 113.213 176.868 113.354 175.585 113.037C175.709 122.507 177.3 143.272 177.835 149.989H180.528C181.22 143.577 182.24 133.93 184.74 113.424Z" fill="#6596E1"/>
<path d="M206.69 95.2529C204.816 90.919 201.942 87.091 198.303 84.0825C194.664 81.0743 190.364 78.9717 185.755 77.947C181.146 76.9223 176.36 77.0048 171.789 78.1878C167.218 79.3708 162.993 81.6206 159.46 84.7526C155.927 87.8846 153.186 91.8098 151.464 96.2057C149.741 100.602 149.085 105.343 149.55 110.042C150.015 114.741 151.586 119.262 154.137 123.235C156.687 127.209 160.143 130.521 164.221 132.901V149.98H176.922C176.912 149.856 174.727 120.797 174.668 112.733C173.396 112.081 172.324 111.097 171.565 109.886C170.806 108.674 170.388 107.28 170.356 105.851C170.269 105.078 170.479 104.301 170.944 103.677C172.165 102.394 174.019 103.395 174.684 105.18C175.446 107.402 175.752 109.754 175.584 112.096C176.667 112.429 177.834 112.356 178.866 111.89C178.042 110.275 177.612 108.488 177.613 106.675C177.523 105.772 177.741 104.865 178.233 104.103C178.48 103.792 178.8 103.547 179.164 103.389C179.529 103.23 179.926 103.164 180.322 103.195C180.718 103.226 181.1 103.354 181.435 103.567C181.77 103.78 182.048 104.072 182.244 104.418C183.592 106.432 182.96 110.268 180.218 112.176C181.389 113.426 183.478 113.109 184.864 112.38C185.548 106.667 185.405 107.534 185.571 106.614C185.877 104.913 187.541 103.692 188.982 104.619C190.379 105.637 189.764 107.951 189.141 109.224C188.383 110.768 187.194 112.061 185.717 112.944C185.495 114.804 181.649 147.989 181.434 149.987H194.358V132.886C200.657 129.204 205.39 123.342 207.662 116.409C209.934 109.475 209.588 101.949 206.69 95.2529Z" fill="#6596E1"/>
<path d="M185.722 112.938C187.199 112.054 188.388 110.762 189.146 109.218C189.766 107.944 190.386 105.631 188.987 104.612C187.545 103.686 185.887 104.908 185.576 106.608C185.39 107.641 185.425 107.724 184.869 112.374C183.465 113.111 181.397 113.419 180.223 112.17C182.951 110.268 183.599 106.429 182.249 104.412C182.053 104.066 181.775 103.774 181.44 103.561C181.105 103.347 180.723 103.22 180.327 103.189C179.931 103.158 179.534 103.224 179.169 103.382C178.805 103.541 178.485 103.786 178.238 104.097C177.746 104.859 177.528 105.766 177.618 106.668C177.617 108.482 178.047 110.269 178.871 111.884C177.839 112.35 176.672 112.423 175.589 112.09C175.761 109.749 175.456 107.399 174.69 105.18C174.024 103.392 172.172 102.394 170.95 103.678C170.485 104.301 170.275 105.078 170.362 105.851C170.395 107.28 170.813 108.674 171.572 109.885C172.331 111.096 173.403 112.08 174.674 112.733C174.689 114.732 175.232 126.19 175.294 127.226C175.579 131.875 176.694 147.043 176.927 149.98H177.84C177.66 147.73 175.998 123.807 175.888 121.48C175.794 119.481 175.601 113.849 175.59 113.035C176.873 113.351 178.226 113.21 179.416 112.635C179.794 113.095 180.283 113.45 180.837 113.669C182.125 114.078 183.519 113.989 184.745 113.421C184.279 117.244 180.529 149.978 180.529 149.978H181.441C184.082 125.345 184.614 122.239 185.722 112.938ZM171.264 105.466C171.278 104.873 171.469 104.046 172.199 104.019C173.04 103.988 173.54 104.86 173.842 105.519C174.566 107.498 174.848 109.611 174.669 111.71C173.603 111.06 172.727 110.14 172.13 109.044C171.532 107.948 171.233 106.714 171.264 105.466ZM178.592 107.667C178.426 106.801 178.472 105.907 178.726 105.063C178.832 104.723 179.06 104.436 179.367 104.257C179.674 104.078 180.037 104.021 180.384 104.097C180.754 104.219 181.085 104.438 181.344 104.73C181.603 105.022 181.779 105.377 181.856 105.76C182.102 106.816 182.026 107.922 181.639 108.936C181.252 109.949 180.57 110.824 179.682 111.447C179.047 110.282 178.675 108.991 178.592 107.667ZM186.513 106.62C186.75 105.164 188.94 104.332 188.894 106.668C188.781 107.683 188.452 108.662 187.929 109.539C187.406 110.416 186.701 111.171 185.861 111.752C185.989 110.032 186.207 108.318 186.513 106.62Z" fill="black"/>
<path d="M126.623 140.286C123.327 141.898 120.636 143.089 117.571 144.326C117.741 145.049 118.069 145.725 118.531 146.307C118.992 146.888 119.577 147.361 120.243 147.691C120.908 148.02 121.638 148.199 122.381 148.214C123.123 148.228 123.86 148.079 124.538 147.776C125.216 147.474 125.819 147.025 126.304 146.462C126.789 145.9 127.143 145.237 127.343 144.522C127.542 143.806 127.58 143.056 127.456 142.323C127.332 141.591 127.047 140.896 126.623 140.286Z" fill="#FBB0A4"/>
<path d="M184.728 53.5059C181.689 54.9121 180.11 54.4743 177.12 55.9697C175.771 56.6688 174.679 57.7783 174.001 59.138C172.029 62.9647 172.981 67.3157 174.125 71.2168C174.157 71.3333 174.235 71.4318 174.341 71.4909C174.446 71.55 174.571 71.5646 174.688 71.5317C174.804 71.4988 174.902 71.421 174.961 71.3155C175.021 71.21 175.035 71.0853 175.002 70.9688C174.134 67.524 173.131 63.8363 174.441 60.3643C174.958 58.9703 175.916 57.7828 177.169 56.9815C178.31 56.3809 179.53 55.9415 180.792 55.6759C183.163 55.1452 185.916 54.6071 187.334 52.4023C190.104 48.0982 184.677 41.5113 188.031 36.5948C188.435 35.9182 189.017 35.3654 189.713 34.9964C190.41 34.6275 191.194 34.4564 191.981 34.5017C192.553 34.5822 192.801 33.7043 192.222 33.6238C188.998 33.1749 186.461 36.1583 186.105 39.112C185.529 43.8822 187.803 47.1087 187.152 50.4035C187.021 51.0749 186.732 51.7057 186.311 52.245C185.89 52.784 185.347 53.216 184.728 53.5059Z" fill="#B6DBFF"/>
<path d="M215.833 149.981H142.724C142.604 149.982 142.489 150.031 142.404 150.116C142.319 150.201 142.271 150.315 142.269 150.435V179.558C146.543 179.161 150.205 176.489 158.328 174.177V161.669C158.334 161.552 158.385 161.442 158.47 161.361C158.555 161.281 158.667 161.236 158.784 161.236C158.901 161.236 159.013 161.281 159.098 161.361C159.183 161.442 159.233 161.552 159.24 161.669V173.92C163.139 172.773 167.214 172.343 171.268 172.651C174.378 172.964 177.347 174.109 179.862 175.965C182.378 177.82 184.348 180.319 185.565 183.199C186.352 185.281 186.949 187.431 187.347 189.622H191.121C191.241 189.624 191.356 189.672 191.441 189.757C191.526 189.842 191.574 189.957 191.576 190.077V193.255C191.575 193.376 191.526 193.491 191.441 193.576C191.356 193.661 191.242 193.71 191.121 193.712C190.054 193.719 188.987 193.712 187.922 193.712C188.199 197.191 188.094 203.493 183.381 202.495C181.372 202.069 180.498 199.863 180.021 197.858C179.914 198.641 179.759 199.417 179.556 200.181C179.368 200.916 178.988 201.588 178.454 202.128C177.92 202.668 177.252 203.056 176.519 203.252C175.814 203.375 175.089 203.308 174.419 203.056C173.749 202.804 173.159 202.377 172.71 201.82C171.701 200.58 171.32 198.916 170.602 196.425C170.371 197.191 170.139 197.957 169.913 198.726C169.726 200.01 169.15 201.207 168.262 202.153C165.913 204.111 161.644 202.999 162.279 198.061C162.312 197.551 162.368 197.043 162.424 196.535C159.906 199.399 156.859 201.75 153.451 203.46C149.933 205.285 146.171 206.596 142.28 207.354V211.705C142.281 211.826 142.33 211.941 142.415 212.026C142.501 212.111 142.616 212.159 142.736 212.16C218.376 212.692 215.902 212.242 216.163 212.025C216.373 211.746 216.768 216.389 216.298 150.434C216.297 150.374 216.285 150.314 216.261 150.259C216.238 150.203 216.203 150.153 216.16 150.111C216.117 150.069 216.065 150.036 216.01 150.013C215.953 149.991 215.893 149.98 215.833 149.981ZM198.534 161.669V176.986C198.528 177.103 198.477 177.213 198.392 177.294C198.308 177.374 198.195 177.419 198.078 177.419C197.961 177.419 197.849 177.374 197.764 177.294C197.679 177.213 197.629 177.103 197.622 176.986V161.669C197.629 161.552 197.679 161.442 197.764 161.361C197.849 161.281 197.961 161.236 198.078 161.236C198.195 161.236 198.308 161.281 198.392 161.361C198.477 161.442 198.528 161.552 198.534 161.669ZM193.049 188.52L198.108 180.985C198.435 180.501 199.224 180.957 198.896 181.444L193.837 188.98C193.511 189.465 192.722 189.008 193.049 188.52ZM198.534 186.635V201.953C198.528 202.069 198.477 202.179 198.392 202.26C198.308 202.34 198.195 202.385 198.078 202.385C197.961 202.385 197.849 202.34 197.764 202.26C197.679 202.179 197.629 202.069 197.622 201.953V186.635C197.629 186.518 197.679 186.408 197.764 186.328C197.849 186.247 197.961 186.202 198.078 186.202C198.195 186.202 198.308 186.247 198.392 186.328C198.477 186.408 198.528 186.518 198.534 186.635Z" fill="#FFD7D7"/>
<path d="M159.241 161.669C159.235 161.552 159.184 161.442 159.099 161.362C159.015 161.281 158.902 161.236 158.785 161.236C158.668 161.236 158.556 161.281 158.471 161.362C158.386 161.442 158.335 161.552 158.329 161.669V174.177C158.632 174.091 158.936 174.002 159.241 173.92V161.669Z" fill="#6596E1"/>
<path d="M195.461 53.506C192.424 54.9108 190.841 54.4756 187.855 55.9697C186.505 56.6682 185.413 57.7777 184.735 59.1381C182.764 62.9647 183.717 67.3146 184.853 71.2168C184.886 71.3333 184.964 71.4321 185.069 71.4914C185.175 71.5505 185.3 71.5653 185.417 71.5324C185.533 71.4995 185.632 71.4217 185.691 71.316C185.75 71.2102 185.765 71.0853 185.732 70.9688C184.864 67.5241 183.861 63.8363 185.169 60.3643C185.687 58.9705 186.645 57.7831 187.897 56.9816C189.039 56.3767 190.26 55.9334 191.524 55.6647C193.894 55.134 196.647 54.5958 198.066 52.3911C200.834 48.0883 195.41 41.4978 198.762 36.5836C199.166 35.907 199.748 35.3542 200.444 34.9851C201.141 34.616 201.925 34.4451 202.711 34.4905C203.286 34.5712 203.534 33.6932 202.959 33.6125C199.735 33.1637 197.198 36.1484 196.841 39.1008C196.265 43.8712 198.539 47.0977 197.888 50.3922C197.758 51.0659 197.47 51.6994 197.048 52.2405C196.627 52.7816 196.083 53.2154 195.461 53.506Z" fill="#B6DBFF"/>
<path d="M206.226 53.506C203.183 54.9146 201.612 54.4718 198.62 55.9698C197.27 56.6682 196.177 57.7777 195.5 59.1381C193.528 62.9647 194.479 67.3158 195.617 71.2168C195.65 71.3334 195.728 71.4321 195.834 71.4914C195.94 71.5505 196.065 71.5653 196.181 71.5324C196.298 71.4995 196.396 71.4217 196.455 71.316C196.515 71.2103 196.529 71.0854 196.497 70.9688C195.629 67.5241 194.625 63.8363 195.934 60.3643C196.451 58.9706 197.409 57.7831 198.662 56.9816C199.804 56.3767 201.025 55.9335 202.289 55.6647C204.658 55.134 207.411 54.5958 208.83 52.3911C211.6 48.0872 206.174 41.5003 209.527 36.5836C209.931 35.9072 210.513 35.3546 211.209 34.9856C211.905 34.6165 212.689 34.4454 213.476 34.4905C214.05 34.5712 214.298 33.6933 213.724 33.6126C210.5 33.1637 207.963 36.1471 207.606 39.1008C207.029 43.8712 209.303 47.0977 208.652 50.3922C208.522 51.0661 208.235 51.6994 207.813 52.2405C207.391 52.7818 206.847 53.2154 206.226 53.506Z" fill="#B6DBFF"/>
<path d="M68.7789 137.802C68.7773 137.923 68.7286 138.038 68.6434 138.123C68.5582 138.208 68.443 138.256 68.3226 138.257H38.5626C38.5626 138.257 38.146 153.766 38.0443 156.51C39.1021 156.758 40.1523 157.022 41.2013 157.315C42.6442 157.595 44.0222 158.142 45.2649 158.927C45.2784 158.941 45.2908 158.956 45.3032 158.97L45.3567 158.998C45.6631 159.257 45.8969 159.591 46.0355 159.967C46.1742 160.344 46.2127 160.75 46.1476 161.146C46.0824 161.541 45.9156 161.914 45.6635 162.226C45.4112 162.538 45.0825 162.779 44.7094 162.926C43.8206 163.339 42.8695 163.601 41.8946 163.701C40.4966 163.84 39.0886 163.852 37.6885 163.734C37.9559 165.985 38.077 168.249 38.0506 170.515C37.9972 174.289 34.7993 175.742 32.9864 173.896C31.8903 172.78 31.7352 171.017 31.4836 169.556C31.1736 167.748 31.5406 168.688 30.9231 171.576C29.9484 176.136 26.6872 176.478 24.9909 173.654C24.2787 172.251 23.8873 170.708 23.8452 169.135C23.8289 169.567 23.814 170.003 23.8129 170.433C23.8129 172.344 23.0849 175.229 20.6756 175.237C18.2663 175.244 17.3128 172.352 17.1702 170.401C17.1342 169.914 17.1702 172.538 17.0176 138.26H12.3242C12.2038 138.258 12.0889 138.209 12.0037 138.124C11.9185 138.039 11.8698 137.924 11.8679 137.804C11.8357 139.253 8.02393 210.104 8.02393 210.139C8.02426 210.26 8.07226 210.375 8.15751 210.461C8.24275 210.547 8.3583 210.595 8.47901 210.595C9.06429 210.595 31.1314 210.404 31.362 210.403C30.8027 204.62 34.0366 197.645 36.2402 192.623C43.9814 174.968 53.0359 160.868 69.8194 151.342C69.3369 145.384 68.7852 137.969 68.7789 137.802Z" fill="#DCEFFF"/>
<path d="M128.599 138.768C127.506 136.288 124.507 135.124 121.942 135.156C120.79 135.14 119.652 135.405 118.627 135.929C117.602 136.453 116.72 137.22 116.059 138.163C115.398 139.106 114.978 140.196 114.835 141.339C114.692 142.481 114.83 143.641 115.238 144.718C115.368 144.978 115.531 145.157 115.799 145.035C120.041 143.395 124.64 141.327 128.436 139.391C128.537 139.328 128.611 139.228 128.642 139.112C128.673 138.997 128.657 138.873 128.599 138.768Z" fill="#B0B04C"/>
<path d="M130.212 171.864C125.433 164.5 126.492 155.679 117.954 149.6C111.843 145.247 103.826 143.973 96.4856 144.042C78.192 144.213 61.9243 153.838 50.6552 167.649C43.7682 176.09 39.0661 185.928 34.7832 195.989C34.7559 196.125 34.8193 195.766 35.1764 195.764C103.733 195.237 100.297 195.596 103.337 196.149C104.35 193.839 105.783 191.737 107.563 189.949C107.794 190.321 108.025 190.693 108.267 191.053L108.288 191.075C108.246 190.99 108.23 190.893 108.245 190.798C108.259 190.703 108.303 190.615 108.369 190.546C114.919 183.954 122.453 178.419 130.701 174.137C130.85 174.056 130.996 173.972 131.144 173.889C131.231 173.839 131.332 173.819 131.431 173.832C131.531 173.845 131.624 173.889 131.695 173.96C131.877 174.183 131.082 173.201 130.212 171.864ZM107.244 189.446C103.099 182.743 99.7021 172.861 99.0499 159.768C99.0215 159.181 99.9328 159.185 99.9614 159.768C100.259 170.015 103.027 180.039 108.031 188.986C108.087 189.09 108.1 189.212 108.068 189.325C108.035 189.438 107.961 189.535 107.859 189.595C107.757 189.654 107.636 189.672 107.521 189.644C107.407 189.616 107.307 189.545 107.244 189.446Z" fill="#C0C195"/>
<path d="M99.9614 159.768C99.933 159.185 99.0215 159.181 99.0501 159.768C99.7023 172.862 103.097 182.739 107.244 189.446C107.307 189.545 107.407 189.616 107.522 189.644C107.636 189.672 107.757 189.654 107.859 189.595C107.961 189.535 108.035 189.438 108.068 189.325C108.1 189.212 108.087 189.09 108.031 188.986C103.027 180.039 100.259 170.015 99.9614 159.768Z" fill="#B0B04C"/>
<path d="M235.803 168.088C234.538 168.806 225.11 174.461 224.652 174.741C224.553 174.804 224.482 174.904 224.454 175.018C224.426 175.133 224.444 175.254 224.504 175.356C224.563 175.458 224.66 175.532 224.773 175.565C224.887 175.597 225.008 175.584 225.112 175.528C226.379 174.809 235.807 169.156 236.263 168.876C236.362 168.812 236.434 168.713 236.461 168.598C236.488 168.484 236.472 168.363 236.412 168.261C236.353 168.159 236.256 168.084 236.143 168.052C236.028 168.02 235.907 168.033 235.803 168.088Z" fill="black"/>
<path d="M241.286 181.959C239.426 181.928 224.864 181.984 224.864 181.984C224.747 181.99 224.637 182.04 224.557 182.125C224.476 182.21 224.432 182.322 224.432 182.439C224.432 182.556 224.476 182.669 224.557 182.754C224.637 182.838 224.747 182.889 224.864 182.895C224.864 182.895 240.612 182.881 241.286 182.87C241.403 182.864 241.514 182.814 241.595 182.729C241.674 182.644 241.719 182.531 241.719 182.415C241.719 182.298 241.674 182.185 241.595 182.1C241.514 182.016 241.403 181.965 241.286 181.959Z" fill="black"/>
<path d="M236.263 195.052L225.112 189.325C224.591 189.058 224.13 189.844 224.652 190.112L235.803 195.838C236.324 196.108 236.786 195.322 236.263 195.052Z" fill="black"/>
<path d="M187.917 193.715C187.619 193.715 171.594 193.778 164.709 193.78C164.238 194.284 163.603 195.02 163.345 195.33C162.983 195.767 162.378 195.175 162.677 194.731C162.749 194.577 163.901 193.301 164.181 193.002C167.688 189.264 170.354 189.672 175.449 189.622H187.342C186.944 187.431 186.348 185.281 185.56 183.199C184.343 180.319 182.373 177.82 179.858 175.965C177.342 174.109 174.373 172.964 171.263 172.651C169.047 172.417 166.81 172.474 164.61 172.822C150.168 174.978 143.902 182.404 136.799 178.534C134.809 177.389 133.079 175.842 131.722 173.989C131.653 173.907 131.557 173.852 131.452 173.834C131.347 173.816 131.238 173.836 131.146 173.89C122.625 178.684 115.233 183.292 108.376 190.546C108.309 190.619 108.265 190.712 108.252 190.81C108.24 190.909 108.258 191.009 108.304 191.098C113.311 198.587 121.008 204.893 129.925 207.174C137.682 209.158 146.225 207.136 153.446 203.462C156.854 201.751 159.901 199.4 162.419 196.536C162.144 197.899 162.151 199.304 162.442 200.663C162.636 201.225 162.966 201.731 163.404 202.135C163.841 202.538 164.371 202.827 164.948 202.975C165.524 203.123 166.128 203.126 166.705 202.983C167.283 202.84 167.816 202.557 168.257 202.157C169.145 201.21 169.721 200.014 169.909 198.73C170.134 197.961 170.366 197.195 170.597 196.428C171.291 198.819 171.713 200.603 172.705 201.824C173.154 202.381 173.744 202.808 174.414 203.06C175.084 203.311 175.809 203.379 176.514 203.256C177.247 203.06 177.915 202.672 178.449 202.132C178.983 201.592 179.363 200.92 179.551 200.184C180.224 197.605 179.848 197.35 180.193 198.555C180.662 200.202 181.531 202.108 183.376 202.498C188.09 203.496 188.194 197.195 187.917 193.715ZM134.023 204.503C132.028 204.587 130.041 204.216 128.211 203.417C127.674 203.183 128.138 202.4 128.671 202.63C130.359 203.353 132.189 203.682 134.023 203.592C134.609 203.569 134.607 204.482 134.023 204.508V204.503Z" fill="#FBB0A4"/>
<path d="M198.534 176.987V161.669C198.528 161.552 198.477 161.442 198.392 161.362C198.308 161.281 198.195 161.236 198.078 161.236C197.961 161.236 197.849 161.281 197.764 161.362C197.679 161.442 197.629 161.552 197.623 161.669V176.987C197.629 177.103 197.679 177.213 197.764 177.294C197.849 177.374 197.961 177.419 198.078 177.419C198.195 177.419 198.308 177.374 198.392 177.294C198.477 177.213 198.528 177.103 198.534 176.987Z" fill="#6596E1"/>
<path d="M164.503 193.78C164.415 193.777 164.328 193.749 164.255 193.699C164.182 193.648 164.125 193.578 164.091 193.495C164.056 193.413 164.047 193.323 164.063 193.236C164.079 193.148 164.12 193.067 164.181 193.002C163.866 193.335 162.743 194.591 162.677 194.731C162.378 195.175 162.983 195.767 163.345 195.33C163.642 194.973 164.254 194.267 164.709 193.78C164.64 193.78 164.572 193.781 164.503 193.78Z" fill="#FBB0A4"/>
<path d="M191.116 189.622H175.449C170.352 189.672 167.685 189.265 164.181 193.002C164.12 193.067 164.079 193.148 164.063 193.235C164.047 193.323 164.057 193.413 164.091 193.495C164.125 193.577 164.182 193.648 164.255 193.699C164.328 193.749 164.415 193.777 164.503 193.78C164.571 193.78 190.047 193.719 191.116 193.712C191.237 193.71 191.351 193.661 191.436 193.576C191.521 193.49 191.57 193.375 191.571 193.255V190.077C191.569 189.957 191.521 189.842 191.436 189.757C191.351 189.673 191.236 189.624 191.116 189.622Z" fill="#6596E1"/>
<path d="M134.023 203.597C132.189 203.687 130.359 203.358 128.671 202.635C128.138 202.405 127.679 203.188 128.211 203.422C130.041 204.221 132.028 204.592 134.023 204.508C134.607 204.482 134.609 203.569 134.023 203.597Z" fill="#FBB0A4"/>
<path d="M198.109 180.985L193.05 188.52C192.722 189.008 193.511 189.465 193.837 188.98L198.896 181.444C199.223 180.957 198.435 180.501 198.109 180.985Z" fill="#6596E1"/>
<path d="M102.176 73.4428C101.978 73.4428 100.587 73.4588 84.8581 73.4538C84.7883 73.4529 84.7195 73.436 84.657 73.4047C84.5948 73.3733 84.5403 73.328 84.4979 73.2725C84.4555 73.2171 84.4262 73.1526 84.4124 73.0841C84.3987 73.0158 84.4005 72.945 84.4178 72.8773C84.1773 74.3367 83.6305 75.7286 82.8137 76.9617C81.9969 78.1949 80.9285 79.2412 79.6786 80.0321C77.0858 81.4953 74.0068 81.799 71.1041 82.1203C62.7203 83.0489 48.7951 84.139 43.4521 83.9566C34.1433 83.638 23.5016 87.3393 18.1102 95.8818C13.909 102.541 13.4106 109.697 12.8079 117.626C12.1879 125.716 11.873 135.687 11.863 137.801C11.864 137.922 11.9124 138.038 11.9978 138.123C12.0831 138.208 12.1986 138.257 12.3194 138.258H17.0128V143.624C17.014 143.504 17.0622 143.389 17.147 143.304C17.2318 143.219 17.3465 143.171 17.4666 143.169H37.9848C38.1052 143.17 38.2204 143.219 38.3056 143.304C38.3911 143.389 38.4395 143.504 38.4411 143.624C38.4858 141.836 38.5577 138.258 38.5577 138.258H68.3177C68.4385 138.257 68.5542 138.209 68.6396 138.124C68.7251 138.039 68.7733 137.923 68.774 137.802C68.712 133.098 68.4268 128.398 68.2532 123.697C67.9768 116.219 67.8812 109.855 66.1118 103.223C69.9669 103.146 73.8197 102.997 77.6736 102.869C80.7238 102.796 83.7624 102.464 86.7565 101.877C88.4684 101.542 90.097 100.872 91.5485 99.905C93.0002 98.9378 94.2461 97.6933 95.2146 96.2425C99.1504 90.644 101.566 79.856 102.566 73.1204C102.557 73.2148 102.511 73.3018 102.438 73.3623C102.365 73.4227 102.27 73.4518 102.176 73.4428ZM91.9595 95.0609L88.9215 97.9129C88.4938 98.3147 87.849 97.671 88.2781 97.2681L91.3147 94.4161C91.7426 94.0144 92.3886 94.6578 91.9595 95.0609ZM57.7121 89.3644C60.8542 92.4727 63.3263 96.192 64.976 100.292C65.1954 100.838 64.3138 101.072 64.0967 100.54C62.4962 96.5886 60.1037 93.0061 57.0659 90.0141C56.6493 89.5961 57.2941 88.9527 57.7121 89.3644ZM37.8324 136.127V111.451C37.8385 111.334 37.8892 111.224 37.974 111.144C38.0587 111.063 38.1712 111.019 38.288 111.019C38.405 111.019 38.5173 111.063 38.6023 111.144C38.6871 111.224 38.7376 111.334 38.7437 111.451V136.127C38.7376 136.244 38.6871 136.354 38.6023 136.434C38.5173 136.515 38.405 136.56 38.288 136.56C38.1712 136.56 38.0587 136.515 37.974 136.434C37.8892 136.354 37.8385 136.244 37.8324 136.127ZM17.2905 136.317C17.2844 136.434 17.2337 136.544 17.149 136.624C17.0642 136.705 16.9517 136.749 16.8348 136.749C16.7179 136.749 16.6055 136.705 16.5207 136.624C16.4359 136.544 16.3852 136.434 16.3791 136.317V111.641C16.3852 111.524 16.4359 111.414 16.5207 111.334C16.6055 111.253 16.7179 111.208 16.8348 111.208C16.9517 111.208 17.0642 111.253 17.149 111.334C17.2337 111.414 17.2844 111.524 17.2905 111.641C17.3748 116.497 17.4009 129.959 17.2905 136.317ZM19.5498 135.615C20.5418 134.584 21.5545 133.571 22.5878 132.577C22.6744 132.497 22.7885 132.454 22.9064 132.456C23.0241 132.459 23.1364 132.507 23.2198 132.59C23.303 132.673 23.351 132.786 23.3532 132.903C23.3557 133.021 23.3124 133.135 23.2326 133.222C22.2406 134.251 21.2279 135.263 20.1946 136.259C20.1077 136.336 19.9945 136.377 19.8783 136.374C19.762 136.37 19.6514 136.323 19.5691 136.241C19.4868 136.158 19.4389 136.048 19.4354 135.932C19.4318 135.815 19.4727 135.702 19.5498 135.615Z" fill="#DDDDBF"/>
<path d="M46.1417 160.218C46.0161 159.715 45.7176 159.273 45.2985 158.969C45.2861 158.954 45.2737 158.939 45.26 158.926C44.0173 158.141 42.6393 157.594 41.1966 157.314C40.1512 157.021 39.0972 156.757 38.0396 156.509C38.1449 153.766 38.4314 145.175 38.4413 143.623C38.4406 143.502 38.3922 143.387 38.3067 143.301C38.2213 143.216 38.1056 143.168 37.985 143.168H17.4667C17.3466 143.17 17.2319 143.218 17.1471 143.303C17.0623 143.388 17.0141 143.503 17.0128 143.623C17.0128 143.623 17.0922 169.401 17.1653 170.397C17.3079 172.344 18.2603 175.233 20.6708 175.233C23.0813 175.233 23.8055 172.34 23.808 170.429C23.808 169.997 23.8242 169.561 23.8402 169.131C23.8824 170.704 24.2738 172.248 24.986 173.651C26.6848 176.478 29.946 176.131 30.9181 171.573C31.5381 168.683 31.1661 167.75 31.4786 169.553C31.7266 171.02 31.8853 172.777 32.9815 173.893C34.8043 175.753 37.9924 174.275 38.0456 170.511C38.072 168.246 37.9512 165.981 37.6836 163.731C39.0836 163.848 40.4916 163.837 41.8896 163.697C42.8645 163.598 43.8159 163.336 44.7045 162.922C45.214 162.7 45.6333 162.312 45.8944 161.82C46.1553 161.33 46.2425 160.765 46.1417 160.218ZM31.5296 161.441C31.5235 161.557 31.4728 161.667 31.388 161.748C31.3032 161.828 31.1907 161.873 31.0737 161.873C30.9569 161.873 30.8444 161.828 30.7596 161.748C30.6749 161.667 30.6241 161.557 30.6181 161.441V158.403C30.6241 158.286 30.6749 158.176 30.7596 158.095C30.8444 158.015 30.9569 157.97 31.0737 157.97C31.1907 157.97 31.3032 158.015 31.388 158.095C31.4728 158.176 31.5235 158.286 31.5296 158.403V161.441ZM23.3406 158.72C23.3467 158.603 23.3972 158.493 23.4822 158.413C23.567 158.332 23.6792 158.287 23.7962 158.287C23.913 158.287 24.0255 158.332 24.1103 158.413C24.1951 158.493 24.2458 158.603 24.2519 158.72V161.63C24.2458 161.747 24.1951 161.857 24.1103 161.938C24.0255 162.018 23.913 162.063 23.7962 162.063C23.6792 162.063 23.567 162.018 23.4822 161.938C23.3972 161.857 23.3467 161.747 23.3406 161.63V158.72Z" fill="#FFBABA"/>
<path d="M86.128 60.6942C84.9364 70.1505 84.8706 70.9862 84.4217 72.8773C84.4044 72.9468 84.4032 73.0196 84.4186 73.0895C84.4339 73.1596 84.4652 73.2252 84.5101 73.2811C84.555 73.3368 84.6125 73.3817 84.6774 73.4117C84.7425 73.4416 84.8138 73.4561 84.8855 73.4538C86.5162 73.4824 102.135 73.4538 102.18 73.4428C102.274 73.4511 102.367 73.4218 102.44 73.3614C102.512 73.301 102.558 73.2144 102.567 73.1204C103.209 69.0038 103.63 64.8559 103.829 60.6942H86.128Z" fill="#FFD7D7"/>
<path d="M39.5883 218.039C36.1535 217.772 33.2271 216.309 31.9758 213.053C26.2524 212.292 20.4356 212.653 14.8502 214.116C11.9767 214.866 9.18716 215.907 6.52485 217.223C6.47494 217.243 6.42962 217.272 6.39175 217.31C6.35385 217.348 6.32424 217.393 6.30479 217.443C6.28531 217.493 6.27642 217.546 6.27866 217.6C6.28089 217.653 6.29421 217.706 6.31777 217.754C6.33856 217.849 6.39186 217.933 6.4684 217.993C6.54496 218.052 6.63995 218.083 6.73689 218.08C41.1493 217.444 39.5932 218.163 39.5883 218.039Z" fill="black"/>
<path d="M102.413 195.996C99.9142 195.645 104.568 195.227 35.1787 195.76C35.08 195.764 34.9848 195.798 34.9062 195.858C34.8277 195.918 34.7695 196.001 34.7398 196.095C33.6105 198.607 32.6978 201.21 32.0118 203.877C30.6762 209.181 30.8958 215.085 35.9575 217.169C37.1167 217.647 38.3441 217.94 39.5943 218.037C39.6497 219.277 39.9559 220.494 40.4945 221.613C41.0329 222.732 41.7929 223.731 42.7279 224.548C43.663 225.365 44.754 225.984 45.9352 226.368C47.1163 226.751 48.3629 226.893 49.5999 226.78H98.1881C101.5 226.83 104.783 226.151 107.806 224.797C121.36 218.623 119.769 198.429 102.413 195.996ZM51.3682 202.18C54.6073 200.104 58.1663 198.577 61.9019 197.659C62.4723 197.519 62.7142 198.403 62.1499 198.536C58.4912 199.437 55.0057 200.933 51.8331 202.966C51.3359 203.285 50.8758 202.492 51.3682 202.18ZM40.0283 218.08C39.9115 218.074 39.8017 218.023 39.7212 217.939C39.6407 217.854 39.5958 217.741 39.5958 217.624C39.5958 217.508 39.6407 217.395 39.7212 217.31C39.8017 217.226 39.9115 217.175 40.0283 217.169H92.9429C93.0597 217.175 93.1695 217.226 93.25 217.31C93.3305 217.395 93.3753 217.508 93.3753 217.624C93.3753 217.741 93.3305 217.854 93.25 217.939C93.1695 218.023 93.0597 218.074 92.9429 218.08H40.0283Z" fill="#B6DBFF"/>
<path d="M92.943 218.08C93.0598 218.074 93.1696 218.023 93.2501 217.939C93.3306 217.854 93.3754 217.741 93.3754 217.625C93.3754 217.508 93.3306 217.395 93.2501 217.31C93.1696 217.226 93.0598 217.175 92.943 217.169H40.0284C39.9118 217.175 39.8018 217.226 39.7213 217.31C39.6408 217.395 39.5959 217.508 39.5959 217.625C39.5959 217.741 39.6408 217.854 39.7213 217.939C39.8018 218.023 39.9118 218.074 40.0284 218.08C59.1144 218.413 72.2672 218.441 92.943 218.08Z" fill="#78B5FF"/>
<path d="M148.329 214.221C148.298 216.025 148.316 217.832 148.329 219.636C148.337 220.004 148.202 220.36 147.952 220.629C147.702 220.899 147.357 221.06 146.99 221.079C146.623 221.098 146.263 220.974 145.986 220.732C145.71 220.489 145.539 220.149 145.509 219.783C145.5 219.659 145.509 214.298 145.509 214.221C145.503 214.105 145.452 213.995 145.367 213.914C145.283 213.834 145.17 213.789 145.053 213.789C144.936 213.789 144.824 213.834 144.739 213.914C144.654 213.995 144.604 214.105 144.598 214.221C144.5 219.848 144.573 219.589 144.64 220.111C144.766 220.702 145.115 221.222 145.616 221.561C146.117 221.9 146.729 222.031 147.325 221.928C147.921 221.825 148.453 221.495 148.811 221.008C149.168 220.52 149.323 219.913 149.243 219.314V214.221C149.239 214.1 149.186 213.986 149.098 213.904C149.01 213.821 148.892 213.777 148.771 213.781C148.655 213.783 148.544 213.83 148.462 213.912C148.379 213.994 148.332 214.105 148.329 214.221Z" fill="#FFD7D7"/>
<path d="M212.725 214.221C212.693 216.025 212.712 217.832 212.725 219.636C212.733 220.004 212.598 220.36 212.348 220.629C212.098 220.899 211.753 221.06 211.386 221.079C211.019 221.098 210.659 220.973 210.382 220.731C210.106 220.489 209.934 220.149 209.905 219.783C209.896 219.659 209.905 214.298 209.905 214.221C209.899 214.104 209.848 213.994 209.763 213.914C209.678 213.833 209.566 213.789 209.449 213.789C209.332 213.789 209.22 213.833 209.135 213.914C209.05 213.994 208.999 214.104 208.993 214.221C208.894 219.874 208.97 219.601 209.035 220.111C209.161 220.702 209.511 221.222 210.012 221.561C210.513 221.9 211.125 222.031 211.721 221.928C212.316 221.825 212.849 221.495 213.207 221.007C213.564 220.52 213.719 219.913 213.638 219.314V214.221C213.632 214.104 213.582 213.994 213.497 213.914C213.412 213.833 213.3 213.789 213.183 213.789C213.066 213.789 212.953 213.833 212.869 213.914C212.784 213.994 212.733 214.104 212.727 214.221H212.725Z" fill="#FFD7D7"/>
<path d="M45.3741 72.7125C41.6739 72.896 38.761 72.9195 35.4541 72.8365C35.3298 73.5652 35.3673 74.3123 35.5639 75.025C35.7607 75.7379 36.1115 76.3985 36.5919 76.9605C37.0722 77.5226 37.6703 77.9719 38.3435 78.2772C39.0169 78.5825 39.7492 78.7358 40.4885 78.7265C41.2277 78.7173 41.9559 78.5457 42.6215 78.2238C43.287 77.9018 43.8737 77.4376 44.3397 76.8636C44.8059 76.2898 45.14 75.6204 45.3188 74.9033C45.4976 74.1859 45.5166 73.4378 45.3741 72.7125Z" fill="#FFBABA"/>
<path d="M42.4079 65.8935C41.3693 65.5459 40.2636 65.4462 39.1797 65.6023C38.0957 65.7585 37.0631 66.1664 36.1649 66.7929C35.2664 67.4197 34.5274 68.2477 34.0064 69.2113C33.4856 70.1747 33.1974 71.2467 33.165 72.3416C33.1569 72.4263 33.1767 72.5113 33.2216 72.5837C33.2664 72.6558 33.3336 72.7115 33.413 72.7422C34.3903 72.9005 35.3832 72.9419 36.3705 72.8662C42.1687 72.9679 45.9185 72.6739 47.3371 72.6182C47.457 72.6155 47.5715 72.5668 47.6565 72.482C47.7415 72.3972 47.7904 72.2829 47.7934 72.163C47.8119 69.1561 45.1075 66.7307 42.4079 65.8935Z" fill="#C0C195"/>
<path d="M197.623 186.635V201.953C197.629 202.069 197.679 202.179 197.764 202.26C197.849 202.34 197.961 202.385 198.078 202.385C198.195 202.385 198.308 202.34 198.392 202.26C198.477 202.179 198.528 202.069 198.534 201.953V186.635C198.528 186.518 198.477 186.408 198.392 186.328C198.308 186.247 198.195 186.202 198.078 186.202C197.961 186.202 197.849 186.247 197.764 186.328C197.679 186.408 197.629 186.518 197.623 186.635Z" fill="#6596E1"/>
<path d="M156.075 64.4799H134.003C131.539 64.4766 129.17 63.533 127.378 61.8421C125.586 60.151 124.507 57.8401 124.362 55.3806C124.216 52.9213 125.014 50.4991 126.593 48.6079C128.172 46.7171 130.414 45.5 132.86 45.2054C134.111 45.0814 153.327 45.1707 156.084 45.1409C156.163 45.1393 156.241 45.1174 156.31 45.0769C156.378 45.0363 156.435 44.9788 156.475 44.9096C156.515 44.8406 156.536 44.7626 156.536 44.6828C156.537 44.6032 156.517 44.5247 156.478 44.4553C154.331 39.792 150.786 35.9124 146.335 33.3544C141.884 30.7961 136.748 29.686 131.638 30.1782C126.528 30.6701 121.697 32.74 117.816 36.1004C113.935 39.461 111.196 43.9458 109.978 48.9328H108.516C108.81 49.9282 108.971 50.9581 108.995 51.9956C109.044 53.5555 109.268 55.485 107.931 56.6098C107.682 56.8197 107.394 56.9784 107.083 57.0769C106.773 57.1754 106.446 57.2117 106.121 57.184C105.796 57.156 105.48 57.0645 105.191 56.9146C104.902 56.7644 104.645 56.5588 104.435 56.3097C104.004 55.7691 103.674 55.1542 103.463 54.4955C103.237 53.8308 102.496 51.7278 102.363 51.3359C102.427 52.4632 102.425 53.593 102.356 54.72C102.035 58.1995 98.4176 58.4003 96.7659 55.464C95.913 53.841 95.2297 52.1345 94.7274 50.3712C94.4532 53.1265 94.6392 54.2425 94.0875 55.5693C93.9 56.114 93.5309 56.5778 93.0421 56.8828C92.5533 57.1878 91.9746 57.3154 91.4028 57.2447C90.0005 57.0562 89.1708 55.65 88.7754 54.4161C88.1987 52.6379 88.3414 50.7482 87.8379 48.9403C87.0083 48.954 86.1788 48.9788 85.348 48.9813C85.2878 48.9808 85.2281 48.9687 85.1726 48.9452C85.1172 48.9218 85.0669 48.8875 85.0247 48.8444C84.9826 48.8014 84.9492 48.7507 84.9269 48.6947C84.9043 48.6388 84.8933 48.5789 84.8942 48.5187C84.8926 48.4535 84.9075 48.3892 84.9375 48.3315C83.7067 45.9185 81.8145 43.9056 79.4821 42.5283C77.15 41.1508 74.4737 40.4654 71.7664 40.5524C69.0592 40.6395 66.4324 41.4951 64.1934 43.0196C61.9544 44.5439 60.1954 46.674 59.122 49.161C59.0832 49.2309 59.0632 49.3098 59.0639 49.3898C59.0645 49.4696 59.086 49.5481 59.1261 49.6173C59.1662 49.6865 59.2237 49.7442 59.2927 49.7846C59.3617 49.8249 59.4399 49.8468 59.52 49.8479C59.52 49.8479 70.7185 49.8667 72.085 49.8479C72.7395 49.8346 73.3899 49.951 73.9993 50.19C74.6087 50.4289 75.1649 50.7861 75.6359 51.2408C76.1066 51.6955 76.4831 52.2387 76.7433 52.8393C77.0037 53.4399 77.1426 54.086 77.1523 54.7405C77.162 55.395 77.0423 56.045 76.8001 56.6533C76.5578 57.2613 76.1977 57.8155 75.7405 58.284C75.2833 58.7523 74.7379 59.1258 74.1359 59.3829C73.534 59.6399 72.8872 59.7754 72.2324 59.7817H59.52C59.4406 59.7837 59.363 59.806 59.2949 59.8468C59.2266 59.8874 59.1703 59.9451 59.1306 60.0139C59.0911 60.0829 59.0702 60.1607 59.0695 60.24C59.0688 60.3196 59.0887 60.3979 59.127 60.4673C60.2218 63.0075 62.0317 65.1746 64.3359 66.705C66.6403 68.2351 69.3396 69.0625 72.1057 69.0867C74.8716 69.1105 77.5849 68.3298 79.9155 66.8396C82.2458 65.3493 84.0927 63.2138 85.2315 60.693H109.971C111.188 65.6807 113.927 70.1659 117.808 73.5268C121.689 76.8876 126.52 78.9575 131.63 79.4494C136.741 79.9414 141.878 78.831 146.329 76.2723C150.78 73.7134 154.324 69.8331 156.471 65.1694C156.51 65.0995 156.531 65.0208 156.53 64.9405C156.53 64.8605 156.509 64.7818 156.469 64.7122C156.429 64.6427 156.372 64.5848 156.303 64.544C156.234 64.5034 156.155 64.4813 156.075 64.4799Z" fill="#B0B04C"/>
<path d="M108.996 52.0007C108.972 50.9631 108.811 49.9332 108.517 48.9379C108.101 47.6203 107.385 46.4173 106.424 45.4239C105.463 44.4308 104.285 43.6742 102.982 43.214C99.7698 42.1368 96.3427 41.8624 93.0001 42.4143C89.2801 43.0343 86.1925 44.8745 84.9078 48.4071C84.8767 48.5248 84.8936 48.6502 84.9547 48.7555C85.0158 48.8608 85.1162 48.9374 85.2338 48.969C85.3666 49.0037 85.4956 48.9814 87.8378 48.9428C88.3438 50.7694 88.1999 52.6455 88.7753 54.4187C89.1759 55.6526 90.0004 57.0587 91.4029 57.2472C91.9747 57.318 92.5534 57.1904 93.042 56.8854C93.5308 56.5803 93.8999 56.1166 94.0874 55.5719C94.643 54.2376 94.4509 53.1514 94.7273 50.3738C95.2273 52.1377 95.9107 53.8446 96.7658 55.4666C98.4189 58.4065 102.035 58.1946 102.356 54.7226C102.425 53.5957 102.427 52.4658 102.363 51.3385C102.497 51.7292 103.231 53.8334 103.463 54.498C103.674 55.1568 104.004 55.7714 104.435 56.3122C104.645 56.5623 104.901 56.7686 105.19 56.9192C105.48 57.0698 105.796 57.1618 106.121 57.1897C106.445 57.2174 106.773 57.1809 107.083 57.0817C107.394 56.9827 107.682 56.8231 107.931 56.6123C109.269 55.4914 109.044 53.5606 108.996 52.0007ZM101.235 47.0159C100.658 46.1445 99.9763 45.3468 99.2062 44.64C98.7735 44.2407 99.4208 43.5973 99.851 43.9952C100.675 44.7575 101.403 45.6169 102.02 46.5546C102.343 47.047 101.556 47.5033 101.234 47.0159H101.235ZM93.713 47.0035C93.0657 46.3485 92.4845 45.6318 91.977 44.8632C91.6521 44.3672 92.4421 43.9159 92.7631 44.4033C93.2287 45.1056 93.7621 45.7605 94.3553 46.3587C94.7694 46.7766 94.1246 47.4214 93.7118 47.0035H93.713Z" fill="#FFD7D7"/>
<path d="M37.8324 111.445V136.127C37.8385 136.244 37.8892 136.354 37.974 136.434C38.0588 136.515 38.1713 136.56 38.288 136.56C38.405 136.56 38.5176 136.515 38.6023 136.434C38.6871 136.354 38.7378 136.244 38.7439 136.127V111.451C38.7378 111.334 38.6871 111.224 38.6023 111.144C38.5176 111.063 38.405 111.019 38.288 111.019C38.1713 111.019 38.0588 111.063 37.974 111.144C37.8892 111.224 37.8385 111.334 37.8324 111.451V111.445Z" fill="#C0C195"/>
<path d="M16.3792 111.635V136.317C16.3853 136.434 16.4359 136.544 16.5207 136.624C16.6055 136.705 16.7179 136.749 16.8349 136.749C16.9518 136.749 17.0642 136.705 17.149 136.624C17.2338 136.544 17.2845 136.434 17.2906 136.317V111.641C17.2845 111.524 17.2338 111.414 17.149 111.334C17.0642 111.253 16.9518 111.208 16.8349 111.208C16.7179 111.208 16.6055 111.253 16.5207 111.334C16.4359 111.414 16.3853 111.524 16.3792 111.641V111.635Z" fill="#C0C195"/>
<path d="M20.1946 136.259C21.2238 135.267 22.2365 134.254 23.2327 133.222C23.3125 133.135 23.3558 133.021 23.3533 132.903C23.351 132.786 23.303 132.673 23.2198 132.59C23.1364 132.507 23.0241 132.459 22.9065 132.456C22.7885 132.454 22.6745 132.497 22.5879 132.577C21.5586 133.569 20.546 134.582 19.5498 135.615C19.4727 135.702 19.4318 135.815 19.4354 135.932C19.439 136.048 19.4868 136.159 19.5691 136.241C19.6515 136.323 19.762 136.37 19.8783 136.374C19.9945 136.377 20.1077 136.336 20.1946 136.259Z" fill="#C0C195"/>
<path d="M88.9215 97.908L91.9595 95.056C92.3885 94.6528 91.7426 94.0094 91.3147 94.4112L88.2781 97.2632C87.849 97.666 88.4938 98.3097 88.9215 97.908Z" fill="#C0C195"/>
<path d="M57.712 89.3643C57.2942 88.9526 56.6494 89.5963 57.0672 90.0091C60.1048 93.0011 62.4975 96.5836 64.098 100.536C64.3151 101.072 65.1967 100.838 64.9773 100.288C63.3265 96.1886 60.8542 92.4713 57.712 89.3643Z" fill="#C0C195"/>
<path d="M51.832 202.966C55.0046 200.933 58.4901 199.437 62.1488 198.536C62.7181 198.398 62.4762 197.518 61.9008 197.658C58.1652 198.577 54.6062 200.104 51.3671 202.18C50.8761 202.492 51.336 203.284 51.832 202.966Z" fill="#78B5FF"/>
<path d="M23.3406 158.72V161.63C23.3467 161.747 23.3972 161.857 23.4819 161.937C23.5669 162.018 23.6792 162.063 23.7962 162.063C23.913 162.063 24.0255 162.018 24.1103 161.937C24.195 161.857 24.2458 161.747 24.2519 161.63V158.72C24.2458 158.603 24.195 158.493 24.1103 158.413C24.0255 158.332 23.913 158.287 23.7962 158.287C23.6792 158.287 23.5669 158.332 23.4819 158.413C23.3972 158.493 23.3467 158.603 23.3406 158.72Z" fill="#FBB0A4"/>
<path d="M30.618 158.403V161.441C30.6241 161.557 30.6749 161.667 30.7596 161.748C30.8444 161.828 30.9569 161.873 31.0739 161.873C31.1907 161.873 31.3032 161.828 31.388 161.748C31.4727 161.667 31.5235 161.557 31.5296 161.441V158.403C31.5235 158.286 31.4727 158.176 31.388 158.095C31.3032 158.015 31.1907 157.97 31.0739 157.97C30.9569 157.97 30.8444 158.015 30.7596 158.095C30.6749 158.176 30.6241 158.286 30.618 158.403Z" fill="#FBB0A4"/>
<path d="M93.7118 47.0034C94.1248 47.4214 94.7696 46.7766 94.3566 46.3586C93.7634 45.7605 93.23 45.1053 92.7644 44.4033C92.4434 43.9158 91.6484 44.3721 91.9782 44.8632C92.4848 45.6315 93.0654 46.3483 93.7118 47.0034Z" fill="#FFBABA"/>
<path d="M101.234 47.0158C101.555 47.5032 102.344 47.0469 102.02 46.5559C101.403 45.618 100.675 44.7585 99.8511 43.9965C99.4207 43.5984 98.7734 44.2445 99.2063 44.6413C99.9758 45.3477 100.657 46.1451 101.234 47.0158Z" fill="#FFBABA"/>
<path d="M95.5109 34.5539V21.6442C95.5048 21.5275 95.4541 21.4175 95.3693 21.337C95.2845 21.2565 95.1723 21.2117 95.0553 21.2117C94.9382 21.2117 94.826 21.2565 94.7412 21.337C94.6562 21.4175 94.6057 21.5275 94.5996 21.6442V34.5539C94.6057 34.6707 94.6562 34.7804 94.7412 34.8609C94.826 34.9414 94.9382 34.9863 95.0553 34.9863C95.1723 34.9863 95.2845 34.9414 95.3693 34.8609C95.4541 34.7804 95.5048 34.6707 95.5109 34.5539Z" fill="black"/>
<path d="M92.339 33.976L87.7832 29.4191C87.6966 29.3391 87.5826 29.296 87.4647 29.2983C87.347 29.3008 87.2347 29.3486 87.1513 29.432C87.0681 29.5152 87.0203 29.6275 87.0178 29.7454C87.0153 29.8631 87.0586 29.9771 87.1384 30.0639L91.6955 34.6208C91.7826 34.6979 91.8957 34.739 92.0121 34.7354C92.1284 34.7318 92.2389 34.684 92.3209 34.6014C92.403 34.5192 92.4508 34.4087 92.4542 34.2923C92.4576 34.1762 92.4163 34.0631 92.339 33.976Z" fill="black"/>
<path d="M98.1622 34.8763L102.718 30.3194C102.795 30.2323 102.836 30.1192 102.833 30.0028C102.83 29.8867 102.782 29.776 102.7 29.6937C102.618 29.6114 102.507 29.5636 102.391 29.56C102.275 29.5564 102.161 29.5975 102.074 29.6746L97.5172 34.2315C97.4374 34.318 97.3943 34.4323 97.3966 34.55C97.399 34.6679 97.4468 34.7802 97.5303 34.8634C97.6135 34.9468 97.7257 34.9946 97.8436 34.9969C97.9613 34.9994 98.0754 34.9561 98.1622 34.8763Z" fill="black"/>
<path d="M198.126 134.304L203.614 138.821C204.139 139.252 204.895 138.504 204.366 138.069L198.879 133.553C198.354 133.121 197.596 133.869 198.126 134.304Z" fill="black"/>
<path d="M203.656 134.037C204.301 134.271 204.578 133.243 203.939 133.011C202.628 132.534 201.318 132.057 200.008 131.579C199.365 131.345 199.087 132.371 199.725 132.605L203.656 134.037Z" fill="black"/>
<path d="M158.517 134.37L154.301 137.567C154.182 137.641 154.096 137.758 154.061 137.893C154.026 138.028 154.043 138.172 154.111 138.295C154.146 138.355 154.193 138.408 154.248 138.45C154.304 138.492 154.367 138.523 154.435 138.541C154.502 138.558 154.573 138.563 154.642 138.553C154.711 138.543 154.777 138.52 154.838 138.485C156.243 137.42 157.648 136.354 159.054 135.288C159.173 135.214 159.259 135.098 159.294 134.963C159.33 134.827 159.312 134.684 159.245 134.561C159.209 134.501 159.163 134.448 159.107 134.405C159.051 134.363 158.988 134.332 158.92 134.314C158.853 134.297 158.782 134.292 158.713 134.302C158.644 134.312 158.577 134.335 158.517 134.37Z" fill="black"/>
<path d="M158.517 131.754L151.306 135.072C150.686 135.358 151.225 136.275 151.843 135.989L159.052 132.671C159.673 132.386 159.134 131.47 158.517 131.754Z" fill="black"/>
<path d="M177.205 57.0535C178.341 56.4518 179.556 56.011 180.814 55.7441C183.208 55.2098 185.969 54.6603 187.401 52.4346C190.178 48.1219 184.774 41.5015 188.097 36.6283C188.492 35.9659 189.061 35.4241 189.742 35.0613C190.423 34.6986 191.19 34.5286 191.961 34.5699C192.097 34.6037 192.241 34.5838 192.362 34.5146C192.484 34.4454 192.575 34.332 192.616 34.1979C192.634 34.1307 192.639 34.0603 192.631 33.9909C192.622 33.9217 192.6 33.8547 192.565 33.7938C192.531 33.7332 192.484 33.68 192.429 33.6371C192.374 33.5943 192.311 33.5627 192.244 33.5445C188.977 33.0893 186.398 36.0851 186.034 39.0859C185.453 43.8588 187.719 47.1087 187.08 50.3762C186.948 51.038 186.664 51.66 186.248 52.1921C185.833 52.7239 185.299 53.1516 184.689 53.4402C181.567 54.8463 180.001 54.4421 177.082 55.9028C175.72 56.606 174.617 57.7254 173.935 59.0984C171.936 62.9361 172.9 67.3133 174.046 71.2355C174.089 71.3649 174.18 71.4729 174.301 71.5372C174.421 71.6014 174.561 71.6172 174.693 71.5809C174.824 71.5446 174.937 71.4592 175.007 71.3422C175.078 71.2254 175.1 71.0858 175.071 70.9528C174.151 67.534 173.173 63.8377 174.509 60.3891C175.016 59.0107 175.963 57.8381 177.205 57.0535Z" fill="black"/>
<path d="M131.749 173.905L131.767 173.93L131.749 173.905Z" fill="black"/>
<path d="M6.24714 217.775C6.27092 217.886 6.33292 217.985 6.42225 218.054C6.51157 218.124 6.62252 218.16 6.7357 218.156H39.5176C39.5855 219.397 39.9029 220.611 40.4508 221.726C40.9986 222.842 41.7656 223.835 42.706 224.648C43.6464 225.461 44.741 226.075 45.9241 226.456C47.1073 226.834 48.355 226.972 49.5925 226.859H98.1881C101.513 226.911 104.809 226.235 107.844 224.875C121.311 218.619 119.79 199.15 103.451 196.087C104.445 193.854 105.835 191.818 107.553 190.078C107.768 190.418 107.981 190.762 108.205 191.098L108.225 191.119L108.233 191.142C115.599 202.16 128.279 210.079 141.603 207.566C141.8 207.532 141.996 207.49 142.195 207.453V211.713C142.196 211.853 142.253 211.987 142.352 212.086C142.451 212.185 142.585 212.242 142.725 212.244H215.832C215.972 212.241 216.105 212.184 216.204 212.085C216.303 211.986 216.36 211.853 216.364 211.713V150.435C216.362 150.295 216.305 150.161 216.206 150.061C216.107 149.962 215.972 149.905 215.832 149.904H194.438V132.928C200.111 129.599 204.531 124.496 207.015 118.406C209.499 112.316 209.91 105.577 208.184 99.2309C206.457 92.8841 202.69 87.2818 197.464 83.289C192.237 79.2962 185.841 77.1345 179.264 77.1377C172.687 77.1409 166.293 79.3088 161.071 83.3068C155.848 87.305 152.086 92.9107 150.367 99.2593C148.647 105.608 149.064 112.346 151.554 118.433C154.044 124.521 158.469 129.62 164.145 132.943V149.904H142.724C142.584 149.906 142.45 149.963 142.351 150.062C142.252 150.161 142.195 150.295 142.193 150.435V179.491C140.345 179.697 138.478 179.341 136.836 178.468C134.84 177.35 133.114 175.805 131.781 173.945L131.766 173.93C131.707 173.863 131.632 173.813 131.548 173.782C131.623 173.809 131.691 173.851 131.747 173.906C131.595 173.707 130.927 172.817 130.276 171.823C126.382 165.788 126.495 159.075 121.742 153.017C115.942 145.978 105.716 143.883 96.4844 143.965C87.1426 144.063 77.9831 146.561 69.8852 151.219C68.6563 136.032 68.8759 138.382 68.3327 123.701C68.066 116.468 67.9831 110.02 66.2135 103.301C79.6824 103.029 82.6051 102.795 86.7801 101.954C90.2494 101.254 93.3041 99.2171 95.284 96.2835C99.2112 90.7606 101.619 79.8298 102.639 73.1438C103.271 69.0448 103.691 64.9158 103.9 60.7735H109.91C111.142 65.7678 113.896 70.2555 117.79 73.6159C121.684 76.9763 126.527 79.0435 131.647 79.5309C136.768 80.0186 141.913 78.9026 146.372 76.3373C150.831 73.7721 154.382 69.8846 156.534 65.2127C156.579 65.1318 156.602 65.0405 156.601 64.9478C156.6 64.8552 156.576 64.7643 156.529 64.6838C156.483 64.6035 156.417 64.5364 156.338 64.4888C156.258 64.4415 156.168 64.4153 156.075 64.413H134.003C131.559 64.4108 129.207 63.4756 127.429 61.7987C125.65 60.1217 124.579 57.8293 124.433 55.3894C124.287 52.9494 125.078 50.5456 126.644 48.6687C128.21 46.7917 130.433 45.5833 132.86 45.2898C133.735 45.2005 132.143 45.2253 156.084 45.2253C156.177 45.2233 156.267 45.1973 156.347 45.15C156.427 45.1026 156.493 45.0354 156.539 44.955C156.585 44.8745 156.61 44.7834 156.611 44.6907C156.611 44.5978 156.588 44.5065 156.543 44.4254C154.39 39.7535 150.839 35.8662 146.38 33.301C141.922 30.736 136.776 29.6202 131.655 30.1079C126.535 30.5955 121.692 32.6627 117.798 36.0234C113.904 39.3838 111.15 43.8717 109.919 48.8659H108.579C108.148 47.5504 107.422 46.351 106.456 45.3594C105.49 44.3677 104.31 43.6101 103.007 43.1446C99.7857 42.0486 96.3419 41.7738 92.9876 42.3446C89.4337 42.9462 86.2147 44.7453 84.9276 48.1591C83.6697 45.7607 81.7586 43.7675 79.4154 42.4098C77.072 41.0521 74.3925 40.3854 71.6862 40.4869C68.98 40.5884 66.3578 41.4539 64.1226 42.9831C61.8877 44.5124 60.1312 46.6432 59.0562 49.1288C59.0116 49.21 58.9883 49.3013 58.9892 49.3939C58.9899 49.4864 59.0145 49.5775 59.0607 49.6577C59.1067 49.7382 59.1728 49.8052 59.2523 49.8527C59.3319 49.9001 59.4223 49.9262 59.515 49.9285C59.515 49.9285 70.7135 49.9483 72.08 49.9285C72.7244 49.9156 73.3649 50.0299 73.9648 50.2653C74.565 50.5007 75.1124 50.8522 75.5762 51.2999C76.0399 51.7475 76.4106 52.2825 76.6669 52.8736C76.9232 53.465 77.0601 54.1012 77.07 54.7456C77.0797 55.3901 76.962 56.03 76.7235 56.6288C76.4852 57.2276 76.1308 57.7734 75.6808 58.2347C75.2308 58.6962 74.6942 59.0641 74.1014 59.3175C73.5087 59.5707 72.872 59.7044 72.2275 59.711H59.52C59.4273 59.7132 59.3369 59.7394 59.2573 59.7867C59.1777 59.8343 59.1117 59.9015 59.0657 59.9817C59.0194 60.0622 58.9949 60.1531 58.9942 60.2457C58.9933 60.3384 59.0165 60.4297 59.0612 60.5106C60.1611 63.0594 61.977 65.2344 64.2888 66.7711C66.6006 68.308 69.3085 69.1408 72.0843 69.1688C74.8601 69.1965 77.5845 68.418 79.9265 66.928C82.2685 65.4377 84.1279 63.2997 85.2786 60.7735H86.0474C84.8545 70.241 84.8223 70.8065 84.3536 72.8599C84.1209 74.3127 83.58 75.6991 82.7673 76.9258C81.9547 78.1522 80.8888 79.1907 79.6415 79.9712C77.0623 81.427 73.9971 81.7284 71.1065 82.0483C62.5891 82.9918 48.7358 84.0632 43.4545 83.8847C37.3896 83.6822 31.3859 85.1524 26.1008 88.1342C22.8446 90.0328 20.0846 92.676 18.047 95.847C13.7925 102.713 13.3523 109.487 12.7348 117.631C12.281 123.604 12.0069 129.589 11.8445 135.577C11.8247 136.321 7.94842 210.101 7.94718 210.141C7.94878 210.282 8.00539 210.416 8.10484 210.515C8.20428 210.615 8.33866 210.671 8.47914 210.672L31.2951 210.481C31.3789 211.329 31.5697 212.162 31.863 212.961C23.1949 211.829 14.3853 213.279 6.5373 217.13C6.47191 217.148 6.41124 217.179 6.35968 217.223C6.30812 217.267 6.26695 217.322 6.23918 217.384C6.2114 217.445 6.19769 217.512 6.19907 217.58C6.20044 217.648 6.21686 217.714 6.24714 217.775ZM109.224 199.356C120.707 206.32 117.417 225.757 98.1881 225.797C98.1881 225.797 49.3384 225.797 48.7344 225.797C46.6571 225.804 44.6555 225.016 43.1396 223.596C41.6236 222.175 40.708 220.229 40.5802 218.156H92.9429C93.0795 218.149 93.2081 218.09 93.3025 217.991C93.3968 217.892 93.4493 217.761 93.4493 217.624C93.4493 217.488 93.3968 217.356 93.3025 217.257C93.2081 217.158 93.0795 217.1 92.9429 217.093H40.0272C37.8723 217.106 35.7933 216.297 34.2154 214.829C30.2623 210.51 33.2531 202.1 35.5323 196.747H94.1843C99.944 196.747 104.017 196.292 109.224 199.356ZM154.204 92.7854C156.407 88.9299 159.469 85.6342 163.153 83.1546C166.836 80.6751 171.042 79.0782 175.443 78.4884C179.844 77.8986 184.322 78.3317 188.529 79.7539C192.735 81.176 196.558 83.5492 199.698 86.6886C202.838 89.8281 205.212 93.6495 206.635 97.8556C208.059 102.062 208.493 106.54 207.904 110.941C207.315 115.342 205.72 119.548 203.241 123.233C200.762 126.917 197.467 129.98 193.612 132.184C193.513 132.237 193.435 132.323 193.391 132.427C193.348 132.532 193.343 132.648 193.375 132.756V149.904H181.524C181.734 147.932 185.709 113.658 185.789 112.986C187.262 112.095 188.45 110.801 189.212 109.256C189.849 107.942 190.465 105.588 189.026 104.544C187.517 103.58 185.802 104.887 185.503 106.584C185.33 107.497 185.395 107.347 184.8 112.319C183.48 113.005 181.452 113.32 180.336 112.179C183.051 110.235 183.676 106.402 182.32 104.367C182.117 104.01 181.83 103.709 181.483 103.489C181.136 103.27 180.741 103.138 180.332 103.107C179.923 103.076 179.513 103.146 179.137 103.311C178.761 103.476 178.431 103.73 178.177 104.052C177.677 104.824 177.453 105.741 177.541 106.656C177.541 108.454 177.961 110.228 178.767 111.836C177.786 112.254 176.691 112.321 175.667 112.023C175.846 109.687 175.537 107.339 174.758 105.13C174.13 103.376 172.199 102.25 170.899 103.612C170.418 104.251 170.2 105.049 170.289 105.844C170.316 107.28 170.731 108.682 171.49 109.902C172.249 111.122 173.324 112.113 174.601 112.772C174.67 121.824 176.359 143.709 176.849 149.895C176.849 149.895 165.441 149.885 165.216 149.881V132.645C165.221 132.552 165.199 132.46 165.153 132.379C165.107 132.297 165.039 132.231 164.957 132.186C161.664 130.306 158.774 127.794 156.451 124.796C154.128 121.798 152.419 118.372 151.42 114.713C150.422 111.054 150.154 107.235 150.631 103.472C151.109 99.71 152.323 96.0786 154.204 92.7854ZM180.811 113.741C182.073 114.147 183.44 114.076 184.655 113.544C184.192 117.325 180.824 146.557 180.465 149.902H177.909C177.732 147.678 176.074 123.805 175.963 121.479C175.869 119.48 175.677 113.915 175.666 113.129C176.92 113.416 178.234 113.274 179.397 112.725C179.778 113.175 180.263 113.524 180.811 113.743V113.741ZM178.668 107.665C178.505 106.807 178.55 105.922 178.799 105.085C178.9 104.765 179.115 104.494 179.405 104.325C179.694 104.156 180.036 104.101 180.364 104.171C180.722 104.291 181.042 104.503 181.291 104.786C181.54 105.069 181.71 105.413 181.783 105.783C182.022 106.812 181.953 107.888 181.583 108.877C181.213 109.866 180.559 110.723 179.703 111.342C179.106 110.202 178.754 108.95 178.668 107.667V107.665ZM185.955 111.584C186.08 109.926 186.29 108.276 186.585 106.64C186.803 105.27 188.864 104.43 188.817 106.668C188.712 107.643 188.402 108.584 187.909 109.431C187.416 110.278 186.751 111.012 185.955 111.585V111.584ZM174.593 111.573C173.57 110.921 172.733 110.017 172.163 108.946C171.593 107.876 171.31 106.677 171.341 105.464C171.358 104.916 171.517 104.121 172.199 104.093C173.009 104.059 173.488 104.926 173.776 105.556C174.483 107.479 174.761 109.533 174.592 111.574L174.593 111.573ZM143.257 150.968H215.301V211.172H143.257V207.235C146.815 206.458 150.252 205.211 153.48 203.525C156.832 201.859 159.832 199.563 162.316 196.763C162.061 198.058 162.077 199.392 162.364 200.68C162.562 201.255 162.9 201.772 163.347 202.184C163.793 202.596 164.335 202.892 164.924 203.043C165.513 203.195 166.13 203.198 166.72 203.052C167.311 202.907 167.856 202.617 168.307 202.209C169.203 201.253 169.786 200.044 169.977 198.747C170.179 198.061 170.386 197.383 170.597 196.694C171.244 198.908 171.642 200.655 172.658 201.874C173.114 202.444 173.715 202.88 174.399 203.135C175.082 203.391 175.822 203.457 176.54 203.326C177.288 203.13 177.969 202.737 178.512 202.187C179.056 201.638 179.442 200.953 179.63 200.203C180.198 198.17 179.925 197.873 180.126 198.572C180.602 200.245 181.49 202.168 183.363 202.57C188.115 203.576 188.275 197.33 188.004 193.79H191.121C191.262 193.788 191.396 193.731 191.495 193.632C191.595 193.532 191.651 193.398 191.653 193.258V190.08C191.651 189.939 191.595 189.805 191.496 189.706C191.396 189.607 191.263 189.551 191.123 189.549H187.403C187.001 187.378 186.408 185.247 185.632 183.18C183.336 177.251 177.44 173.346 171.263 172.578C167.238 172.265 163.191 172.685 159.317 173.818V161.666C159.317 161.525 159.26 161.39 159.161 161.29C159.061 161.19 158.926 161.134 158.784 161.134C158.643 161.134 158.508 161.19 158.408 161.29C158.309 161.39 158.253 161.525 158.253 161.666V174.117C150.896 176.213 147.205 178.643 143.257 179.344V150.968ZM186.956 193.793C187.236 196.471 187.125 201.481 184.352 201.613C183.965 201.638 183.579 201.571 183.222 201.42C182.866 201.268 182.55 201.034 182.3 200.739C181.23 199.031 180.638 197.068 180.586 195.053C180.556 194.488 179.657 194.291 179.542 194.912C179.294 196.248 179.046 197.588 178.812 198.927C178.781 199.607 178.569 200.266 178.199 200.837C177.828 201.408 177.312 201.87 176.704 202.175C176.149 202.362 175.551 202.378 174.988 202.22C174.424 202.063 173.921 201.739 173.544 201.292C172.826 200.306 172.324 199.18 172.072 197.987C171.742 196.887 171.42 195.783 171.106 194.675C171.072 194.566 171.004 194.47 170.912 194.402C170.82 194.334 170.708 194.297 170.594 194.297C170.479 194.297 170.367 194.334 170.275 194.402C170.183 194.47 170.115 194.566 170.081 194.675C168.315 200.503 168.531 200.204 168.049 200.944C167.781 201.322 167.422 201.624 167.004 201.821C166.586 202.019 166.125 202.106 165.664 202.073C165.202 202.041 164.758 201.89 164.372 201.635C163.986 201.381 163.672 201.032 163.461 200.621C162.951 199.125 163.267 198.167 163.523 195.232C163.914 194.763 164.316 194.303 164.733 193.855C171.616 193.854 186.425 193.793 186.956 193.793ZM165.822 192.79C166.507 192.141 167.306 191.623 168.178 191.261C169.468 190.848 170.815 190.641 172.17 190.65C173.265 190.65 190.59 190.609 190.59 190.609V192.724C187.999 192.727 166.956 192.79 165.822 192.79ZM141.33 180.618C145.753 180.452 147.962 178.742 154.779 176.342C163.032 173.435 171.652 171.642 178.928 176.535C181.465 178.231 183.441 180.641 184.608 183.46C185.352 185.437 185.928 187.473 186.33 189.546H175.449C172.365 189.576 168.9 189.266 166.227 191.107C164.877 192.112 163.673 193.298 162.647 194.632L162.614 194.689C160.385 197.7 157.509 200.172 154.198 201.924C150.65 203.94 146.813 205.397 142.822 206.245C139.209 207.141 135.448 207.259 131.786 206.591C122.795 204.868 114.685 198.675 109.383 190.926C115.644 184.354 123.332 179.326 131.249 174.964C133.764 178.084 137.144 180.775 141.33 180.618ZM93.5023 145.132C104.502 144.443 117.195 146.697 122.658 156.267C126.123 162.498 125.731 167.591 130.594 174.11C122.702 178.464 115.025 183.52 108.787 190.021C102.973 181.034 100.568 170.336 100.043 159.765C100.008 159.083 98.9445 159.08 98.9792 159.765C99.6166 172.537 102.77 182.036 106.982 189.133C105.026 191.073 103.462 193.371 102.374 195.903C101.25 195.75 100.117 195.672 98.9817 195.67C96.3245 195.661 36.244 195.661 35.9985 195.66C39.6317 187.194 43.586 178.796 49.042 171.337C54.5403 163.777 61.5182 157.412 69.5516 152.632C76.8342 148.283 85.0401 145.713 93.5023 145.132ZM100.694 43.5549C102.494 43.8741 104.169 44.6903 105.53 45.9109C106.429 46.8055 107.119 47.8881 107.55 49.081C107.981 50.2741 108.143 51.5477 108.023 52.8103C108.114 53.5869 108.047 54.374 107.827 55.1241C107.765 55.3187 107.665 55.499 107.534 55.6548C107.402 55.8108 107.241 55.9393 107.06 56.0331C106.879 56.1269 106.681 56.184 106.477 56.2011C106.274 56.2184 106.069 56.1954 105.875 56.1334C105.527 55.9621 105.22 55.7168 104.977 55.4145C104.734 55.1124 104.559 54.7607 104.466 54.3839C103.902 52.8686 102.93 49.8938 102.259 48.0412C102.071 47.5218 101.143 47.5452 101.215 48.1826C101.373 49.9925 101.435 51.8097 101.4 53.6262C101.4 54.7088 101.298 56.291 100.059 56.5142C99.5415 56.5151 99.0345 56.3675 98.5984 56.0884C98.1622 55.8095 97.8154 55.4111 97.5992 54.9406C96.9326 53.6906 96.389 52.3787 95.976 51.0235C95.6376 50.0315 95.3176 49.0395 95.0299 48.0387C94.9921 47.9186 94.9132 47.8153 94.8065 47.7477C94.7001 47.68 94.5732 47.6521 94.4483 47.669C94.3231 47.6861 94.2082 47.7465 94.1236 47.8401C94.0391 47.9337 93.9902 48.0541 93.9859 48.1801C93.4811 52.2809 93.6139 53.1836 93.4427 54.2561C93.3025 55.1502 92.9096 56.1646 91.9038 56.2847C90.7817 56.4186 90.0736 55.1563 89.7674 54.2674C89.1113 52.3578 89.3309 50.2683 88.6996 48.3426C88.6913 48.3244 88.6814 48.307 88.6699 48.2906C88.6399 48.1878 88.5756 48.0982 88.4879 48.0369C88.4005 47.9754 88.2945 47.9454 88.1876 47.9519L86.1725 47.9855C88.5026 43.1854 95.5259 42.408 100.688 43.5549H100.694ZM84.94 59.7071C84.8471 59.7058 84.7553 59.7294 84.6746 59.7757C84.5939 59.8219 84.5271 59.8891 84.4812 59.97C83.4975 62.3136 81.8623 64.3256 79.7694 65.7673C77.6765 67.2094 75.2138 68.0203 72.6736 68.1046C70.1334 68.1887 67.6226 67.5426 65.4388 66.2424C63.2551 64.9424 61.49 63.043 60.3532 60.7699H72.2288C73.6898 60.7753 75.1018 60.2433 76.1957 59.2749C77.2898 58.3066 77.9894 56.9697 78.1614 55.5189C78.3335 54.0678 77.966 52.6044 77.1286 51.4072C76.2915 50.2099 75.0429 49.3621 73.6212 49.0258C72.2827 48.8188 70.9248 48.764 69.5739 48.8621H60.3744C61.2528 47.1013 62.5122 45.5578 64.0611 44.3442C65.6102 43.1306 67.41 42.277 69.3299 41.8457C71.2499 41.4142 73.2418 41.4156 75.1611 41.8498C77.0806 42.284 78.8791 43.1401 80.4264 44.3559C82.1971 45.7607 83.5902 47.5842 84.48 49.662C84.526 49.7427 84.5928 49.8097 84.6735 49.8559C84.7542 49.9021 84.8457 49.926 84.9388 49.9249H87.9804C88.1121 51.4447 88.3533 52.9532 88.7021 54.4385C88.8462 55.1173 89.1722 55.7441 89.6452 56.2514C90.1184 56.7589 90.7208 57.1279 91.388 57.3189C91.9786 57.3917 92.5766 57.26 93.0818 56.9458C93.5873 56.6315 93.9696 56.1535 94.1656 55.5917C94.7112 54.2773 94.5513 53.1117 94.772 50.7557C95.2362 52.4069 95.8846 54.0009 96.7051 55.5074C98.394 58.5106 102.089 58.2899 102.436 54.7273C102.52 53.7655 102.527 52.7985 102.456 51.8356C102.536 52.0687 103.169 53.8582 103.395 54.5228C103.613 55.1922 103.949 55.8174 104.387 56.369C104.825 56.8869 105.45 57.2095 106.126 57.2661C106.802 57.3229 107.472 57.1092 107.99 56.6716C109.345 55.5308 109.131 53.5865 109.077 52.0031C109.057 51.3062 108.981 50.6121 108.851 49.9274H110.328C110.444 49.9262 110.556 49.8875 110.649 49.8171C110.741 49.7468 110.808 49.6483 110.84 49.5367C111.92 44.7606 114.451 40.4357 118.086 37.1542C121.72 33.8727 126.281 31.7954 131.142 31.2067C136.003 30.6181 140.927 31.547 145.24 33.8662C149.553 36.1852 153.043 39.7812 155.232 44.1614C155.232 44.1614 133.669 44.1614 132.87 44.2245C130.159 44.5183 127.664 45.8394 125.899 47.9165C124.133 49.9936 123.23 52.6687 123.376 55.391C123.523 58.1134 124.707 60.6761 126.685 62.5519C128.663 64.4279 131.286 65.4743 134.012 65.4756H155.227C153.032 69.8467 149.541 73.4335 145.231 75.7457C140.92 78.0582 136.001 78.9835 131.146 78.3951C126.29 77.8068 121.734 75.7338 118.101 72.4591C114.468 69.1843 111.934 64.8678 110.846 60.099C110.814 59.9876 110.747 59.8895 110.655 59.8194C110.562 59.7493 110.45 59.7107 110.334 59.7096L84.94 59.7071ZM87.0926 60.8802H102.832C102.642 64.7593 102.254 68.6261 101.669 72.4656H85.5104C85.922 70.4554 86.0995 68.7878 87.0915 60.884L87.0926 60.8802ZM14.9842 106.93C16.2242 99.9922 19.4482 93.9102 25.213 89.9496C30.5315 86.501 36.7738 84.7535 43.1098 84.94C50.0984 85.0987 63.5698 83.9417 70.8238 83.1445C75.7727 82.6 80.5542 82.0682 83.4037 77.9365C84.2771 76.5883 84.9068 75.0971 85.2637 73.5306H101.495C100.9 77.344 100.078 81.1181 99.0327 84.8334C98.1741 88.2048 96.8807 91.4502 95.1848 94.488C94.3861 95.969 93.3007 97.2762 91.9915 98.3334C90.6825 99.3907 89.176 100.177 87.5602 100.646C84.6277 101.361 81.6271 101.759 78.6099 101.834C74.2512 101.981 69.8913 102.161 65.5303 102.247C65.449 102.248 65.3687 102.268 65.2961 102.305C65.2235 102.341 65.1599 102.394 65.1108 102.459C65.0614 102.524 65.0274 102.599 65.0113 102.679C64.9953 102.759 64.9976 102.841 65.0181 102.92C67.1534 111.011 66.9563 115.196 67.7723 137.268H38.1126C37.9724 137.27 37.8384 137.326 37.739 137.425C37.6398 137.525 37.583 137.658 37.5807 137.799C37.5485 139.564 37.51 141.327 37.4653 143.09H17.9974C17.9974 141.326 17.9974 139.563 17.9974 137.799C17.9954 137.658 17.9389 137.525 17.8398 137.426C17.7407 137.326 17.6068 137.27 17.4667 137.268H12.87C13.0399 130.117 13.6933 113.614 14.9842 106.93ZM37.0561 169.028C37.0773 170.439 37.195 172.077 36.0903 173.151C35.8109 173.466 35.4209 173.662 35.0013 173.697C34.5815 173.731 34.1647 173.603 33.8371 173.338C33.3848 172.911 33.0694 172.36 32.9307 171.754C32.3827 169.196 31.9904 166.608 31.7564 164.002C31.6844 163.338 30.6949 163.302 30.6938 164.002C30.6453 166.051 30.4246 168.094 30.1804 170.126C30.0745 171.108 29.8147 172.067 29.4103 172.969C29.1684 173.526 28.7616 173.996 28.2447 174.315C27.9568 174.45 27.6335 174.489 27.3214 174.428C27.0094 174.367 26.7249 174.209 26.5087 173.976C25.1138 172.659 24.9984 170.635 24.7925 168.768C24.6223 167.223 24.4473 165.679 24.2681 164.136C24.2681 163.995 24.212 163.86 24.1123 163.76C24.0124 163.66 23.8772 163.604 23.736 163.604C23.5949 163.604 23.4596 163.66 23.36 163.76C23.2601 163.86 23.2042 163.995 23.2042 164.136C23.1 165.969 22.9215 167.799 22.8446 169.633C22.8917 170.669 22.7661 171.705 22.4725 172.698C22.328 173.091 22.1015 173.448 21.8079 173.746C21.55 174.007 21.217 174.181 20.8556 174.242C20.6082 174.271 20.3575 174.239 20.1252 174.149C19.8082 174.017 19.5244 173.816 19.2944 173.561C18.6111 172.686 18.2172 171.618 18.1673 170.509C18.1201 169.698 18.0073 144.315 18.0073 144.164H37.4369C37.3364 148.132 37.0437 156.598 37.0401 156.874C37.039 156.99 37.0769 157.104 37.1474 157.197C37.2182 157.289 37.3179 157.356 37.4306 157.386C41.1407 158.337 43.9133 158.856 44.9425 159.981C45.1549 160.243 45.2552 160.579 45.2216 160.915C45.193 161.089 45.1269 161.255 45.0282 161.401C43.9816 163.069 39.1368 162.927 37.179 162.719C37.1091 162.719 37.0399 162.732 36.9754 162.759C36.9109 162.786 36.8523 162.825 36.8029 162.874C36.7533 162.923 36.7143 162.982 36.6875 163.046C36.6607 163.111 36.6469 163.18 36.6469 163.25C36.8566 165.168 37.0214 167.091 37.05 169.028H37.0561ZM31.2405 209.415C28.8473 209.435 9.75138 209.571 9.05078 209.593C9.07186 209.221 12.8452 138.427 12.8477 138.334H16.9459C16.9459 140.098 17.0227 169.404 17.0959 170.397C17.2422 172.39 18.2193 175.312 20.677 175.305C23.0405 175.297 23.8724 172.646 23.8948 170.237C23.982 171.448 24.3342 172.625 24.9264 173.685C25.2098 174.301 25.6869 174.807 26.2852 175.126C26.8834 175.445 27.5694 175.559 28.2386 175.45C30.5139 174.85 31.1451 171.53 31.3535 169.194C31.6337 170.895 31.7899 172.79 32.9344 173.948C34.7944 175.849 38.0506 174.38 38.1275 170.514C38.148 168.277 38.0301 166.04 37.7742 163.818C39.1461 163.936 40.5263 163.923 41.8959 163.778C42.8846 163.682 43.8495 163.417 44.7479 162.993C45.2726 162.762 45.7036 162.361 45.971 161.854C46.2382 161.347 46.3259 160.764 46.2197 160.201C45.735 158.355 43.1707 157.789 41.2225 157.244C40.1958 156.957 39.1605 156.697 38.1225 156.453C38.2267 153.725 38.605 140.1 38.6372 138.336C38.6372 138.336 67.2366 138.359 67.8279 138.344C67.8676 139.075 68.7183 149.884 68.8745 151.803C51.0744 162.421 42.6325 177.363 34.7249 195.947V195.976C34.7089 196.005 34.6927 196.038 34.6767 196.075C33.546 198.587 32.6309 201.19 31.9412 203.857C31.4714 205.672 31.234 207.54 31.2344 209.415H31.2405ZM32.3926 214.106C33.1127 215.42 34.2373 216.467 35.5992 217.093C6.72826 217.093 12.0206 217.1 9.2405 217.071C16.5406 213.989 24.545 212.963 32.3863 214.106H32.3926Z" fill="black"/>
<path d="M187.939 57.0535C189.076 56.4518 190.29 56.011 191.548 55.7441C193.941 55.2098 196.704 54.6603 198.135 52.4346C200.918 48.112 195.506 41.5028 198.832 36.6283C199.227 35.9659 199.796 35.4241 200.477 35.0613C201.158 34.6986 201.925 34.5286 202.695 34.5699C202.831 34.6041 202.975 34.5847 203.097 34.5153C203.219 34.4461 203.309 34.3322 203.349 34.1979C203.367 34.1307 203.373 34.0603 203.364 33.9909C203.355 33.9217 203.333 33.8547 203.298 33.7938C203.264 33.7332 203.218 33.68 203.163 33.6371C203.107 33.5943 203.044 33.5627 202.977 33.5445C199.711 33.0893 197.13 36.0851 196.766 39.0859C196.177 43.9382 198.461 47.063 197.812 50.3762C197.682 51.0386 197.397 51.6611 196.983 52.1939C196.568 52.7266 196.034 53.1547 195.424 53.444C192.214 54.8898 190.797 54.4148 187.818 55.9066C186.455 56.6096 185.353 57.729 184.671 59.102C182.672 62.9399 183.639 67.3158 184.781 71.2391C184.821 71.3728 184.911 71.4858 185.033 71.5534C185.155 71.6211 185.298 71.6382 185.433 71.6012C185.567 71.5642 185.681 71.4759 185.751 71.3552C185.821 71.2346 185.841 71.0915 185.807 70.9564C184.885 67.5378 183.908 63.8413 185.244 60.393C185.75 59.0132 186.697 57.8392 187.939 57.0535Z" fill="black"/>
<path d="M213.46 34.5699C213.596 34.6039 213.739 34.5841 213.861 34.5148C213.983 34.4456 214.073 34.332 214.113 34.1979C214.132 34.1307 214.137 34.0603 214.128 33.9909C214.12 33.9217 214.097 33.8547 214.063 33.7938C214.028 33.7332 213.982 33.68 213.927 33.6371C213.872 33.5943 213.809 33.5627 213.741 33.5445C210.475 33.0893 207.895 36.0851 207.53 39.0859C206.94 43.9382 209.225 47.063 208.577 50.3762C208.446 51.0386 208.161 51.6613 207.746 52.1941C207.332 52.7268 206.797 53.155 206.187 53.444C203.059 54.8538 201.506 54.436 198.581 55.9066C197.218 56.6092 196.115 57.7288 195.434 59.102C193.435 62.9399 194.398 67.3171 195.544 71.2391C195.584 71.3728 195.674 71.4858 195.796 71.5534C195.918 71.6211 196.061 71.6382 196.196 71.6012C196.33 71.5642 196.445 71.4759 196.514 71.3552C196.584 71.2346 196.604 71.0915 196.57 70.9564C195.648 67.5378 194.671 63.8413 196.008 60.393C196.514 59.0139 197.462 57.8406 198.704 57.056C199.84 56.4543 201.054 56.0135 202.312 55.7466C204.705 55.2122 207.468 54.6628 208.9 52.4371C211.684 48.1107 206.267 41.5114 209.596 36.6307C209.991 35.9677 210.56 35.4252 211.241 35.062C211.922 34.6988 212.689 34.5286 213.46 34.5699Z" fill="black"/>
<path d="M128.665 138.73C127.56 136.221 124.529 135.048 121.942 135.081C120.78 135.069 119.634 135.34 118.6 135.871C117.567 136.401 116.679 137.175 116.012 138.126C115.345 139.076 114.919 140.175 114.771 141.327C114.624 142.479 114.759 143.65 115.165 144.738C115.181 144.77 115.2 144.8 115.223 144.828C115.239 144.889 115.269 144.945 115.309 144.993C115.349 145.041 115.399 145.079 115.456 145.106C115.513 145.133 115.574 145.147 115.637 145.147C115.699 145.148 115.761 145.134 115.818 145.108C116.381 144.875 116.949 144.656 117.513 144.428C117.699 145.149 118.04 145.821 118.512 146.398C118.984 146.974 119.576 147.44 120.247 147.764C120.918 148.088 121.651 148.261 122.396 148.273C123.141 148.284 123.879 148.132 124.559 147.829C125.239 147.526 125.845 147.077 126.335 146.516C126.824 145.954 127.185 145.293 127.392 144.577C127.599 143.862 127.648 143.11 127.535 142.374C127.422 141.637 127.149 140.935 126.737 140.315C127.316 140.029 127.899 139.75 128.473 139.456C128.592 139.383 128.678 139.267 128.714 139.132C128.75 138.996 128.732 138.852 128.665 138.73ZM126.526 143.371C126.472 144.205 126.164 145.002 125.643 145.655C125.121 146.308 124.412 146.785 123.611 147.022C122.81 147.258 121.955 147.243 121.163 146.979C120.37 146.715 119.678 146.213 119.18 145.542C118.853 145.09 118.624 144.575 118.507 144.03C120.959 143.02 123.382 141.94 125.773 140.79C126.3 141.544 126.564 142.451 126.526 143.371ZM116.003 143.896C115.636 142.73 115.647 141.479 116.033 140.319C116.419 139.16 117.161 138.152 118.153 137.439C119.575 136.404 121.344 135.963 123.085 136.211C124.826 136.458 126.402 137.374 127.479 138.765C123.737 140.654 119.912 142.365 116.003 143.896Z" fill="black"/>
<path d="M235.767 168.02C234.5 168.741 224.614 174.674 224.614 174.674C224.497 174.748 224.415 174.864 224.383 174.998C224.35 175.131 224.371 175.272 224.44 175.391C224.51 175.51 224.623 175.597 224.755 175.634C224.888 175.672 225.029 175.656 225.15 175.591C226.417 174.872 236.301 168.939 236.301 168.939C236.421 168.863 236.506 168.744 236.536 168.606C236.567 168.468 236.542 168.324 236.468 168.205C236.396 168.09 236.285 168.007 236.155 167.973C236.024 167.938 235.884 167.955 235.767 168.02Z" fill="black"/>
<path d="M241.286 181.883C239.426 181.853 225.538 181.894 224.864 181.908C224.728 181.914 224.599 181.974 224.505 182.072C224.41 182.171 224.358 182.303 224.358 182.439C224.358 182.576 224.41 182.707 224.505 182.806C224.599 182.905 224.728 182.964 224.864 182.971C226.724 183.002 240.612 182.946 241.286 182.945C241.428 182.945 241.563 182.889 241.662 182.789C241.762 182.69 241.818 182.555 241.818 182.414C241.818 182.273 241.762 182.138 241.662 182.039C241.563 181.939 241.428 181.883 241.286 181.883Z" fill="black"/>
<path d="M236.301 194.989L225.151 189.261C224.543 188.95 224.005 189.866 224.614 190.179L235.767 195.908C236.373 196.219 236.91 195.3 236.301 194.989Z" fill="black"/>
<path d="M198.096 177.5C198.231 177.495 198.359 177.439 198.454 177.344C198.549 177.249 198.605 177.121 198.609 176.986V161.669C198.603 161.532 198.544 161.404 198.445 161.309C198.346 161.215 198.215 161.162 198.078 161.162C197.941 161.162 197.81 161.215 197.711 161.309C197.612 161.404 197.553 161.532 197.547 161.669V176.986C197.549 177.056 197.565 177.125 197.594 177.189C197.623 177.252 197.664 177.309 197.715 177.357C197.766 177.405 197.826 177.442 197.891 177.467C197.957 177.491 198.026 177.502 198.096 177.5Z" fill="black"/>
<path d="M128.174 203.484C130.014 204.29 132.015 204.665 134.023 204.58C134.705 204.549 134.709 203.486 134.023 203.517C132.202 203.607 130.385 203.281 128.709 202.565C128.587 202.498 128.443 202.48 128.308 202.516C128.173 202.551 128.056 202.637 127.983 202.756C127.947 202.816 127.924 202.883 127.915 202.952C127.905 203.022 127.909 203.092 127.927 203.16C127.945 203.227 127.976 203.291 128.018 203.346C128.06 203.402 128.113 203.449 128.174 203.484Z" fill="black"/>
<path d="M193.902 189.018C195.375 186.823 198.748 181.8 198.96 181.483C199.343 180.914 198.422 180.381 198.043 180.947C196.57 183.142 193.197 188.164 192.985 188.481C192.602 189.05 193.522 189.584 193.902 189.018Z" fill="black"/>
<path d="M145.582 214.221C145.576 214.085 145.517 213.956 145.418 213.862C145.319 213.767 145.188 213.715 145.051 213.715C144.914 213.715 144.783 213.767 144.684 213.862C144.585 213.956 144.526 214.085 144.52 214.221C144.421 219.852 144.496 219.602 144.564 220.131C144.696 220.738 145.058 221.271 145.573 221.619C146.089 221.966 146.718 222.102 147.331 221.996C147.944 221.891 148.492 221.553 148.862 221.053C149.232 220.554 149.394 219.93 149.316 219.314V214.221C149.316 214.08 149.26 213.945 149.16 213.845C149.06 213.745 148.925 213.689 148.784 213.689C148.643 213.689 148.507 213.745 148.408 213.845C148.308 213.945 148.252 214.08 148.252 214.221C148.22 216.025 148.235 217.831 148.252 219.636C148.271 219.99 148.149 220.337 147.913 220.601C147.677 220.865 147.345 221.024 146.991 221.043C146.638 221.062 146.291 220.94 146.027 220.704C145.763 220.468 145.604 220.136 145.585 219.783C145.519 218.949 145.585 218.087 145.585 217.252L145.582 214.221Z" fill="black"/>
<path d="M209.978 214.221C209.978 214.08 209.922 213.945 209.822 213.845C209.722 213.745 209.587 213.689 209.446 213.689C209.305 213.689 209.169 213.745 209.07 213.845C208.97 213.945 208.914 214.08 208.914 214.221C208.81 220.229 208.903 219.689 208.96 220.131C209.092 220.738 209.454 221.271 209.969 221.619C210.484 221.966 211.114 222.102 211.727 221.996C212.339 221.891 212.888 221.553 213.257 221.053C213.627 220.554 213.79 219.93 213.712 219.314V214.221C213.705 214.085 213.646 213.956 213.547 213.862C213.448 213.767 213.317 213.715 213.18 213.715C213.043 213.715 212.912 213.767 212.813 213.862C212.714 213.956 212.655 214.085 212.649 214.221C212.615 216.025 212.632 217.831 212.649 219.636C212.659 219.984 212.532 220.323 212.296 220.579C212.06 220.835 211.734 220.989 211.386 221.009C211.038 221.028 210.697 220.91 210.434 220.681C210.171 220.452 210.009 220.13 209.98 219.783C209.915 218.949 209.98 218.087 209.98 217.252L209.978 214.221Z" fill="black"/>
<path d="M47.8739 72.1556C47.8466 69.1214 45.1558 66.6786 42.4303 65.8205C41.3806 65.4702 40.2634 65.3703 39.1682 65.5286C38.0731 65.6868 37.03 66.0992 36.1225 66.7325C35.2148 67.3656 34.4679 68.2022 33.9415 69.1755C33.4148 70.1488 33.1231 71.2317 33.0895 72.338C33.0809 72.4374 33.105 72.5368 33.1585 72.6211C33.2117 72.7057 33.291 72.7704 33.3846 72.8053C33.5359 72.896 33.6326 72.8698 35.3686 72.9133C35.2552 73.6481 35.3034 74.3988 35.5097 75.1133C35.716 75.8278 36.0754 76.4886 36.563 77.05C37.0505 77.6116 37.6545 78.06 38.3331 78.3644C39.0115 78.6687 39.748 78.8216 40.4916 78.8126C41.2351 78.8033 41.9679 78.6324 42.6386 78.3116C43.3093 77.9906 43.902 77.5275 44.3757 76.9542C44.8494 76.3808 45.1925 75.7114 45.3812 74.992C45.5697 74.2728 45.5995 73.5212 45.4683 72.7893C46.0946 72.7571 46.7195 72.7174 47.3445 72.6913C47.4845 72.6872 47.6178 72.6293 47.7165 72.5294C47.815 72.4297 47.8714 72.2958 47.8739 72.1556ZM44.0968 75.4504C43.7287 76.2045 43.1366 76.8268 42.4016 77.2319C41.6667 77.6371 40.8244 77.8055 39.9899 77.7142C39.1555 77.6226 38.3698 77.2759 37.7399 76.721C37.1102 76.1664 36.667 75.4305 36.4708 74.6146C36.3416 74.0652 36.331 73.4943 36.4399 72.9406C39.0935 72.9852 41.7471 72.9517 44.4007 72.8401C44.5892 73.7198 44.4824 74.6372 44.0968 75.4504ZM34.2104 71.8208C34.3277 70.7296 34.7506 69.6936 35.4306 68.8321C36.1106 67.9707 37.02 67.3187 38.0544 66.9514C38.9346 66.6457 39.8689 66.5262 40.798 66.6008C41.7268 66.6752 42.63 66.9422 43.4504 67.3843C44.2709 67.8264 44.9903 68.4342 45.5632 69.169C46.1363 69.904 46.5502 70.7501 46.7791 71.6535C42.591 71.9055 38.4016 71.9612 34.2104 71.8208Z" fill="black"/>
<path d="M198.059 186.124C197.925 186.129 197.797 186.185 197.702 186.28C197.607 186.375 197.551 186.503 197.547 186.637V201.955C197.553 202.092 197.612 202.22 197.711 202.315C197.81 202.409 197.941 202.461 198.078 202.461C198.215 202.461 198.346 202.409 198.445 202.315C198.544 202.22 198.603 202.092 198.609 201.955V186.635C198.604 186.494 198.543 186.361 198.44 186.266C198.337 186.17 198.2 186.119 198.059 186.124Z" fill="black"/>
<path d="M38.306 136.639C38.4406 136.635 38.5685 136.58 38.6638 136.485C38.7592 136.389 38.8146 136.262 38.8194 136.127V111.451C38.8128 111.315 38.754 111.186 38.655 111.092C38.5561 110.997 38.4246 110.945 38.288 110.945C38.1514 110.945 38.0199 110.997 37.9212 111.092C37.8222 111.186 37.7634 111.315 37.7566 111.451V136.127C37.7591 136.197 37.7753 136.265 37.8042 136.329C37.833 136.392 37.8743 136.45 37.9252 136.497C37.9762 136.545 38.0362 136.582 38.1015 136.606C38.1667 136.63 38.2364 136.642 38.306 136.639Z" fill="black"/>
<path d="M16.8156 111.123C16.681 111.127 16.5533 111.183 16.4582 111.278C16.3631 111.373 16.3078 111.501 16.3035 111.636V136.312C16.3101 136.449 16.3689 136.577 16.4678 136.671C16.5668 136.766 16.6982 136.818 16.8348 136.818C16.9715 136.818 17.1029 136.766 17.2018 136.671C17.3007 136.577 17.3596 136.449 17.3661 136.312V111.636C17.3638 111.566 17.3476 111.497 17.3186 111.434C17.2897 111.37 17.2484 111.313 17.1973 111.265C17.1461 111.217 17.0861 111.18 17.0206 111.156C16.9551 111.132 16.8855 111.12 16.8156 111.123Z" fill="black"/>
<path d="M20.2481 136.313C21.2773 135.316 22.2899 134.304 23.2861 133.275C23.3817 133.175 23.4343 133.041 23.4327 132.902C23.4311 132.763 23.3752 132.631 23.2771 132.533C23.1793 132.434 23.0467 132.379 22.908 132.377C22.7692 132.375 22.6352 132.427 22.5346 132.523C21.5038 133.515 20.4911 134.528 19.4966 135.562C19.4047 135.663 19.3553 135.796 19.3586 135.932C19.3618 136.069 19.4176 136.199 19.5142 136.296C19.6109 136.392 19.741 136.448 19.8776 136.451C20.0142 136.455 20.1469 136.405 20.2481 136.313Z" fill="black"/>
<path d="M88.9761 97.9599L92.0129 95.1079C92.5089 94.6392 91.7649 93.8878 91.2615 94.3554L88.2235 97.2071C87.7237 97.6783 88.4765 98.43 88.9761 97.9599Z" fill="black"/>
<path d="M64.0248 100.555C64.0649 100.69 64.1553 100.803 64.277 100.872C64.3988 100.942 64.5424 100.961 64.6783 100.927C64.8143 100.89 64.9297 100.8 64.9996 100.678C65.0693 100.555 65.0875 100.41 65.0503 100.274C63.3962 96.1609 60.9169 92.4303 57.7652 89.3123C57.278 88.8312 56.5252 89.5826 57.0138 90.0637C60.0414 93.0467 62.4272 96.617 64.0248 100.555Z" fill="black"/>
<path d="M61.8823 197.585C58.1418 198.508 54.5789 200.04 51.336 202.12C50.762 202.492 51.2952 203.408 51.873 203.038C55.0393 201.008 58.5187 199.514 62.1711 198.616C62.8296 198.447 62.5481 197.422 61.8823 197.585Z" fill="black"/>
<path d="M23.7783 158.207C23.6437 158.211 23.5158 158.266 23.4205 158.361C23.3251 158.456 23.2696 158.584 23.2649 158.719V161.63C23.2714 161.767 23.3303 161.895 23.4292 161.99C23.5282 162.084 23.6597 162.137 23.7963 162.137C23.9329 162.137 24.0644 162.084 24.1631 161.99C24.2621 161.895 24.3209 161.767 24.3275 161.63V158.72C24.3252 158.65 24.3094 158.581 24.2806 158.518C24.2517 158.454 24.2104 158.397 24.1595 158.349C24.1085 158.302 24.0486 158.264 23.983 158.24C23.9176 158.215 23.8481 158.204 23.7783 158.207Z" fill="black"/>
<path d="M31.056 157.889C30.9211 157.893 30.7931 157.949 30.6977 158.044C30.6023 158.14 30.5469 158.268 30.5426 158.403V161.441C30.5491 161.577 30.608 161.706 30.707 161.8C30.8057 161.894 30.9371 161.947 31.0738 161.947C31.2104 161.947 31.3418 161.894 31.4408 161.8C31.5398 161.706 31.5986 161.577 31.6052 161.441V158.403C31.6 158.262 31.5393 158.129 31.4363 158.033C31.3335 157.936 31.1966 157.885 31.056 157.889Z" fill="black"/>
<path d="M93.6583 47.058C94.1394 47.5454 94.8922 46.7926 94.41 46.3054C93.8211 45.7118 93.2919 45.0618 92.8302 44.3647C92.4582 43.7968 91.5343 44.3275 91.9126 44.9017C92.4228 45.6757 93.0076 46.3978 93.6583 47.058Z" fill="black"/>
<path d="M101.168 47.0544C101.54 47.6223 102.465 47.0903 102.086 46.5174C101.466 45.5741 100.733 44.7097 99.9044 43.9431C99.4023 43.4794 98.6483 44.2297 99.1529 44.6946C99.9174 45.3969 100.594 46.1893 101.168 47.0544Z" fill="black"/>
<path d="M94.524 21.6429V34.5538C94.5306 34.6902 94.5894 34.8189 94.6884 34.9132C94.7874 35.0074 94.9186 35.0599 95.0552 35.0599C95.1918 35.0599 95.3233 35.0074 95.4223 34.9132C95.5212 34.8189 95.5801 34.6902 95.5866 34.5538V21.6429C95.5801 21.5064 95.5212 21.3777 95.4223 21.2834C95.3233 21.1892 95.1918 21.1366 95.0552 21.1366C94.9186 21.1366 94.7874 21.1892 94.6884 21.2834C94.5894 21.3777 94.5306 21.5064 94.524 21.6429Z" fill="black"/>
<path d="M87.0852 29.388C86.9929 29.4865 86.9418 29.6164 86.9418 29.7512C86.9418 29.8862 86.9929 30.0161 87.0852 30.1146L91.6421 34.6715C91.7433 34.7635 91.8758 34.8129 92.0125 34.8097C92.1491 34.8063 92.2792 34.7506 92.3759 34.6539C92.4726 34.5574 92.5283 34.4271 92.5317 34.2905C92.5349 34.1538 92.4855 34.0213 92.3935 33.9201L87.8366 29.3632C87.7336 29.2669 87.5965 29.2155 87.4556 29.22C87.3147 29.2247 87.1814 29.2852 87.0852 29.388Z" fill="black"/>
<path d="M102.02 29.6211L97.4639 34.1782C97.372 34.2792 97.3226 34.412 97.326 34.5486C97.3291 34.6852 97.3848 34.8153 97.4815 34.9118C97.5783 35.0085 97.7083 35.0642 97.845 35.0676C97.9816 35.0708 98.1142 35.0214 98.2154 34.9296L102.772 30.3725C102.868 30.272 102.92 30.1378 102.918 29.9992C102.917 29.8605 102.86 29.7279 102.762 29.6299C102.664 29.532 102.531 29.4761 102.393 29.4745C102.254 29.4727 102.12 29.5255 102.02 29.6211Z" fill="black"/>
</svg>
