<svg width="248" height="248" viewBox="0 0 248 248" fill="none" xmlns="http://www.w3.org/2000/svg">
<path d="M180.899 120.156L152.707 134.939C152.622 134.988 152.524 135.008 152.427 134.996C152.329 134.984 152.239 134.94 152.169 134.871C152.087 134.787 152.012 134.696 151.931 134.609C151.979 137.114 152.206 148.685 152.271 151.969C153.411 151.012 152.692 151.33 154.57 147.472C157.707 141.08 162.387 135.569 168.187 131.439C173.038 128.168 178.476 125.866 184.201 124.661C182.997 123.238 181.894 121.732 180.899 120.156Z" fill="#B0B04C"/>
<path d="M221.563 131.366C221.237 131.113 220.931 130.835 220.647 130.536C218.795 128.28 217.178 125.842 215.818 123.26C214.794 121.391 213.856 119.479 213.003 117.526C212.194 118.755 210.984 119.666 209.58 120.105C208.887 120.343 208.146 120.407 207.422 120.29C206.699 120.174 206.016 119.88 205.433 119.436C204.85 118.992 204.385 118.412 204.08 117.745C203.775 117.079 203.64 116.348 203.685 115.616C203.944 114.172 204.451 112.783 205.184 111.512C205.933 110.275 206.304 108.846 206.254 107.401C206.234 107.3 206.247 107.195 206.291 107.102C206.336 107.009 206.41 106.933 206.502 106.885L206.47 106.761C206.078 106.944 203.675 108.213 192.65 113.994C199.256 114.41 204.941 117.754 206.414 124.1C213.418 126.515 218.504 132.016 221.796 138.555C221.619 132.407 221.692 135.13 221.563 131.366Z" fill="#B0B04C"/>
<path d="M69.739 113.759C67.5367 111.677 64.9593 110.032 62.1439 108.912C60.1903 108.256 58.1096 108.073 56.0715 108.376C54.0334 108.679 52.096 109.46 50.4177 110.655C48.7397 111.851 47.3683 113.427 46.4157 115.254C45.4632 117.081 44.9568 119.107 44.9376 121.168C45.0447 124.15 45.8719 127.062 47.3482 129.655C51.6133 136.906 55.0177 144.63 57.4927 152.67C58.6779 156.403 59.6625 160.196 60.4426 164.035C59.3751 148.125 66.9465 132.473 82.6262 126.263C78.6093 121.817 74.3042 117.64 69.739 113.759ZM63.4384 125.69C62.0372 126.445 60.4291 126.724 58.8554 126.486C57.2817 126.248 55.828 125.506 54.7127 124.371C52.5079 122.139 51.7105 118.337 53.6636 115.682C54.5984 114.462 55.8792 113.551 57.3388 113.069C58.7983 112.586 60.3695 112.555 61.8476 112.977C64.5756 113.575 66.4927 115.017 67.0195 117.794C67.3295 119.319 67.1503 120.904 66.5073 122.322C65.8643 123.739 64.7905 124.918 63.4384 125.69Z" fill="black"/>
<path d="M142.749 86.0847C146.985 86.4344 151.217 86.8113 155.452 87.156C155.962 83.3702 156.596 79.6031 157.115 75.8199L142.749 86.0847Z" fill="#C0C195"/>
<path d="M230.144 76.6766C229.948 74.9882 229.585 73.3232 229.06 71.7067C227.628 67.364 224.897 63.5657 221.237 60.8256C217.182 57.9228 212.087 57.1392 207.273 56.3988C189.198 53.62 169.88 52.8325 166.923 52.4892C159.628 51.6396 150.795 53.4316 143.883 56.0764C134.782 59.5596 125.756 66.8508 124.727 76.6281C124.434 80.9363 125.008 85.2596 126.416 89.3419C127.256 89.9234 127.623 91.5839 128.044 92.5387C128.912 94.5103 132.143 101.975 134.567 107.959C134.722 108.288 134.345 108.555 134.02 108.505C131.698 107.968 129.274 107.331 126.783 106.68C126.077 109.365 125.671 112.119 125.57 114.893C125.389 122.225 131.19 131.91 138.456 131.032C141.195 130.563 143.717 129.243 145.664 127.26C148.199 130.505 151.171 133.854 152.169 134.87C152.239 134.939 152.33 134.982 152.427 134.995C152.524 135.007 152.622 134.987 152.707 134.938L180.899 120.156C179.954 118.681 179.129 117.134 178.431 115.528C178.416 115.429 178.44 115.328 178.497 115.246C178.554 115.164 178.641 115.106 178.739 115.085C183.307 114.115 187.983 113.749 192.646 113.996C195.198 112.656 206.362 106.811 206.466 106.763L206.498 106.887C207.324 106.38 232.056 102.327 232.182 102.306C232.257 102.286 232.335 102.286 232.412 102.306C232.487 102.326 232.556 102.365 232.611 102.42C232.759 102.603 232.895 102.792 233.039 102.978C233.098 102.867 233.122 102.741 233.104 102.616C232.295 96.653 231.995 90.0325 230.144 76.6766ZM144.735 126.035C142.57 123.139 141.759 122.041 140.403 120.07C140.23 120.679 140.014 121.274 139.754 121.851C139.519 122.371 138.762 121.922 138.988 121.403C139.307 120.667 139.565 119.905 139.759 119.127C137.702 116.065 136.352 113.671 134.324 109.99C134.048 109.488 134.814 109.042 135.091 109.542C138.102 115.175 141.586 120.543 145.507 125.586C145.849 126.042 145.08 126.486 144.736 126.035H144.735ZM156.24 87.7548C156.227 87.8508 156.178 87.9383 156.101 87.9982C156.025 88.0582 155.928 88.0862 155.832 88.0758C155.832 88.0758 146.335 87.2588 141.586 86.8744C141.532 86.8831 141.476 86.8811 141.423 86.8685C141.369 86.8556 141.319 86.8326 141.275 86.8002C141.23 86.7679 141.193 86.7271 141.164 86.6802C141.135 86.6333 141.117 86.5813 141.108 86.5272V86.4985C141.079 86.4009 141.087 86.2956 141.132 86.2038C141.177 86.1121 141.254 86.0402 141.349 86.0025C158.12 74.0192 157.417 74.4992 157.541 74.452C157.611 74.4133 157.691 74.3997 157.77 74.4135C157.848 74.4272 157.92 74.4676 157.972 74.5276C158.028 74.5636 158.073 74.6139 158.103 74.6732C158.133 74.7325 158.146 74.7986 158.142 74.8648C157.681 78.3432 156.302 87.5897 156.24 87.7548ZM163.953 109.199L159.819 109.272C159.701 109.272 159.588 109.226 159.505 109.142C159.421 109.059 159.375 108.946 159.375 108.828C159.375 108.711 159.421 108.598 159.505 108.515C159.588 108.431 159.701 108.385 159.819 108.385C161.196 108.349 162.574 108.336 163.953 108.311C164.056 108.332 164.148 108.387 164.215 108.468C164.281 108.549 164.318 108.65 164.318 108.755C164.318 108.86 164.282 108.961 164.216 109.042C164.149 109.123 164.057 109.179 163.954 109.199H163.953ZM168.863 114.407C167.749 114.054 166.801 113.306 166.197 112.304C165.594 111.303 165.376 110.116 165.585 108.965C165.867 107.844 166.525 106.854 167.449 106.159C168.372 105.465 169.506 105.107 170.661 105.147C171.751 105.126 172.819 105.452 173.711 106.079C174.603 106.706 175.272 107.6 175.621 108.633C176.603 112.433 172.578 115.723 168.864 114.401L168.863 114.407ZM205.898 106.358C205.872 106.268 200.421 86.1637 199.908 84.264C199.232 84.2789 178.467 84.8146 174.547 84.9981C173.976 85.0243 173.979 84.1301 174.547 84.1103C176.541 84.0174 198.002 83.3812 200.246 83.3663C200.343 83.3665 200.438 83.3983 200.515 83.4571C200.593 83.5162 200.648 83.5987 200.674 83.6925C200.873 84.4018 206.717 105.975 206.75 106.119C206.78 106.232 206.764 106.352 206.706 106.454C206.648 106.555 206.552 106.629 206.439 106.66C206.327 106.691 206.206 106.677 206.105 106.62C206.003 106.563 205.927 106.468 205.895 106.356L205.898 106.358ZM219.623 67.5464L214.927 64.1091C214.47 63.7756 214.913 63.0055 215.376 63.3428L220.071 66.7789C220.529 67.1049 220.086 67.8751 219.624 67.5378L219.623 67.5464Z" fill="#C0C195"/>
<path d="M47.4685 131.801C44.3449 126.411 42.5383 120.972 45.2564 115.33C45.5118 114.799 45.797 114.285 46.0834 113.771C46.1429 113.67 46.1596 113.549 46.1298 113.435C46.1 113.321 46.0263 113.223 45.9246 113.164C45.823 113.104 45.7019 113.088 45.588 113.117C45.4742 113.147 45.3766 113.221 45.317 113.322C39.861 122.113 45.549 129.848 48.4542 135.429C52.6702 143.518 56.0604 157.531 61.0738 168.909C60.8556 167.752 60.686 166.589 60.5654 165.42C55.056 151.736 53.5321 142.264 47.4685 131.801Z" fill="black"/>
<path d="M134.567 107.959C132.335 102.635 129.523 95.8966 128.044 92.5387C127.74 91.8493 127.554 91.0854 127.217 90.4059C127.512 91.0259 127.68 91.7203 127.961 92.3464C128.194 92.8697 127.42 93.3037 127.194 92.7941C126.583 91.4177 126.603 90.0661 125.027 89.6159C123.866 89.3508 122.652 89.434 121.539 89.8553C121.157 90.0193 120.832 90.2932 120.607 90.6424C120.381 90.9916 120.265 91.4002 120.273 91.8157C120.115 94.3825 121.5 97.1278 121.86 99.0821C121.945 99.5458 121.283 99.9043 121.049 99.4243C119.853 96.9741 116.926 91.8801 114.913 90.3599C112.4 88.4616 110.015 89.7597 109.913 92.6825C109.857 94.2945 110.461 95.4825 111.485 99.3785C111.499 99.4351 111.501 99.4937 111.492 99.5512C111.483 99.609 111.463 99.664 111.433 99.7136C111.402 99.7634 111.362 99.8065 111.315 99.8403C111.268 99.8743 111.214 99.8987 111.157 99.9117C111.054 99.9365 110.945 99.923 110.85 99.8739C110.755 99.8247 110.682 99.7429 110.643 99.6439C110.962 100.768 111.587 101.781 112.45 102.569C113.312 103.358 114.377 103.89 115.525 104.108C125.427 106.009 126.232 106.698 134.023 108.5C134.334 108.553 134.715 108.31 134.567 107.959Z" fill="#FFBABA"/>
<path d="M165.586 108.959C165.602 108.87 165.65 108.79 165.72 108.733C165.79 108.675 165.877 108.645 165.968 108.646C166.092 108.608 174.581 108.304 175.191 108.3C175.288 108.301 175.382 108.333 175.46 108.392C175.537 108.45 175.593 108.533 175.619 108.626C174.468 104.376 167.112 103.49 165.586 108.959Z" fill="black"/>
<path d="M96.8156 139.406C99.4022 138.705 101.997 138.042 104.579 137.32C104.926 134.947 105.272 132.574 105.618 130.203C102.729 133.343 100.384 135.857 96.8156 139.406Z" fill="#E6DEFF"/>
<path d="M145.239 145.644C128.375 130.689 114.436 119.808 92.6157 123.553C86.9777 124.375 81.5589 126.307 76.6729 129.238C76.775 129.18 76.8958 129.164 77.0095 129.194C77.1231 129.224 77.2203 129.297 77.2805 129.398C77.9701 130.673 78.591 131.985 79.1405 133.326C79.1418 133.366 79.1578 133.404 79.1851 133.433C79.3499 133.852 79.4108 134.304 79.3625 134.752C79.3145 135.2 79.1587 135.629 78.9089 136.004C78.6589 136.378 78.3221 136.687 77.9273 136.903C77.5323 137.119 77.0909 137.237 76.6406 137.246C74.7646 137.238 71.1846 136.731 69.6966 136.544C69.1188 136.509 68.9416 136.021 69.2193 135.728C65.528 140.332 62.8863 145.685 61.4788 151.416C60.0711 157.146 59.9317 163.114 61.07 168.904C63.7049 182.697 73.0981 197.065 83.6094 205.763C83.694 205.844 83.8067 205.89 83.9239 205.89C84.0409 205.89 84.1537 205.844 84.2382 205.763C103.059 187.212 120.808 167.538 145.235 146.273C145.318 146.19 145.365 146.077 145.365 145.959C145.366 145.842 145.321 145.729 145.239 145.644ZM107.791 149.998C107.73 150.428 106.745 157.338 106.314 160.361C106.295 160.435 106.256 160.503 106.201 160.558C106.147 160.613 106.078 160.651 106.004 160.671C93.4079 163.918 93.7937 163.818 93.6697 163.816C93.5824 163.843 93.4884 163.837 93.4054 163.799C93.3224 163.761 93.2562 163.694 93.2194 163.611C90.9229 159.147 81.3154 140.317 80.559 138.891C80.5137 138.806 80.4968 138.709 80.5108 138.614C80.525 138.518 80.5694 138.43 80.6375 138.362C80.7056 138.294 80.7937 138.249 80.8891 138.235C80.9845 138.221 81.0819 138.238 81.1666 138.284L107.587 149.497C107.669 149.548 107.733 149.625 107.769 149.715C107.804 149.805 107.81 149.904 107.786 149.998H107.791ZM94.9543 140.065C95.2505 139.525 95.2693 140.124 105.881 128.612C105.901 128.566 105.931 128.527 105.969 128.495C106.007 128.463 106.051 128.441 106.099 128.429L106.134 128.419C106.204 128.404 106.277 128.405 106.346 128.423C106.416 128.441 106.48 128.475 106.534 128.522C106.588 128.569 106.631 128.628 106.658 128.694C106.685 128.761 106.696 128.833 106.691 128.904C106.706 129.028 106.73 128.715 105.406 137.791C105.4 137.878 105.362 137.959 105.298 138.018C105.235 138.077 105.151 138.11 105.064 138.11C104.94 138.146 95.5159 140.699 95.3833 140.695C95.3067 140.699 95.2302 140.684 95.1615 140.65C95.0927 140.616 95.0337 140.565 94.9901 140.502C94.9466 140.439 94.92 140.365 94.9128 140.289C94.9058 140.213 94.9182 140.136 94.9493 140.065H94.9543ZM73.6076 160.548L70.8126 157.572C70.4233 157.155 71.0496 156.527 71.4414 156.944L74.2251 159.92C74.7211 159.412 78.2253 155.745 79.5163 154.449C79.5997 154.367 79.7124 154.32 79.8299 154.32C79.9476 154.32 80.0603 154.367 80.1437 154.449C80.4797 154.787 85.8378 160.294 88.1765 162.713C88.2567 162.798 88.3014 162.91 88.3014 163.027C88.3014 163.143 88.2567 163.256 88.1765 163.34C87.735 163.813 78.8095 173.645 77.6191 174.953C77.5663 175.02 77.4924 175.066 77.4096 175.085C77.3269 175.103 77.2401 175.093 77.1639 175.056C76.8564 174.955 68.7109 167.182 68.2483 166.728C68.1658 166.644 68.1196 166.532 68.1196 166.414C68.1196 166.297 68.1658 166.184 68.2483 166.101L73.6076 160.548ZM93.6523 195.536L87.8825 190.49C87.4509 190.118 88.0809 189.488 88.5099 189.863L94.2797 194.908C94.7113 195.285 94.0813 195.91 93.6523 195.536ZM135.706 154.223L130.727 149.622C130.307 149.233 130.935 148.607 131.354 148.993L136.333 153.594C136.755 153.983 136.125 154.61 135.706 154.223Z" fill="#E6DEFF"/>
<path d="M79.19 133.433C79.1627 133.404 79.1467 133.366 79.1454 133.326C78.5962 131.984 77.9753 130.673 77.2854 129.398C77.2259 129.296 77.1287 129.222 77.0146 129.192C76.9007 129.162 76.7797 129.179 76.6778 129.238C73.8537 130.976 71.3363 133.169 69.2279 135.728C69.1451 135.815 69.1005 135.932 69.1034 136.052C69.1063 136.172 69.1571 136.286 69.2441 136.369C69.4648 136.579 69.8553 136.544 70.1504 136.589C72.304 136.923 74.4737 137.143 76.6505 137.246C77.1012 137.238 77.5431 137.121 77.9385 136.905C78.3337 136.689 78.671 136.38 78.9206 136.005C79.1704 135.63 79.3255 135.2 79.3724 134.752C79.4193 134.304 79.3569 133.851 79.19 133.433Z" fill="#FFC580"/>
<path d="M67.0256 117.8C66.459 114.978 64.558 113.577 61.8537 112.984C60.3756 112.561 58.8046 112.593 57.3448 113.075C55.8852 113.557 54.6046 114.468 53.6697 115.688C51.7166 118.343 52.5399 122.118 54.7187 124.377C56.0539 125.762 57.8848 126.561 59.8086 126.596C61.7326 126.632 63.5917 125.902 64.9771 124.567C65.8602 123.702 66.5109 122.629 66.8691 121.446C67.2272 120.263 67.281 119.009 67.0256 117.8ZM59.3662 121.356C58.843 121.128 59.2954 120.364 59.8151 120.59C60.703 120.977 62.0706 121.53 62.8928 120.714C63.5922 120.025 63.431 118.792 63.2808 117.92C63.1854 117.361 64.041 117.122 64.1378 117.685C64.3486 118.911 64.48 120.491 63.4483 121.405C62.2703 122.46 60.636 121.902 59.3662 121.35V121.356Z" fill="#FFC580"/>
<path d="M88.1764 162.702C85.8637 160.258 80.4796 154.775 80.1437 154.438C80.0603 154.355 79.9475 154.309 79.8298 154.309C79.7124 154.309 79.5996 154.355 79.5162 154.438C78.2253 155.734 74.7174 159.398 74.225 159.909C74.4273 160.126 76.2611 162.082 76.9742 162.844C77.3647 163.261 76.7386 163.889 76.3468 163.472L73.6075 160.548L68.2482 166.089C68.1657 166.173 68.1195 166.286 68.1195 166.403C68.1195 166.52 68.1657 166.633 68.2482 166.717C69.3221 167.772 76.9282 174.966 77.1638 175.044C77.24 175.082 77.3268 175.092 77.4096 175.073C77.4923 175.055 77.5663 175.008 77.619 174.942C78.8094 173.633 87.7374 163.803 88.1764 163.329C88.2555 163.244 88.2995 163.132 88.2995 163.015C88.2995 162.899 88.2555 162.787 88.1764 162.702Z" fill="white"/>
<path d="M76.3468 163.472C76.7386 163.89 77.365 163.261 76.9742 162.844C76.2614 162.082 71.672 157.185 71.4414 156.938C71.0495 156.52 70.4234 157.149 70.8128 157.566L76.3468 163.472Z" fill="black"/>
<path d="M175.619 108.624C175.593 108.53 175.537 108.447 175.46 108.388C175.383 108.33 175.288 108.298 175.191 108.298C172.413 108.311 166.097 108.604 165.968 108.644C165.878 108.643 165.79 108.674 165.72 108.731C165.65 108.788 165.603 108.868 165.586 108.956C165.397 110.105 165.624 111.283 166.224 112.28C166.825 113.278 167.761 114.028 168.864 114.399C172.63 115.742 176.617 112.359 175.619 108.624Z" fill="#FBB0A4"/>
<path d="M216.102 130.418C213.431 127.556 210.103 125.388 206.405 124.101C207.158 127.352 206.596 131.485 204.033 133.552C203.057 134.314 201.877 134.774 200.642 134.872C197.95 134.937 195.313 134.103 193.147 132.503C189.786 130.354 186.769 127.708 184.201 124.655C173.374 127.259 165.084 131.867 158.247 141.334C156.025 144.418 154.224 147.785 152.892 151.346C152.389 151.941 137.616 166.123 126.554 177.666C126.43 177.79 123.869 180.457 123.789 180.581C123.873 180.506 123.983 180.466 124.096 180.469C124.208 180.472 124.316 180.518 124.395 180.597C124.519 180.721 143.227 199.417 143.841 200.042C143.92 200.123 143.966 200.232 143.968 200.345C143.97 200.458 143.929 200.569 143.854 200.653L143.881 200.636C147.27 197.754 150.639 194.846 153.988 191.911H226.888C227.006 191.909 227.118 191.862 227.202 191.779C227.283 191.696 227.33 191.584 227.333 191.467C227.531 163.861 228.803 143.938 216.102 130.418ZM153.234 186.134L149.762 188.566C149.294 188.893 148.85 188.124 149.314 187.798L152.786 185.368C153.253 185.04 153.696 185.809 153.23 186.134H153.234ZM183.331 166.081C181.562 167.638 159.151 187.351 155.705 190.385C155.279 190.757 154.649 190.137 155.078 189.757L182.704 165.453C183.127 165.078 183.757 165.703 183.328 166.081H183.331Z" fill="#FFE660"/>
<path d="M143.84 200.042C143.2 199.391 124.405 180.608 124.394 180.597C124.314 180.517 124.207 180.471 124.094 180.468C123.981 180.465 123.872 180.506 123.788 180.581C123.497 180.787 111.467 193.886 108.79 197.454C108.237 198.055 107.821 198.769 107.572 199.547C107.322 200.325 107.244 201.148 107.344 201.959C108.068 205.032 112.643 205.819 116.12 202.92C115.865 203.413 115.718 203.955 115.688 204.51C115.657 205.065 115.745 205.619 115.944 206.138C116.143 206.656 116.449 207.127 116.843 207.519C117.236 207.911 117.708 208.215 118.228 208.412C119.093 208.635 119.995 208.675 120.877 208.527C121.758 208.38 122.598 208.05 123.344 207.557C126.15 205.722 125.896 205.174 125.428 206.475C125.256 206.881 125.171 207.318 125.176 207.758C125.182 208.199 125.279 208.634 125.461 209.035C125.644 209.436 125.907 209.795 126.235 210.09C126.563 210.384 126.949 210.607 127.368 210.744C128.944 211.23 130.764 210.387 132.138 209.669C133.771 208.803 135.316 207.782 136.753 206.62C138.338 205.353 143.761 200.783 143.852 200.653C143.928 200.569 143.969 200.458 143.967 200.345C143.964 200.231 143.919 200.123 143.84 200.042ZM123.969 194.653L126.222 192.453C126.631 192.054 127.26 192.681 126.851 193.08L124.596 195.281C124.188 195.681 123.56 195.052 123.97 194.653H123.969ZM132.773 199.252L131.057 201.23C130.685 201.662 130.056 201.031 130.429 200.602L132.145 198.624C132.521 198.192 133.147 198.823 132.774 199.252H132.773Z" fill="#FBB0A4"/>
<path d="M195.466 114.357C189.892 113.598 184.226 113.845 178.739 115.084C178.508 115.136 178.337 115.376 178.473 115.737C181.693 122.592 186.778 128.403 193.147 132.503C195.313 134.103 197.95 134.937 200.642 134.872C201.881 134.783 203.064 134.323 204.037 133.551C205.011 132.779 205.729 131.732 206.098 130.546C208.341 124.105 204.6 116.101 195.466 114.357Z" fill="black"/>
<path d="M118.993 78.549C118.956 77.7683 118.868 76.9907 118.73 76.2214C118.573 75.606 118.294 75.0288 117.908 74.5242C117.522 74.0199 117.038 73.5987 116.486 73.2865C115.933 72.9745 115.322 72.7774 114.691 72.7075C114.06 72.6378 113.421 72.6965 112.813 72.8804C112.205 73.0642 111.641 73.3694 111.154 73.7773C110.668 74.1854 110.269 74.6875 109.981 75.254C109.694 75.8204 109.525 76.439 109.483 77.0728C109.442 77.7063 109.529 78.3418 109.74 78.9409C110.251 81.0768 111.069 83.1276 112.168 85.0293C112.477 85.5821 112.922 86.0477 113.46 86.3825C113.997 86.7173 114.611 86.9105 115.244 86.9443C115.876 86.9779 116.507 86.851 117.078 86.575C117.648 86.299 118.139 85.8833 118.505 85.3666C119.504 83.8871 119.269 83.2536 118.993 78.549Z" fill="#FFBABA"/>
<path d="M125.265 50.4195L125.24 50.4121C125.294 50.4486 125.339 50.4964 125.373 50.5521C125.407 50.608 125.428 50.6707 125.434 50.7354C125.441 50.8001 125.433 50.8657 125.412 50.9273C125.391 50.9888 125.356 51.045 125.311 51.0916C121.565 54.5352 122.352 53.7551 119.136 56.8887C119.088 56.9352 119.03 56.9706 118.967 56.992C118.903 57.0132 118.836 57.0202 118.77 57.0121C118.703 57.0039 118.639 56.9812 118.583 56.9451C118.527 56.9093 118.479 56.8612 118.444 56.8044C118.449 56.8234 118.456 56.8421 118.465 56.8601C119.037 57.9831 120.002 58.857 121.176 59.3158C122.351 59.7743 123.652 59.7863 124.835 59.3489C125.718 59.0082 126.484 58.418 127.038 57.6503C127.593 56.8827 127.912 55.9702 127.958 55.0245C128.003 54.0784 127.773 53.1397 127.295 52.3222C126.817 51.5047 126.112 50.8436 125.265 50.4195Z" fill="#FFBABA"/>
<path d="M240.443 114.02C236.657 108.381 234.96 105.326 232.613 102.419C232.556 102.364 232.487 102.325 232.412 102.305C232.335 102.285 232.257 102.285 232.182 102.305C223.598 103.717 215.076 105.099 206.564 106.855C206.455 106.893 206.364 106.969 206.306 107.07C206.249 107.17 206.231 107.288 206.254 107.401C206.304 108.847 205.933 110.275 205.184 111.512C204.451 112.783 203.944 114.172 203.685 115.616C203.64 116.348 203.776 117.079 204.08 117.745C204.385 118.412 204.85 118.992 205.433 119.436C206.016 119.88 206.699 120.174 207.422 120.29C208.146 120.407 208.887 120.343 209.58 120.105C210.984 119.666 212.194 118.755 213.004 117.526C213.852 119.48 214.79 121.391 215.818 123.26C217.18 125.841 218.798 128.278 220.647 130.536C221.763 131.705 223.271 132.695 224.792 132.148C227.136 131.31 227.094 128.26 226.701 126.258C226.422 124.836 226.183 124.125 225.147 120.152L228.895 125.98C229.305 126.743 229.837 127.435 230.466 128.029C230.791 128.265 231.17 128.419 231.567 128.478C231.963 128.537 232.369 128.499 232.75 128.368C233.129 128.237 233.472 128.016 233.749 127.724C234.024 127.433 234.227 127.078 234.337 126.692C234.628 125.784 234.723 124.824 234.615 123.876C234.466 121.101 233.851 118.371 232.793 115.801C233.968 116.758 234.734 118.224 235.893 119.189C237.257 120.321 239.539 121.159 240.939 119.607C242.443 117.945 241.523 115.626 240.443 114.02ZM230.827 109.596L232.042 112.076C232.29 112.588 231.526 113.037 231.276 112.524L230.058 110.044C229.808 109.533 230.575 109.083 230.827 109.596ZM222.069 113.212L223.639 115.537C223.96 116.013 223.19 116.456 222.873 115.986L221.303 113.66C220.982 113.187 221.752 112.743 222.069 113.212Z" fill="#FFBABA"/>
<path d="M125.24 50.412L125.22 50.3935C124.342 49.916 123.344 49.7014 122.347 49.7756C121.35 49.8497 120.395 50.2093 119.597 50.8113C118.748 51.528 118.171 52.5137 117.961 53.604C117.752 54.6945 117.922 55.8241 118.444 56.8043C118.507 56.9047 118.609 56.9757 118.725 57.0021C118.841 57.0282 118.963 57.0075 119.064 56.9444C119.132 56.9011 119.868 56.1706 119.925 56.1149C121.671 54.39 123.504 52.752 125.311 51.0916C125.356 51.0449 125.39 50.9887 125.412 50.9272C125.433 50.8656 125.44 50.8003 125.433 50.7353C125.427 50.6706 125.406 50.6082 125.373 50.5523C125.339 50.4966 125.294 50.4486 125.24 50.412Z" fill="black"/>
<path d="M116.213 59.6131L113.293 61.8835C112.842 62.2332 113.475 62.857 113.921 62.5109L116.84 60.2406C117.29 59.892 116.659 59.272 116.213 59.6131Z" fill="black"/>
<path d="M159.82 109.272C161.198 109.248 162.576 109.235 163.954 109.199C164.072 109.199 164.185 109.152 164.268 109.069C164.351 108.986 164.398 108.873 164.398 108.755C164.398 108.638 164.351 108.525 164.268 108.442C164.185 108.358 164.072 108.312 163.954 108.312C162.575 108.336 161.198 108.349 159.82 108.385C159.702 108.385 159.589 108.431 159.506 108.515C159.423 108.598 159.376 108.711 159.376 108.828C159.376 108.946 159.423 109.059 159.506 109.143C159.589 109.226 159.702 109.272 159.82 109.272Z" fill="black"/>
<path d="M205.9 106.352C205.932 106.465 206.008 106.559 206.109 106.616C206.211 106.673 206.332 106.688 206.444 106.656C206.557 106.625 206.653 106.551 206.711 106.45C206.769 106.348 206.785 106.229 206.755 106.116C206.719 105.972 200.874 84.3982 200.679 83.6889C200.653 83.5951 200.598 83.5124 200.52 83.4535C200.443 83.3947 200.348 83.3627 200.251 83.3627C198.007 83.3739 176.546 84.0113 174.552 84.1067C173.984 84.1328 173.981 85.0207 174.552 84.9945C178.472 84.811 199.237 84.2753 199.913 84.2604C200.422 86.1576 205.873 106.268 205.9 106.352Z" fill="#B0B04C"/>
<path d="M78.8306 87.6595C80.3502 89.0055 82.1681 89.9713 84.1342 90.4772C86.1004 90.9834 88.1586 91.0149 90.1395 90.5697C98.0443 88.2905 95.9675 77.3711 90.4431 71.3262C85.8973 66.3525 79.1407 64.3822 75.3871 67.0097C67.3855 72.6108 74.7051 84.2977 78.8306 87.6595ZM82.6609 69.8382C85.0521 71.1697 87.2135 72.8776 89.0618 74.8961C89.45 75.3152 88.8226 75.9451 88.4343 75.5235C86.6075 73.5923 84.5119 71.9343 82.212 70.6007C82.1617 70.5714 82.1178 70.5322 82.0824 70.4857C82.0472 70.4393 82.0215 70.3863 82.0069 70.3299C81.9922 70.2733 81.9886 70.2147 81.9965 70.1568C82.0046 70.0991 82.0238 70.0434 82.0533 69.9931C82.0828 69.9428 82.1218 69.8989 82.1683 69.8637C82.2149 69.8285 82.2677 69.8026 82.3243 69.7879C82.3807 69.7733 82.4395 69.7697 82.4972 69.7778C82.5549 69.7857 82.6106 69.8051 82.6609 69.8344V69.8382Z" fill="white"/>
<path d="M145.503 125.586C141.587 120.539 138.103 115.172 135.087 109.542C134.81 109.046 134.044 109.488 134.321 109.99C136.381 113.725 137.748 116.138 139.755 119.127C139.562 119.906 139.304 120.667 138.984 121.403C138.753 121.922 139.515 122.371 139.75 121.851C140.01 121.274 140.227 120.679 140.399 120.07C141.752 122.031 142.507 123.054 144.732 126.035C145.08 126.486 145.849 126.042 145.503 125.586Z" fill="#B0B04C"/>
<path d="M88.5101 189.863C88.0811 189.491 87.4512 190.111 87.8827 190.49L93.6523 195.536C94.0813 195.908 94.7112 195.288 94.2797 194.908L88.5101 189.863Z" fill="#C4AFF9"/>
<path d="M131.354 148.993C130.935 148.607 130.307 149.233 130.727 149.622L135.706 154.222C136.125 154.609 136.755 153.983 136.333 153.594L131.354 148.993Z" fill="#C4AFF9"/>
<path d="M106.686 128.904C106.723 128.434 106.038 128.231 105.865 128.624C101.868 132.964 99.2744 135.797 95.062 139.914C94.9939 139.976 94.9463 140.057 94.926 140.147C94.9055 140.236 94.9129 140.33 94.9474 140.415C94.9819 140.5 95.0417 140.573 95.1188 140.623C95.1959 140.673 95.2863 140.699 95.3783 140.695C95.5023 140.695 104.058 138.378 105.043 138.109C105.087 138.112 105.132 138.107 105.174 138.093C105.217 138.078 105.256 138.056 105.289 138.026C105.323 137.997 105.35 137.961 105.369 137.92C105.388 137.88 105.399 137.836 105.401 137.791C106.696 128.915 106.701 129.029 106.686 128.904ZM104.578 137.32C100.258 138.523 95.6423 139.722 96.8142 139.406C100.255 135.982 102.631 133.454 105.554 130.271C105.38 131.457 105.085 133.569 104.579 137.32H104.578Z" fill="#C4AFF9"/>
<path d="M63.2808 117.924C63.4309 118.792 63.5921 120.032 62.8928 120.718C62.0706 121.527 60.7029 120.974 59.8151 120.594C59.2954 120.367 58.8429 121.132 59.3662 121.36C60.6346 121.912 62.2703 122.47 63.4483 121.42C64.48 120.501 64.3485 118.921 64.1377 117.7C64.041 117.122 63.1854 117.361 63.2808 117.924Z" fill="black"/>
<path d="M157.537 74.4507C157.413 74.4992 158.157 73.9922 141.345 86.0014C141.255 86.0461 141.183 86.1191 141.138 86.2091C141.094 86.299 141.08 86.4012 141.099 86.4995C141.119 86.598 141.169 86.6875 141.244 86.7542C141.319 86.8212 141.414 86.8616 141.514 86.8694C141.514 86.8694 151.084 87.6939 155.833 88.0772C155.93 88.0871 156.026 88.0589 156.102 87.9987C156.178 87.9383 156.228 87.8509 156.24 87.7548C156.328 87.5154 157.762 77.7108 158.137 74.8588C158.135 74.788 158.116 74.719 158.082 74.657C158.048 74.595 157.999 74.5418 157.941 74.5021C157.882 74.4625 157.815 74.437 157.745 74.4282C157.675 74.4192 157.604 74.4271 157.537 74.4507ZM155.453 87.156C151.217 86.8113 146.985 86.4341 142.749 86.0844L157.115 75.8197C156.596 79.608 155.962 83.3702 155.453 87.156Z" fill="#B0B04C"/>
<path d="M215.377 63.3342C214.914 62.997 214.472 63.7669 214.928 64.1006L219.624 67.5378C220.086 67.8751 220.529 67.105 220.073 66.7702L215.377 63.3342Z" fill="#B0B04C"/>
<path d="M222.069 113.212C221.752 112.741 220.982 113.185 221.303 113.66L222.873 115.986C223.19 116.456 223.96 116.013 223.639 115.537L222.069 113.212Z" fill="#FBB0A4"/>
<path d="M230.827 109.596C230.579 109.083 229.808 109.533 230.058 110.044L231.276 112.524C231.524 113.037 232.293 112.588 232.042 112.076C231.637 111.25 231.231 110.424 230.827 109.596Z" fill="#FBB0A4"/>
<path d="M182.7 165.453L155.074 189.757C154.645 190.136 155.275 190.762 155.702 190.385C159.152 187.352 181.558 167.639 183.328 166.081C183.757 165.703 183.127 165.078 182.7 165.453Z" fill="#FBB0A4"/>
<path d="M152.783 185.368L149.311 187.798C148.846 188.124 149.29 188.893 149.758 188.566L153.23 186.134C153.696 185.809 153.253 185.04 152.783 185.368Z" fill="#FBB0A4"/>
<path d="M132.147 198.624L130.431 200.602C130.059 201.031 130.679 201.662 131.058 201.23L132.774 199.252C133.147 198.823 132.521 198.192 132.147 198.624Z" fill="#FBB0A4"/>
<path d="M126.223 192.448L123.97 194.648C123.56 195.048 124.188 195.676 124.598 195.277L126.852 193.075C127.261 192.681 126.633 192.054 126.223 192.448Z" fill="#FBB0A4"/>
<path d="M135.667 137.478L88.8474 97.5261C91.4669 96.9796 93.9244 95.8336 96.027 94.1781C97.0884 94.4793 109.459 97.9414 110.194 98.1461C110.144 97.9625 109.946 97.2954 109.906 97.1441C109.312 95.6025 109.023 93.96 109.057 92.3081C109.283 89.7165 111.21 87.9905 113.799 88.7902C116.019 89.4771 117.481 91.7501 118.849 93.8036C118.894 93.8705 119.525 94.8526 119.567 94.9196C119.963 95.5531 119.915 95.5396 119.876 95.3833L119.744 94.8601C119.328 93.563 119.258 92.1799 119.54 90.8474C120.138 88.8769 122.501 88.4071 124.548 88.6154C125.225 88.6781 125.872 88.927 126.416 89.3346C125.996 87.942 125.648 86.5893 125.376 85.3493L119.193 83.5289C119.158 84.1956 118.917 84.8352 118.503 85.3592C118.138 85.8773 117.646 86.2941 117.076 86.5708C116.506 86.8474 115.874 86.9748 115.241 86.9412C114.608 86.9074 113.994 86.7137 113.456 86.378C112.918 86.0423 112.474 85.5758 112.165 85.0219C111.379 83.7409 110.765 82.3622 110.338 80.9211L103.676 78.9682C103.815 68.8633 95.4056 59.6639 84.4391 58.9521C80.4501 58.6708 76.4627 59.5196 72.9343 61.401C70.1642 62.9267 67.8848 65.2087 66.3624 67.9805C63.5951 72.9925 62.8838 78.8839 64.3783 84.4105C49.9436 97.0524 47.3953 99.2472 47.1115 99.5721L34.1683 98.1943C34.0714 98.1959 33.9776 98.2284 33.9007 98.287C33.8236 98.3456 33.7675 98.4274 33.7404 98.5205C33.1452 100.465 28.2907 115.099 27.8468 116.435C27.4103 116.77 24.2434 119.551 6.40215 135.195C6.31932 135.278 6.27283 135.391 6.27283 135.508C6.27283 135.626 6.31932 135.739 6.40215 135.822L18.2875 146.588L7.79715 170.453C7.76448 170.512 7.74541 170.577 7.74133 170.645C7.73724 170.712 7.74827 170.78 7.77359 170.842C7.79891 170.905 7.83786 170.961 7.88765 171.006C7.93743 171.052 7.99674 171.086 8.06127 171.105C8.51759 171.229 59.4445 184.238 59.4729 184.249C59.5288 184.264 59.5874 184.268 59.6447 184.259C59.702 184.251 59.7572 184.231 59.8066 184.201L79.7706 202.282C77.7674 200.304 75.8894 198.202 74.1471 195.991C22.0075 148.76 8.41591 136.471 7.40407 135.501L64.6922 85.3121C67.8727 93.4749 78.29 99.1381 87.7041 97.733L126.563 130.875C129.722 132.899 132.761 135.104 135.667 137.478ZM58.5999 183.103C51.201 181.202 9.28887 170.465 8.80403 170.355L18.972 147.212L58.5999 183.103ZM29.1711 115.249C30.5525 111.05 34.3097 99.6253 34.4783 99.1144L46.1666 100.354C40.5976 105.231 29.1711 115.249 29.1711 115.249ZM78.8307 87.6593C74.7051 84.2977 67.3855 72.6106 75.3871 67.0097C79.1407 64.3833 85.8973 66.3525 90.4431 71.326C95.976 77.3761 98.0419 88.2881 90.1395 90.5697C88.1586 91.0152 86.1002 90.9836 84.1342 90.4777C82.1681 89.9718 80.3502 89.0057 78.8307 87.6593Z" fill="#6596E1"/>
<path d="M107.582 149.497L81.1616 138.284C81.0768 138.238 80.9794 138.221 80.884 138.235C80.7887 138.249 80.7005 138.294 80.6324 138.362C80.5643 138.43 80.5199 138.518 80.5057 138.614C80.4915 138.709 80.5087 138.806 80.554 138.891C80.983 139.705 93.2083 163.596 93.2144 163.611C93.2511 163.694 93.3174 163.761 93.4004 163.799C93.4833 163.837 93.5774 163.843 93.6646 163.816C93.7886 163.816 93.4166 163.915 105.999 160.671C106.073 160.651 106.142 160.613 106.196 160.558C106.251 160.503 106.29 160.435 106.309 160.361C106.74 157.338 107.725 150.428 107.786 149.998C107.81 149.904 107.803 149.804 107.767 149.714C107.73 149.624 107.666 149.548 107.582 149.497Z" fill="#6596E1"/>
<path d="M82.212 70.6043C84.5119 71.9379 86.6075 73.5958 88.4343 75.5271C88.8226 75.9487 89.45 75.3188 89.0618 74.8996C87.2135 72.88 85.0523 71.1711 82.6609 69.838C82.5594 69.7784 82.4382 69.7618 82.3243 69.7915C82.2104 69.8213 82.1128 69.8952 82.0533 69.9967C81.9938 70.0984 81.9771 70.2194 82.0069 70.3335C82.0366 70.4474 82.1106 70.5448 82.212 70.6043Z" fill="black"/>
<path d="M111.482 99.381C110.452 95.4676 109.538 93.6646 110.051 91.6682C110.623 89.4362 112.75 88.7245 114.911 90.3601C116.939 91.8939 119.825 96.9195 121.046 99.4243C121.281 99.9043 121.943 99.5483 121.857 99.0821C121.402 96.6133 118.675 91.1362 121.536 89.8553C122.799 89.358 124.2 89.3363 125.478 89.7947C126.563 90.256 126.805 91.9248 127.192 92.7941C127.416 93.3012 128.191 92.8721 127.958 92.3464C127.69 91.2482 127.172 90.2269 126.444 89.3618C125.7 88.8016 124.781 88.5222 123.851 88.5732C122.286 88.5385 120.421 88.9774 119.721 90.3885C119.273 91.847 119.281 93.4076 119.744 94.8611C119.763 94.9305 119.902 95.4739 119.902 95.4739C118.954 93.8772 117.897 92.3484 116.737 90.8981C115.98 89.9282 114.96 89.1963 113.799 88.7903C111.449 88.0821 109.291 89.4475 109.057 92.3081C109.006 93.8894 109.277 95.4644 109.853 96.9382C110.387 98.699 110.573 99.5174 110.64 99.6475C110.682 99.7512 110.761 99.8353 110.862 99.8829C110.963 99.9307 111.078 99.9386 111.184 99.905C111.291 99.8714 111.38 99.799 111.436 99.7021C111.491 99.6051 111.508 99.4908 111.482 99.3824V99.381Z" fill="#FBB0A4"/>
<path d="M73.4836 55.1305C73.5174 55.2423 73.5929 55.3367 73.6946 55.3945C73.796 55.4522 73.916 55.4686 74.0292 55.4405C74.0855 55.4253 74.1383 55.399 74.1845 55.3633C74.2307 55.3275 74.2693 55.2831 74.2981 55.2324C74.327 55.1816 74.3455 55.1257 74.3525 55.0678C74.3595 55.0098 74.3549 54.951 74.3392 54.8949L67.032 37.4481C66.9977 37.3362 66.9219 37.242 66.8203 37.1843C66.7186 37.1266 66.5986 37.1101 66.485 37.1381C66.3716 37.1696 66.2751 37.2449 66.2172 37.3475C66.159 37.4499 66.1439 37.5714 66.175 37.685C67.0009 39.6503 73.1848 54.4176 73.4836 55.1305Z" fill="black"/>
<path d="M76.2451 45.5242C76.3691 47.9571 76.6667 53.5023 76.6852 53.8432C76.715 54.4111 77.6028 54.415 77.5719 53.8432C77.4479 51.4103 77.1514 45.8651 77.133 45.5242C77.1032 44.9563 76.2154 44.9524 76.2451 45.5242Z" fill="black"/>
<path d="M61.9912 51.0794C61.89 51.0239 61.7709 51.0102 61.6596 51.0411C61.5482 51.0719 61.4533 51.145 61.3951 51.2449C61.3367 51.3447 61.3196 51.4633 61.3473 51.5754C61.375 51.6877 61.4456 51.7846 61.5437 51.8457C64.1191 53.4365 70.0501 56.9892 70.4232 57.2025C70.5247 57.2577 70.6437 57.2715 70.7551 57.2406C70.8665 57.2097 70.9614 57.1367 71.0195 57.0368C71.0779 56.9371 71.0948 56.8186 71.0671 56.7063C71.0394 56.594 70.969 56.4973 70.871 56.4362C69.0295 55.3039 62.0929 51.1375 61.9912 51.0794Z" fill="black"/>
<path d="M80.4909 138.928C81.6626 141.16 91.9571 161.457 93.1524 163.646C93.1953 163.744 93.2719 163.822 93.3684 163.866C93.4647 163.911 93.574 163.919 93.6757 163.888C93.7997 163.888 93.3632 164.012 106.019 160.742C106.106 160.72 106.186 160.674 106.249 160.611C106.313 160.547 106.358 160.467 106.381 160.38C106.812 157.357 107.797 150.448 107.858 150.018C107.886 149.908 107.878 149.791 107.835 149.686C107.793 149.581 107.717 149.492 107.62 149.433L81.1988 138.22C81.0999 138.167 80.9867 138.148 80.8755 138.164C80.7646 138.181 80.6618 138.232 80.5824 138.312C80.5031 138.391 80.4514 138.494 80.435 138.605C80.4185 138.716 80.4381 138.829 80.4909 138.928ZM106.791 150.221C106.248 154.034 106.047 155.46 105.427 159.826L93.868 162.782C93.5084 162.078 82.0434 139.695 82.0434 139.695C82.1723 139.748 106.663 150.171 106.791 150.221Z" fill="black"/>
<path d="M61.876 112.906C60.381 112.483 58.7936 112.517 57.3184 113.006C55.8435 113.494 54.5487 114.413 53.6016 115.645C51.6336 118.329 52.4633 122.141 54.6617 124.424C55.7691 125.573 57.221 126.328 58.797 126.576C60.3729 126.825 61.9869 126.552 63.3938 125.8C64.8006 125.047 65.9236 123.857 66.5923 122.408C67.261 120.96 67.4389 119.333 67.0989 117.774C66.8561 116.514 66.2194 115.364 65.2808 114.489C64.3422 113.614 63.15 113.06 61.876 112.906ZM63.8848 124.241C62.7864 125.099 61.4379 125.575 60.0442 125.597C58.6506 125.62 57.2875 125.187 56.1621 124.365C53.671 122.568 52.5512 118.696 54.4955 116.163C56.6035 113.408 60.4475 113.078 63.5191 114.551C63.7642 114.671 64.0007 114.807 64.227 114.959C66.712 116.648 67.1845 121.586 63.8837 124.241H63.8848Z" fill="black"/>
<path d="M80.1972 154.386C80.0993 154.29 79.9676 154.237 79.8306 154.237C79.6937 154.237 79.562 154.29 79.4642 154.386L74.2264 159.803L71.4984 156.886C71.041 156.399 70.3105 157.134 70.7657 157.619L73.5097 160.547L68.2 166.036C68.1035 166.133 68.0494 166.265 68.0494 166.402C68.0494 166.539 68.1035 166.67 68.2 166.768C70.6938 169.224 76.5775 174.649 76.942 174.994C76.9943 175.042 77.0554 175.08 77.122 175.105L77.1429 175.113C77.2329 175.154 77.3339 175.163 77.4299 175.141C77.5262 175.119 77.6123 175.065 77.675 174.989C78.8307 173.65 87.797 163.852 88.231 163.376C88.3259 163.278 88.3789 163.147 88.3789 163.01C88.3789 162.873 88.3259 162.742 88.231 162.643L80.1972 154.386ZM77.2782 173.89L69.3012 166.386L74.2154 161.302L76.2961 163.521C76.7524 164.009 77.484 163.273 77.0277 162.789L74.9357 160.557L79.8312 155.496L87.1472 163.028L77.2782 173.89Z" fill="black"/>
<path d="M168.846 114.472C172.603 115.809 176.691 112.472 175.691 108.607C175.31 107.545 174.602 106.63 173.67 105.994C172.738 105.358 171.629 105.033 170.5 105.065C169.372 105.098 168.283 105.486 167.39 106.175C166.495 106.863 165.842 107.817 165.523 108.899C165.305 110.073 165.523 111.286 166.134 112.312C166.746 113.337 167.709 114.105 168.846 114.472ZM168.111 106.853C168.618 106.522 169.187 106.294 169.783 106.185C170.38 106.075 170.992 106.085 171.585 106.215C172.177 106.344 172.738 106.59 173.234 106.939C173.73 107.288 174.152 107.731 174.475 108.245C173.942 108.259 167.566 108.493 166.766 108.525C167.068 107.864 167.53 107.29 168.111 106.853ZM166.455 109.581C169.219 109.457 171.983 109.341 174.75 109.279C174.843 110.172 174.631 111.071 174.148 111.828C173.664 112.586 172.938 113.157 172.088 113.448C169.336 114.474 166.221 112.296 166.455 109.578V109.581Z" fill="black"/>
<path d="M18.1995 146.608L7.73267 170.416C7.66508 170.538 7.64867 170.682 7.68702 170.816C7.72537 170.951 7.81535 171.064 7.93727 171.132C8.06127 171.199 59.3302 184.286 59.4542 184.317C59.5672 184.348 59.6873 184.335 59.7915 184.283C59.7915 184.283 83.0861 205.422 83.5623 205.817C83.6606 205.911 83.7918 205.964 83.9282 205.964C84.0646 205.964 84.1958 205.911 84.2939 205.817C103.142 187.25 121.537 167.749 145.291 146.326C145.387 146.229 145.441 146.097 145.441 145.96C145.441 145.823 145.387 145.691 145.291 145.593C145.094 145.419 89.1621 97.7021 89.0233 97.5855C91.5869 97.0278 93.988 95.8888 96.0417 94.2563C97.092 94.5539 109.413 98.0022 110.134 98.2031C110.464 99.3899 110.418 99.1628 110.556 99.6379C110.882 100.778 111.516 101.806 112.389 102.608C113.262 103.411 114.34 103.956 115.504 104.185C121.1 105.246 123.788 105.953 126.698 106.732C126 109.401 125.597 112.138 125.495 114.895C125.318 122.243 131.106 131.992 138.456 131.108C141.188 130.646 143.706 129.338 145.655 127.369C147.62 129.879 149.686 132.302 151.855 134.639C152.227 153.291 152.234 151.888 152.109 152.012C143.256 160.714 134.555 169.209 126.501 177.615C126.377 177.739 123.814 180.406 123.736 180.53C123.24 180.883 111.183 194.143 108.726 197.418C108.17 198.029 107.752 198.753 107.501 199.54C107.25 200.328 107.172 201.16 107.272 201.98C107.413 202.548 107.694 203.073 108.088 203.506C108.483 203.939 108.979 204.267 109.532 204.46C110.627 204.797 111.789 204.852 112.911 204.62C114.032 204.388 115.077 203.877 115.949 203.133C115.731 203.631 115.617 204.168 115.613 204.711C115.61 205.254 115.717 205.792 115.928 206.293C116.14 206.793 116.451 207.245 116.843 207.621C117.235 207.997 117.699 208.289 118.208 208.48C119.082 208.709 119.995 208.75 120.887 208.602C121.778 208.453 122.628 208.118 123.381 207.618C125.82 206.057 125.684 205.536 125.358 206.453C125.183 206.868 125.096 207.314 125.103 207.765C125.11 208.215 125.21 208.659 125.397 209.068C125.584 209.478 125.854 209.844 126.19 210.144C126.526 210.444 126.92 210.672 127.348 210.811C128.951 211.28 130.779 210.448 132.174 209.729C134.068 208.708 135.855 207.499 137.506 206.119C139.788 204.279 150.721 194.866 154.009 191.983H226.882C227.019 191.981 227.15 191.926 227.247 191.829C227.344 191.733 227.4 191.602 227.4 191.465C227.4 168.54 228.681 152.474 221.855 138.538C221.82 137.237 221.672 132.556 221.638 131.516C222.065 131.889 222.579 132.149 223.132 132.272C223.686 132.395 224.262 132.377 224.807 132.22C227.195 131.366 227.164 128.287 226.767 126.239C226.485 124.801 226.196 123.906 225.33 120.584L228.825 126.025C229.24 126.793 229.774 127.49 230.41 128.088C230.744 128.333 231.134 128.494 231.542 128.556C231.952 128.618 232.372 128.581 232.764 128.446C233.156 128.311 233.51 128.084 233.796 127.783C234.08 127.482 234.29 127.117 234.403 126.718C234.696 125.804 234.793 124.838 234.685 123.883C234.538 121.197 233.961 118.551 232.971 116.049C234.02 117 234.757 118.351 235.835 119.248C237.226 120.405 239.555 121.251 240.984 119.666C242.515 117.969 241.604 115.619 240.501 113.982C236.743 108.382 235.417 105.928 233.122 102.968C233.17 102.851 233.185 102.723 233.172 102.596C232.288 96.1361 232.133 90.5387 230.212 76.6582C230.016 74.9695 229.65 73.3048 229.125 71.6883C227.691 67.3268 224.952 63.5119 221.277 60.76C217.216 57.8523 212.114 57.0673 207.294 56.3258C189.214 53.5482 169.88 52.7584 166.924 52.4148C165.378 52.2327 163.822 52.1544 162.266 52.1806C162.224 52.184 162.182 52.1941 162.142 52.2103C155.882 52.4471 149.705 53.7294 143.867 56.0047C134.624 59.4767 125.818 66.8137 124.656 76.6284C124.386 79.5167 124.596 82.4298 125.276 85.25L119.272 83.4818C119.296 81.8346 119.227 80.1874 119.066 78.5479C119.029 77.7609 118.941 76.9772 118.802 76.2019C118.64 75.58 118.354 74.9972 117.962 74.4886C117.569 73.9798 117.078 73.5557 116.518 73.2412C115.958 72.9267 115.34 72.7285 114.701 72.6586C114.062 72.5885 113.416 72.6482 112.801 72.8338C112.186 73.0196 111.615 73.3273 111.121 73.739C110.628 74.1507 110.223 74.6577 109.93 75.2297C109.637 75.8017 109.463 76.4266 109.418 77.0676C109.372 77.7086 109.456 78.352 109.666 78.9596C109.844 79.5796 110.021 80.1996 110.224 80.8196L103.751 78.9136C103.848 69.192 95.676 59.6515 84.4441 58.8777C80.4452 58.6349 76.4555 59.4853 72.9033 61.3379C64.9549 65.8019 62.2541 75.8136 64.0386 83.4633C64.1155 83.7719 64.2059 84.0759 64.304 84.3795L47.0542 99.4866L34.1695 98.1226C34.0572 98.125 33.9488 98.1632 33.8595 98.2312C33.7704 98.2996 33.7053 98.3942 33.6735 98.502C33.0535 100.539 27.7995 116.358 27.7995 116.358L6.34759 135.144C6.25105 135.241 6.1969 135.373 6.1969 135.51C6.1969 135.648 6.25105 135.779 6.34759 135.877C6.34759 135.877 15.934 144.554 18.1995 146.608ZM8.90695 170.304C9.16735 169.71 18.6534 148.133 19.0043 147.336L58.3333 182.962C52.2958 181.412 9.38063 170.417 8.90695 170.304ZM136.028 153.216L131.403 148.941C130.914 148.49 130.179 149.22 130.67 149.674L135.258 153.916C121.644 166.39 93.9386 194.51 93.9386 194.51L88.5633 189.811C88.0673 189.373 87.3233 190.103 87.8304 190.542L93.2133 195.254C90.4853 198.037 84.2741 204.364 83.8971 204.748C72.9851 195.474 63.7038 180.902 61.6341 166.44C60.912 161.181 61.257 155.83 62.6489 150.708C64.0406 145.585 66.4508 140.795 69.7352 136.625C70.9019 136.749 74.4161 137.315 76.6469 137.324C77.0237 137.32 77.3959 137.241 77.742 137.092C78.088 136.943 78.401 136.726 78.6627 136.455C78.9245 136.184 79.1296 135.864 79.2663 135.512C79.4031 135.161 79.4687 134.786 79.4593 134.41C79.4563 134.048 79.3776 133.69 79.2286 133.36C79.1181 133.029 78.2044 130.944 77.5929 129.819C86.5266 124.838 96.8195 122.847 106.966 124.135C121.588 126.409 133.068 136.146 144.146 145.959C141.413 148.349 138.706 150.768 136.028 153.216ZM60.3137 159.201C58.0508 149.941 54.6056 141.011 50.0625 132.63C48.4843 130.113 47.2341 127.405 46.3425 124.57C45.798 122.634 45.7448 120.593 46.1873 118.63C46.6301 116.668 47.5547 114.847 48.8779 113.332C50.2011 111.817 51.881 110.656 53.7656 109.953C55.6504 109.25 57.6806 109.028 59.6725 109.307C63.3205 109.811 66.2929 112.089 69.0593 114.438C73.505 118.212 77.7003 122.271 81.618 126.59C68.2869 132.28 60.9833 144.945 60.3186 159.201H60.3137ZM76.7125 130.372C77.2929 131.444 77.7789 132.582 78.2614 133.697C78.4035 134.008 78.4569 134.352 78.4161 134.692C78.375 135.031 78.2413 135.353 78.0294 135.621C77.788 135.885 77.4827 136.081 77.1429 136.193C76.8032 136.304 76.4406 136.325 76.0901 136.255C74.0267 136.122 72.2733 135.934 70.5572 135.685C72.3712 133.654 74.4422 131.868 76.7175 130.372H76.7125ZM118.281 103.65C116.698 103.519 115.155 103.082 113.738 102.366C112.692 101.651 111.922 100.601 111.554 99.3899C110.119 94.5439 109.967 94.0802 109.979 92.7459C110.092 89.569 112.671 88.5484 115.125 90.6379C117.024 92.2362 119.779 97.0066 120.978 99.4618C121.252 100.022 122.025 99.6043 121.925 99.0625C121.478 96.647 118.728 91.0174 121.613 89.9014C126.499 88.1243 126.778 92.1618 127.145 92.8611C127.375 93.4266 132.283 104.878 133.276 107.337C128.31 106.144 123.34 104.671 118.286 103.65H118.281ZM136.818 205.33C134.91 206.934 130.966 209.768 128.471 209.899C128.137 209.925 127.8 209.874 127.489 209.747C127.178 209.62 126.901 209.422 126.68 209.169C126.46 208.915 126.302 208.614 126.219 208.288C126.136 207.963 126.131 207.622 126.203 207.295C126.454 206.319 126.913 205.409 127.549 204.627C128.194 203.805 128.903 203.034 129.669 202.322C130.157 201.866 129.421 201.135 128.936 201.589C127.281 203.18 125.547 204.687 123.74 206.103C122.472 207.204 120.82 207.758 119.144 207.645C118.752 207.606 118.373 207.483 118.032 207.285C117.691 207.088 117.396 206.82 117.166 206.5C116.936 206.18 116.777 205.814 116.7 205.428C116.622 205.042 116.627 204.643 116.715 204.259C117.139 202.742 118.03 201.396 119.263 200.415C120.588 199.108 121.976 197.857 123.405 196.664C123.851 196.292 123.255 195.505 122.777 195.851C119.63 198.09 116.507 201.884 114.002 203.167C113.019 203.656 111.915 203.847 110.825 203.717C110.337 203.693 109.863 203.545 109.448 203.287C109.033 203.03 108.69 202.671 108.452 202.244C107.782 200.855 108.623 199.324 109.428 198.198C110.446 196.776 111.668 195.476 112.809 194.152C116.213 190.202 120.064 185.922 124.093 181.656C124.093 181.656 142.617 200.197 142.749 200.336C140.781 202.007 138.806 203.672 136.823 205.329L136.818 205.33ZM224.858 150.747C227.04 161.842 226.397 177.79 226.372 190.95C226.372 190.95 154.231 190.92 153.822 190.95C153.6 191.015 153.54 191.026 153.078 191.419C152.255 192.121 150.158 194.035 143.591 199.619L124.843 180.865C137.802 167.152 152.756 153.009 153.76 151.829C154.012 151.348 154.212 150.841 154.355 150.317C156.408 145.238 159.471 140.63 163.359 136.772C167.247 132.914 171.879 129.886 176.973 127.873C179.534 126.9 182.159 126.104 184.829 125.489C187.251 128.216 190.038 130.595 193.111 132.557C195.282 134.176 197.936 135.014 200.643 134.937C205.38 134.536 207.287 129.875 206.684 125.239C216.907 129.005 222.732 139.901 224.86 150.746L224.858 150.747ZM205.28 119.418C207.864 121.299 211.22 120.222 212.991 117.682C214.798 121.89 217.064 125.885 219.748 129.595C220.047 129.989 220.394 130.38 220.575 130.574C220.76 135.765 220.734 136.402 220.753 136.513C217.664 130.76 212.586 126.328 206.467 124.046C204.991 117.768 199.386 114.416 192.909 113.944C199.659 110.405 205.726 107.274 206.139 107.058C206.29 107.353 206.491 108.634 205.121 111.478C204.383 112.762 203.872 114.163 203.612 115.62C203.532 116.344 203.645 117.076 203.937 117.742C204.23 118.409 204.693 118.987 205.28 119.418ZM193.158 114.994C197.724 115.376 202.357 117.48 204.524 121.71C206.78 126.096 205.995 132.421 201.717 133.691C200.495 133.95 199.232 133.956 198.007 133.71C196.782 133.464 195.62 132.97 194.592 132.258C188.116 128.368 182.912 122.677 179.614 115.879C184.069 114.983 188.624 114.685 193.158 114.994ZM184.067 124.609C178.38 125.83 172.978 128.124 168.15 131.368C161.426 136.144 156.234 142.769 153.203 150.439C153.19 149.74 152.9 134.922 152.9 134.922L180.873 120.253C181.839 121.775 182.906 123.23 184.067 124.609ZM238.77 113.273C239.735 114.706 241.374 116.566 240.576 118.427C239.805 120.229 237.6 119.403 236.491 118.447C234.367 116.339 234.207 115.203 231.981 114.224C231.519 114.034 231.229 114.627 231.398 114.984C232.935 118.213 233.708 121.752 233.661 125.328C233.657 125.708 233.573 126.082 233.413 126.426C233.251 126.77 233.019 127.075 232.73 127.321C232.477 127.524 232.162 127.627 231.837 127.608C231.515 127.59 231.213 127.451 230.985 127.22C230.424 126.635 229.946 125.973 229.567 125.255L224.461 117.304C224.395 117.199 224.295 117.121 224.177 117.084C224.059 117.047 223.932 117.053 223.818 117.101C223.704 117.149 223.611 117.236 223.555 117.346C223.499 117.457 223.485 117.583 223.514 117.703C224.134 120.082 224.705 122.475 225.374 124.84C225.725 125.976 225.921 127.156 225.955 128.345C225.98 131.527 223.396 132.788 220.572 128.975C217.807 125.122 215.482 120.971 213.642 116.6C213.658 116.52 213.657 116.438 213.639 116.358C213.621 116.279 213.586 116.204 213.537 116.139C213.488 116.074 213.425 116.021 213.354 115.982C213.282 115.943 213.203 115.92 213.122 115.914C213.041 115.908 212.959 115.92 212.883 115.948C212.806 115.976 212.737 116.02 212.679 116.077C212.621 116.134 212.576 116.203 212.546 116.279C212.517 116.355 212.504 116.437 212.509 116.518C211.145 118.998 208.129 120.254 205.825 118.54C203.422 116.695 205.232 113.665 206.208 111.579C206.849 110.383 207.198 109.053 207.225 107.697C215.398 106.023 223.758 104.65 232.076 103.286C234.576 106.426 236.536 109.956 238.77 113.273ZM130.756 65.9383C134.08 62.3481 138.136 59.5126 142.65 57.6228C148.859 54.9446 155.516 53.4573 162.275 53.2382C162.314 53.2355 162.352 53.2298 162.389 53.2208C163.695 53.2803 164.993 53.2296 166.298 53.3735C169.203 53.6945 188.197 54.622 204.958 57.0215C209.554 57.6787 214.458 58.2219 218.639 60.3695C223.162 62.8865 226.557 67.0317 228.133 71.9622C229.77 76.6122 231.391 96.7076 232.101 102.243C223.112 103.722 215.723 104.923 207.425 106.61C207.369 106.394 207.312 106.177 207.255 105.959C207.223 105.84 207.147 105.737 207.044 105.67C206.941 105.603 206.816 105.576 206.694 105.595C205.826 102.413 200.943 84.3809 200.751 83.6691C200.721 83.5605 200.656 83.4646 200.566 83.3961C200.477 83.3273 200.368 83.2895 200.255 83.2883C198.011 83.2996 176.55 83.937 174.556 84.0323C173.893 84.0635 173.889 85.0987 174.556 85.0679C178.476 84.8855 199.204 84.3511 199.861 84.3363C200.963 88.417 205.746 106.046 205.746 106.046L190.859 113.858C186.784 113.769 182.711 114.159 178.726 115.02C178.612 115.044 178.511 115.111 178.444 115.207C178.377 115.303 178.35 115.421 178.368 115.537C178.917 116.87 179.573 118.156 180.332 119.381L154.437 132.962C153.847 133.27 153.166 133.546 152.586 133.905C150.306 131.456 148.139 128.908 146.087 126.259C141.98 120.992 138.325 115.387 135.16 109.504C134.838 108.92 133.943 109.442 134.266 110.028C136.336 113.78 137.702 116.188 139.684 119.139C139.489 119.901 139.237 120.648 138.93 121.371C138.652 121.973 139.55 122.5 139.824 121.895C140.065 121.358 140.268 120.806 140.434 120.242C141.782 122.187 142.751 123.503 145.032 126.552C140.978 130.272 136.524 131.645 132.297 127.968C130.544 126.388 129.129 124.468 128.139 122.326C127.149 120.183 126.604 117.862 126.537 115.502C126.597 112.634 126.988 109.783 127.701 107.005C129.419 107.463 131.325 107.962 134.006 108.582C134.189 108.624 135.311 108.449 134.969 107.822C133.051 103.539 131.119 99.2659 129.389 94.8936C127.457 90.0042 125.689 84.7926 125.56 79.4903C125.492 74.4742 127.352 69.6233 130.756 65.9383ZM113.549 73.7095C114.166 73.6019 114.799 73.6506 115.392 73.851C115.984 74.0515 116.517 74.3971 116.942 74.8563C117.616 75.6889 117.978 76.7303 117.967 77.8015C118.197 79.8046 118.273 81.8227 118.194 83.8378C118.063 84.3428 117.803 84.8052 117.44 85.1797C117.076 85.5542 116.622 85.8279 116.121 85.9742C115.583 86.056 115.034 85.9963 114.526 85.8006C114.019 85.6049 113.571 85.28 113.228 84.8582C112.583 83.9753 112.076 82.9993 111.724 81.964C111.193 80.7003 110.786 79.388 110.509 78.0456C110.42 77.5609 110.429 77.0635 110.534 76.5822C110.64 76.1008 110.84 75.6452 111.123 75.2419C111.405 74.8383 111.766 74.4952 112.182 74.2321C112.599 73.969 113.063 73.7913 113.549 73.7095ZM110.64 82.0175C111.005 83.0875 111.496 84.1101 112.102 85.064C112.46 85.7077 112.996 86.2346 113.645 86.5818C114.295 86.929 115.03 87.0818 115.764 87.0221C116.498 86.9621 117.199 86.6925 117.784 86.2447C118.369 85.797 118.812 85.1903 119.061 84.4975L125.544 86.4057C125.767 87.3332 126.017 88.2508 126.288 89.161C125.332 88.6537 124.251 88.4278 123.172 88.5096C122.092 88.5915 121.058 88.9777 120.189 89.6236C118.922 90.8264 119.253 93.1353 119.701 94.9879C119.081 93.9958 118.682 93.4056 117.905 92.2858C116.976 90.6785 115.541 89.4239 113.823 88.7184C113.313 88.5448 112.771 88.4853 112.236 88.5437C111.7 88.6023 111.184 88.7775 110.723 89.0568C109.483 89.8592 108.604 91.6151 109.1 94.3591C109.253 95.2676 109.484 96.1613 109.791 97.03C109.791 97.03 98.1262 93.7677 96.9879 93.4464C100.877 89.9891 103.277 85.1605 103.684 79.9726L110.64 82.0175ZM66.2916 70.2598C68.9341 64.0027 74.4199 60.5481 81.2113 59.9887C85.6081 59.4871 90.041 60.5504 93.7317 62.992C96.0599 64.4812 98.0496 66.4428 99.5714 68.7497C101.093 71.0568 102.114 73.6576 102.567 76.384C103.092 80.7078 102.083 85.0787 99.7148 88.7344C97.3468 92.3899 93.7707 95.0983 89.6099 96.3866C80.2132 98.9421 68.6316 93.3844 65.3715 84.32C64.047 79.6675 64.3721 74.6999 66.2916 70.2598ZM34.5316 99.2L45.9991 100.415L29.3261 115.015C30.2114 112.322 34.3233 99.8275 34.5316 99.2ZM64.6809 85.4236C68.5473 94.2761 78.7847 99.1207 87.7089 97.8236L125.784 130.312C115.492 123.982 105.021 121.21 92.5969 123.492C89.1948 124.037 85.8597 124.94 82.6472 126.186C78.6395 121.75 74.3453 117.582 69.7922 113.708C67.5762 111.624 64.9891 109.973 62.1649 108.842C60.2005 108.183 58.1078 107.997 56.058 108.302C54.0081 108.607 52.0595 109.392 50.372 110.595C48.6843 111.797 47.3052 113.382 46.3481 115.22C45.3908 117.058 44.8824 119.097 44.8644 121.169C44.8112 126.783 48.5733 131.635 51.2815 137.134C55.412 145.693 58.4645 154.731 60.3693 164.042C60.3781 164.175 60.4239 164.75 60.4388 164.91C56.1583 154.173 54.7348 147.078 50.2361 136.871C48.3761 132.913 46.8696 131.043 45.3877 127.508C44.4958 125.612 44.0277 123.544 44.0162 121.448C44.0047 119.353 44.4498 117.279 45.3207 115.373C45.5687 114.843 45.8528 114.324 46.149 113.816C46.2126 113.698 46.2277 113.56 46.1912 113.43C46.1549 113.301 46.0699 113.191 45.9542 113.124C45.8383 113.056 45.7008 113.036 45.5705 113.067C45.4402 113.099 45.327 113.18 45.2551 113.293C44.0674 115.186 43.3119 117.318 43.0429 119.536C42.3609 125.869 46.1925 131.239 48.3909 135.465C52.8117 143.959 55.7367 156.975 61.0042 168.925C63.1073 178.59 67.4098 187.641 73.5778 195.373C24.7392 151.131 8.04391 136.028 7.50947 135.5L64.6809 85.4236Z" fill="black"/>
<path d="M124.854 59.4194C125.618 59.1202 126.296 58.6371 126.829 58.0128C127.361 57.3887 127.731 56.6429 127.907 55.8414C128.082 55.0402 128.057 54.2078 127.833 53.4185C127.61 52.6289 127.195 51.907 126.626 51.3161C125.71 50.3929 124.493 49.8286 123.197 49.7253C121.9 49.6221 120.609 49.9866 119.558 50.7532C118.694 51.4922 118.108 52.5045 117.899 53.6223C117.69 54.7401 117.869 55.8958 118.408 56.8972C118.994 58.0279 119.971 58.9072 121.157 59.3712C122.342 59.8351 123.657 59.8523 124.854 59.4194ZM126.799 53.5159C127.019 54.1934 127.054 54.9175 126.898 55.6128C126.743 56.3081 126.403 56.9487 125.914 57.4674C125.426 57.986 124.806 58.3634 124.121 58.56C123.437 58.7566 122.711 58.7654 122.022 58.585C120.971 58.3181 120.066 57.6505 119.501 56.725C121.334 54.9256 123.221 53.1822 125.109 51.4451C125.898 51.9149 126.496 52.6483 126.799 53.5159ZM124.047 50.9466C122.001 52.8201 120.872 53.8358 119.023 55.6586C118.796 54.9712 118.771 54.2333 118.95 53.5321C119.129 52.8307 119.504 52.1952 120.032 51.7001C120.56 51.205 121.218 50.8711 121.93 50.7376C122.641 50.6041 123.376 50.6765 124.047 50.9466Z" fill="black"/>
<path d="M113.975 62.5629L116.894 60.2924C116.942 60.2443 116.98 60.1873 117.006 60.1246C117.032 60.0619 117.045 59.9945 117.045 59.9267C117.045 59.8586 117.032 59.7914 117.006 59.7287C116.98 59.6658 116.942 59.6088 116.894 59.5608C116.795 59.4661 116.664 59.4131 116.527 59.4131C116.391 59.4131 116.259 59.4661 116.161 59.5608L113.242 61.83C113.145 61.9271 113.09 62.059 113.09 62.1965C113.09 62.3338 113.145 62.4657 113.242 62.5629C113.34 62.6576 113.472 62.7106 113.608 62.7106C113.745 62.7106 113.876 62.6576 113.975 62.5629Z" fill="black"/>
<path d="M159.82 109.346L163.954 109.273C164.087 109.266 164.212 109.209 164.304 109.112C164.396 109.016 164.447 108.888 164.447 108.755C164.447 108.622 164.396 108.494 164.304 108.397C164.212 108.301 164.087 108.244 163.954 108.237L159.82 108.31C159.687 108.317 159.562 108.374 159.47 108.471C159.378 108.567 159.327 108.695 159.327 108.828C159.327 108.961 159.378 109.089 159.47 109.185C159.562 109.282 159.687 109.339 159.82 109.346Z" fill="black"/>
<path d="M74.9331 83.9951C81.0376 93.3185 91.709 93.1835 94.8203 87.5911C97.2036 83.3068 95.1364 76.6791 92.2025 72.67C90.0357 69.6244 86.9911 67.3123 83.4754 66.0424C81.2048 65.1426 78.6865 65.088 76.379 65.8886C71.6918 67.9321 70.3339 73.0707 71.8778 77.7168C72.5616 79.9565 73.5926 82.0751 74.9331 83.9951ZM72.3788 72.8599C72.4892 71.809 72.8236 70.7938 73.3595 69.8832C73.8952 68.9724 74.62 68.1871 75.4848 67.58C80.1795 64.1526 90.6266 68.1851 94.1184 78.802C94.8816 81.047 95.0013 83.461 94.4643 85.7708C94.0828 86.9483 93.3796 87.9958 92.4341 88.7948C91.4885 89.5936 90.3385 90.1121 89.1138 90.2918C81.9565 91.3557 76.1346 85.7261 73.4278 79.045C72.5623 77.1047 72.2013 74.9771 72.3788 72.8599Z" fill="black"/>
<path d="M95.48 140.761C98.332 139.96 104.98 138.261 105.18 138.139C105.286 138.1 105.374 138.024 105.428 137.925C105.538 137.7 105.358 138.642 106.768 128.986C106.795 128.86 106.777 128.729 106.716 128.615C106.656 128.501 106.557 128.413 106.437 128.366C106.427 128.36 106.416 128.354 106.406 128.35H106.368C106.286 128.329 106.199 128.331 106.116 128.355C106.034 128.378 105.96 128.423 105.901 128.485C102.204 132.565 99.1107 135.765 97.9165 136.977C95.3918 139.54 95.0248 139.809 94.9405 139.964C94.8816 140.049 94.8501 140.151 94.8496 140.255C94.8494 140.359 94.8803 140.46 94.9384 140.546C94.9966 140.633 95.0796 140.699 95.1761 140.737C95.2728 140.776 95.3785 140.784 95.48 140.761ZM105.512 130.427C105.181 132.704 104.85 134.982 104.52 137.261C102.04 137.95 99.5497 138.594 97.0658 139.263C100.316 136.013 102.714 133.47 105.512 130.427Z" fill="black"/>
<path d="M63.2113 117.94C63.3551 118.782 63.5202 119.995 62.8393 120.668C62.0457 121.448 60.7054 120.898 59.8498 120.526C59.7303 120.46 59.5903 120.443 59.4586 120.477C59.3269 120.512 59.2135 120.596 59.1416 120.712C59.1074 120.77 59.0848 120.835 59.0756 120.902C59.0663 120.97 59.0706 121.038 59.0877 121.104C59.1051 121.17 59.1351 121.232 59.1763 121.286C59.2174 121.34 59.269 121.385 59.3276 121.42C60.6296 121.988 62.2912 122.544 63.499 121.468C64.5519 120.53 64.4229 118.923 64.2071 117.671C64.0967 117.009 63.0986 117.287 63.2113 117.94Z" fill="black"/>
<path d="M141.599 86.9501C146.325 87.332 155.812 88.1491 155.831 88.1491C155.886 88.1568 155.943 88.1534 155.997 88.1392C156.051 88.125 156.102 88.1004 156.146 88.0663C156.19 88.0325 156.228 87.9901 156.256 87.9419C156.284 87.8934 156.302 87.84 156.309 87.7845C156.331 87.6283 157.464 80.5666 158.213 74.8626C158.214 74.7742 158.193 74.6872 158.151 74.6099C158.108 74.5325 158.047 74.4672 157.972 74.4207C157.897 74.374 157.811 74.3477 157.723 74.3441C157.635 74.3404 157.547 74.3598 157.469 74.4C157.345 74.4744 151.725 78.492 141.318 85.932C141.209 85.9895 141.123 86.0826 141.074 86.1957C141.025 86.3089 141.016 86.4354 141.049 86.5542C141.082 86.673 141.154 86.7772 141.255 86.8491C141.355 86.921 141.476 86.9567 141.599 86.9501ZM157.02 75.9786C156.508 79.6824 155.89 83.3715 155.391 87.0766C151.245 86.7393 147.101 86.3709 142.956 86.0287L157.02 75.9786Z" fill="black"/>
<path d="M214.892 64.165L219.588 67.6011C220.126 67.9955 220.643 67.0963 220.11 66.707C218.545 65.5612 216.98 64.4159 215.414 63.2711C214.876 62.8767 214.359 63.7745 214.892 64.165Z" fill="black"/>
<path d="M222.135 113.177C221.763 112.628 220.866 113.145 221.24 113.701L222.809 116.025C223.181 116.574 224.078 116.057 223.703 115.502L222.135 113.177Z" fill="black"/>
<path d="M229.995 110.081L231.21 112.561C231.504 113.16 232.396 112.635 232.105 112.039C231.7 111.212 231.296 110.386 230.89 109.559C230.597 108.96 229.704 109.485 229.995 110.081Z" fill="black"/>
<path d="M182.652 165.4C179.204 168.436 156.796 188.148 155.027 189.704C154.525 190.145 155.26 190.875 155.759 190.436C159.209 187.403 181.615 167.69 183.385 166.132C183.882 165.693 183.148 164.962 182.652 165.4Z" fill="black"/>
<path d="M152.747 185.304L149.269 187.735C148.727 188.114 149.244 189.012 149.792 188.629L153.264 186.198C153.811 185.819 153.294 184.921 152.747 185.304Z" fill="black"/>
<path d="M131.111 201.282L132.828 199.304C133.263 198.808 132.533 198.064 132.095 198.571L130.379 200.549C129.943 201.05 130.674 201.786 131.111 201.282Z" fill="black"/>
<path d="M124.651 195.334L126.904 193.132C127.382 192.666 126.656 191.935 126.173 192.4L123.918 194.601C123.441 195.067 124.174 195.796 124.651 195.334Z" fill="black"/>
<path d="M82.1748 70.6676C84.4695 71.998 86.5606 73.6524 88.3836 75.5792C88.8361 76.0752 89.5666 75.3312 89.1152 74.8476C87.2537 72.8322 85.0886 71.1201 82.6981 69.7735C82.5771 69.7088 82.4352 69.6946 82.3038 69.7342C82.1721 69.7737 82.0617 69.8637 81.9963 69.9843C81.9329 70.0995 81.9162 70.2345 81.9494 70.3615C81.9828 70.4886 82.0632 70.5982 82.1748 70.6676Z" fill="black"/>
<path d="M73.408 55.1503C73.448 55.2806 73.5361 55.3908 73.6547 55.4582C73.7733 55.5254 73.9131 55.5448 74.0454 55.5124C74.111 55.4943 74.1726 55.4634 74.2262 55.4217C74.2799 55.3798 74.3247 55.3279 74.3586 55.2686C74.3922 55.2096 74.4138 55.1442 74.4221 55.0768C74.4305 55.0091 74.4255 54.9406 74.4075 54.875L67.1039 37.4244C67.064 37.2941 66.9758 37.184 66.8572 37.1168C66.7386 37.0497 66.5989 37.0307 66.4665 37.0636C66.4009 37.0815 66.3394 37.1123 66.2855 37.154C66.2318 37.196 66.187 37.2478 66.1534 37.3071C66.1198 37.3664 66.0984 37.4318 66.0902 37.4992C66.0819 37.5669 66.0873 37.6354 66.1058 37.701C66.262 38.0766 73.3499 55.0001 73.408 55.1503Z" fill="black"/>
<path d="M76.6122 53.8433C76.6469 54.5055 77.6824 54.5104 77.6477 53.8433C77.5237 51.4104 77.2088 45.5241 77.2088 45.5241C77.1727 44.8608 76.1374 44.8569 76.1721 45.5241C76.4386 50.5684 76.5317 52.3341 76.6122 53.8433Z" fill="black"/>
<path d="M61.5039 51.9102C64.0955 53.4726 70.0103 57.0538 70.3837 57.2657C70.4434 57.2988 70.5091 57.3198 70.5771 57.327C70.645 57.3345 70.7138 57.3281 70.7791 57.3088C70.8448 57.2891 70.9056 57.2569 70.9584 57.2134C71.0111 57.1701 71.0549 57.1167 71.0867 57.0562C71.1487 56.9404 71.1647 56.8055 71.1313 56.6786C71.0979 56.5517 71.0177 56.4419 70.907 56.3718C70.907 56.3718 62.3992 51.2282 62.0272 51.015C61.9684 50.9805 61.9035 50.9582 61.836 50.9489C61.7686 50.9397 61.6999 50.9437 61.634 50.9611C61.5682 50.9782 61.5064 51.0084 61.4521 51.0495C61.398 51.0907 61.3522 51.1421 61.3179 51.201C61.2837 51.2596 61.2611 51.3247 61.2519 51.3922C61.2426 51.4596 61.2467 51.5281 61.2641 51.5939C61.2814 51.66 61.3114 51.7218 61.3527 51.7759C61.3937 51.8302 61.4451 51.8758 61.5039 51.9102Z" fill="black"/>
</svg>
