<svg width="248" height="248" viewBox="0 0 248 248" fill="none" xmlns="http://www.w3.org/2000/svg">
<path d="M203.229 196.24H180.723C180.565 196.852 180.264 197.418 179.843 197.89C179.423 198.362 178.896 198.727 178.306 198.954C178.399 199.088 181.381 203.395 182.77 205.418C183.09 205.768 183.299 206.205 183.37 206.674C183.369 206.959 183.283 207.237 183.122 207.471C182.961 207.706 182.734 207.887 182.469 207.99C182.203 208.093 181.913 208.114 181.636 208.05C181.359 207.986 181.107 207.84 180.915 207.631C180.308 206.981 177.683 204.291 177.21 203.806C176.911 204.178 176.553 204.5 176.152 204.757C174.771 205.537 173.201 205.917 171.616 205.855C171.946 206.276 172.187 206.759 172.326 207.275C172.464 207.791 172.497 208.331 172.422 208.86C172.347 209.39 172.166 209.898 171.889 210.356C171.613 210.813 171.246 211.21 170.813 211.523C169.715 212.35 168.504 213.014 167.217 213.494C165.605 214.114 164.011 214.785 162.4 215.414C148.388 220.87 134.182 225.423 119.401 227.378C119.401 227.88 119.424 228.417 119.424 228.417C119.426 228.539 119.474 228.654 119.559 228.737C119.644 228.823 119.759 228.872 119.879 228.872H203.225C203.345 228.872 203.46 228.823 203.545 228.737C203.63 228.654 203.678 228.539 203.68 228.417V196.695C203.678 196.575 203.63 196.461 203.546 196.376C203.462 196.291 203.348 196.242 203.229 196.24Z" fill="#FFF0B3"/>
<path d="M182.776 205.418C181.385 203.395 178.403 199.094 178.312 198.954C178.145 199.011 177.973 199.052 177.799 199.078C178.174 199.836 178.319 200.688 178.216 201.527C178.113 202.367 177.766 203.158 177.218 203.803C178.424 205.043 179.631 206.283 180.839 207.523C181.019 207.757 181.268 207.929 181.55 208.015C181.833 208.101 182.135 208.097 182.415 208.002C182.695 207.908 182.939 207.728 183.111 207.488C183.284 207.249 183.377 206.961 183.379 206.666C183.305 206.2 183.096 205.766 182.776 205.418Z" fill="#6596E1"/>
<path d="M141.849 148.858C141.795 148.781 141.712 148.728 141.62 148.71C141.527 148.692 141.431 148.712 141.353 148.764C141.078 148.951 138.849 150.806 132.498 156.049C132.415 156.136 132.369 156.251 132.369 156.37C132.369 156.49 132.415 156.605 132.498 156.691C137.778 162.395 138.283 163.415 151.718 177.486C156.286 177.168 160.857 178.051 164.978 180.048C156.829 168.665 141.953 148.993 141.849 148.858Z" fill="#6596E1"/>
<path d="M145.963 19.6553C145.256 17.4976 144.013 15.5548 142.35 14.009C140.687 12.4633 138.658 11.3652 136.455 10.8178C133.919 10.1866 139.863 10.3776 54.6369 10.3776C53.7565 10.3776 52.87 10.3553 51.9921 10.4371C48.5943 10.7512 45.4366 12.323 43.1376 14.8444C40.8386 17.3659 39.5644 20.6551 39.5648 24.0672V51.0012C48.2275 47.0009 56.8615 51.7253 58.3395 58.8132C65.7261 53.2762 73.5395 48.3327 81.7061 44.0288C83.8612 42.9624 86.4578 42.2443 88.5112 43.8811C89.3127 44.5356 89.9397 45.3783 90.3365 46.334C90.7333 47.2895 90.8875 48.3286 90.7854 49.3583C90.2795 55.0747 84.0596 59.8473 79.5846 63.3951H146.236C146.356 63.3931 146.47 63.3446 146.555 63.2596C146.64 63.1746 146.688 63.0598 146.69 62.9399V47.094H142.833C142.754 47.0925 142.676 47.0706 142.608 47.0302C142.54 46.9899 142.483 46.9324 142.444 46.8636C142.404 46.7946 142.383 46.7169 142.383 46.6375C142.382 46.5581 142.403 46.4799 142.441 46.4107C142.728 45.9147 144.409 43.0343 146.69 39.1184V29.2144C144.745 29.8468 142.821 28.5709 142.614 25.9234C142.479 24.1949 143.197 21.3144 141.177 20.3794C140.756 20.2335 140.295 20.2579 139.892 20.4474C139.489 20.637 139.177 20.9767 139.021 21.3938C138.651 22.2673 138.5 23.2184 138.582 24.164C138.609 25.8132 138.818 28.4233 136.711 28.8895C135.884 29.0768 135.016 28.963 134.265 28.5684C133.495 28.0819 132.931 27.3293 132.68 26.4541C132.3 24.4352 132.307 22.3625 132.7 20.346C132.771 19.7731 133.692 19.7681 133.608 20.346C133.442 21.5537 133.34 22.7693 133.303 23.9879C133.22 25.0144 133.429 26.0434 133.905 26.9564C134.069 27.2414 134.294 27.4865 134.564 27.6738C134.834 27.8612 135.142 27.9863 135.466 28.04C135.79 28.0936 136.122 28.0745 136.438 27.9841C136.754 27.8937 137.046 27.734 137.293 27.5169C138.329 25.5999 136.876 22.4688 138.687 20.2815C138.976 19.9252 139.357 19.655 139.788 19.5002C140.22 19.3454 140.686 19.312 141.136 19.4036C141.559 19.5334 141.95 19.7518 142.283 20.0443C142.615 20.3367 142.882 20.6965 143.065 21.0999C143.953 23.0207 143.035 25.1918 143.819 27.1251C143.923 27.3968 144.082 27.6434 144.287 27.8497C144.492 28.0558 144.738 28.2167 145.009 28.3218C145.28 28.4271 145.57 28.4742 145.86 28.4602C146.151 28.4463 146.435 28.3716 146.695 28.2411V25.5726C146.805 23.5724 146.557 21.5685 145.963 19.6553ZM82.6609 24.676L76.1969 32.488C76.3741 32.6789 80.5369 37.2088 82.4415 39.282C82.837 39.7122 82.1935 40.357 81.7992 39.9244C81.53 39.6317 77.195 34.885 75.2743 32.8253C75.1927 32.7382 75.1474 32.6235 75.1474 32.5042C75.1474 32.3849 75.1927 32.2702 75.2743 32.1829C75.5521 31.8495 80.047 26.4194 82.0186 24.0386C82.3919 23.5798 83.0318 24.226 82.6609 24.676ZM101.829 25.2241C101.829 25.2241 90.9777 36.208 87.0852 39.9652C86.9986 40.0443 86.885 40.0869 86.7678 40.084C86.6508 40.0813 86.5392 40.0335 86.4564 39.9505C86.3735 39.8678 86.3259 39.756 86.3234 39.6389C86.3209 39.5217 86.3638 39.4081 86.4429 39.3217C87.5107 38.2181 97.2943 28.3428 101.185 24.5793C101.272 24.5001 101.385 24.4573 101.502 24.4598C101.62 24.4625 101.731 24.51 101.814 24.5928C101.897 24.6755 101.945 24.7871 101.948 24.9044C101.95 25.0214 101.908 25.135 101.829 25.2216V25.2241ZM112.513 32.8203C112.242 33.1118 107.895 37.8461 105.989 39.9194C105.592 40.3521 104.951 39.7073 105.347 39.2771L111.59 32.483C111.408 32.2612 107.099 27.0568 105.127 24.671C104.755 24.2235 105.396 23.5773 105.77 24.0287L112.513 32.173C112.595 32.26 112.642 32.3755 112.642 32.4954C112.642 32.6156 112.595 32.731 112.513 32.8178V32.8203Z" fill="#DCEFFF"/>
<path d="M82.0185 24.0312L75.2743 32.1756C75.1926 32.2626 75.1473 32.3776 75.1473 32.4968C75.1473 32.6161 75.1926 32.7309 75.2743 32.8179C77.1949 34.8776 81.53 39.6244 81.7991 39.917C82.1959 40.3485 82.8369 39.7048 82.4412 39.2747L76.1968 32.4806L82.6608 24.6686C83.0317 24.226 82.3916 23.5799 82.0185 24.0312Z" fill="#6596E1"/>
<path d="M144.538 77.2208C144.655 77.2147 144.764 77.1642 144.844 77.0797C144.925 76.9951 144.97 76.8831 144.97 76.7665C144.97 76.6497 144.925 76.5377 144.844 76.4532C144.764 76.3686 144.655 76.3181 144.538 76.312H143.298L142.509 77.2208H144.538Z" fill="#6596E1"/>
<path d="M111.59 32.4806L105.347 39.2744C104.951 39.7048 105.595 40.3496 105.989 39.9167C107.895 37.8435 112.242 33.1091 112.513 32.8178C112.595 32.731 112.64 32.6161 112.64 32.4966C112.64 32.3773 112.595 32.2623 112.513 32.1755L105.772 24.0312C105.4 23.5798 104.759 24.2258 105.13 24.6735C112.671 33.785 110.633 31.3235 111.59 32.4806Z" fill="#6596E1"/>
<path d="M101.829 25.2216C101.908 25.1351 101.95 25.0214 101.948 24.9042C101.945 24.7872 101.897 24.6756 101.814 24.5926C101.731 24.5099 101.62 24.4623 101.502 24.4598C101.385 24.4573 101.272 24.5002 101.185 24.5793C97.2928 28.3426 87.5106 38.2193 86.4428 39.3216C86.3637 39.4081 86.3209 39.5215 86.3233 39.6388C86.3258 39.756 86.3734 39.8676 86.4564 39.9506C86.5391 40.0335 86.6507 40.0813 86.7677 40.084C86.8849 40.0868 86.9986 40.0441 87.0852 39.9652C90.9776 36.208 101.829 25.2216 101.829 25.2216Z" fill="#6596E1"/>
<path d="M146.355 71.4403C146.355 66.2557 146.388 66.5522 146.279 66.3896C146.326 66.4771 146.345 66.5763 146.335 66.6748C146.325 66.7736 146.286 66.8667 146.222 66.9427C146.222 66.9427 116.585 101.113 115.112 102.796C113.127 105.087 110.657 106.905 107.88 108.119C105.103 109.332 102.09 109.91 99.0611 109.811H63.6753C63.4061 110.389 63.1396 110.968 62.8668 111.547C68.2867 110.439 71.1227 112.251 74.1395 110.491C74.1923 110.462 74.2507 110.443 74.3109 110.436C74.3711 110.429 74.432 110.434 74.4904 110.45C74.5485 110.467 74.6029 110.495 74.6502 110.533C74.6975 110.571 74.7368 110.618 74.7659 110.671C75.006 112.093 74.8754 113.552 74.3864 114.908C74.2809 115.216 74.1632 115.518 74.0293 115.816C74.0293 115.816 97.4876 115.816 99.6973 115.816C102.762 115.825 105.789 115.143 108.553 113.819C111.317 112.496 113.747 110.566 115.661 108.173C118.058 105.362 145.206 74.1187 145.982 73.2259C146.171 73.0617 146.302 72.8401 146.354 72.5946C146.375 72.2102 146.375 71.8247 146.355 71.4403Z" fill="#B6DBFF"/>
<path d="M145.901 66.1664H76.2253C73.0545 68.944 70.2386 72.1247 69.6062 76.3121H89.1312C89.2476 76.3181 89.3574 76.3687 89.4376 76.4532C89.5179 76.5377 89.5625 76.65 89.5625 76.7666C89.5625 76.8831 89.5179 76.9952 89.4376 77.08C89.3574 77.1645 89.2476 77.215 89.1312 77.2211H69.5131C69.3095 78.6627 69.6448 80.1286 70.455 81.3381C71.2653 82.5477 72.4934 83.4157 73.904 83.7757C76.4972 84.3466 79.1179 84.7844 81.7557 85.0877C88.3451 86.0797 90.3674 86.2197 92.6465 87.1039H103.302C103.418 87.11 103.528 87.1605 103.608 87.245C103.689 87.3296 103.733 87.4416 103.733 87.5582C103.733 87.675 103.689 87.787 103.608 87.8716C103.528 87.9561 103.418 88.0066 103.302 88.0127H94.2772C97.96 90.6564 96.596 96.0517 92.6912 98.2738H115.921C116.038 98.2799 116.147 98.3304 116.228 98.4149C116.308 98.4995 116.353 98.6115 116.353 98.7281C116.353 98.8449 116.308 98.9569 116.228 99.0415C116.147 99.126 116.038 99.1765 115.921 99.1826H90.7369C88.6966 99.8346 86.5895 100.256 84.4551 100.44C78.8604 101 73.2315 101.138 67.6159 100.853C66.3982 103.845 65.0331 106.912 63.6752 109.816H99.0612C102.09 109.914 105.103 109.336 107.88 108.121C110.657 106.907 113.128 105.087 115.112 102.796C116.585 101.111 146.222 66.9401 146.222 66.9401C146.281 66.875 146.32 66.7945 146.335 66.7082C146.35 66.6218 146.34 66.5327 146.306 66.4518C146.272 66.3709 146.217 66.301 146.145 66.2505C146.073 66.2 145.988 66.1709 145.901 66.1664ZM135.609 77.2211H117.941C117.825 77.215 117.715 77.1645 117.635 77.08C117.555 76.9952 117.51 76.8831 117.51 76.7666C117.51 76.65 117.555 76.5377 117.635 76.4532C117.715 76.3687 117.825 76.3181 117.941 76.3121H135.611C135.705 76.3454 135.786 76.4072 135.844 76.4884C135.901 76.5698 135.932 76.6669 135.932 76.7666C135.932 76.8662 135.901 76.9634 135.844 77.0448C135.786 77.126 135.705 77.1877 135.611 77.2211H135.609ZM94.9033 77.2211C94.787 77.215 94.6774 77.1645 94.5972 77.08C94.5169 76.9952 94.472 76.8831 94.472 76.7666C94.472 76.65 94.5169 76.5377 94.5972 76.4532C94.6774 76.3687 94.787 76.3181 94.9033 76.3121H112.189C112.305 76.3181 112.415 76.3687 112.495 76.4532C112.576 76.5377 112.62 76.65 112.62 76.7666C112.62 76.8831 112.576 76.9952 112.495 77.08C112.415 77.1645 112.305 77.215 112.189 77.2211H94.9033ZM108.817 88.0091C108.701 88.003 108.591 87.9525 108.511 87.868C108.431 87.7832 108.386 87.6711 108.386 87.5546C108.386 87.438 108.431 87.3257 108.511 87.2412C108.591 87.1567 108.701 87.1061 108.817 87.1001H125.953C126.069 87.1061 126.179 87.1567 126.259 87.2412C126.34 87.3257 126.384 87.438 126.384 87.5546C126.384 87.6711 126.34 87.7832 126.259 87.868C126.179 87.9525 126.069 88.003 125.953 88.0091H108.817Z" fill="#78B5FF"/>
<path d="M117.941 77.2208H135.611C135.728 77.2147 135.837 77.1642 135.918 77.0797C135.998 76.9951 136.043 76.8831 136.043 76.7665C136.043 76.6497 135.998 76.5377 135.918 76.4532C135.837 76.3686 135.728 76.3181 135.611 76.312H117.941C117.825 76.3181 117.715 76.3686 117.635 76.4532C117.555 76.5377 117.51 76.6497 117.51 76.7665C117.51 76.8831 117.555 76.9951 117.635 77.0797C117.715 77.1642 117.825 77.2147 117.941 77.2208Z" fill="#6596E1"/>
<path d="M112.191 76.312H94.9058C94.7894 76.3181 94.6799 76.3686 94.5996 76.4532C94.5194 76.5377 94.4745 76.6497 94.4745 76.7665C94.4745 76.8831 94.5194 76.9951 94.5996 77.0797C94.6799 77.1642 94.7894 77.2147 94.9058 77.2208H112.191C112.308 77.2147 112.418 77.1642 112.498 77.0797C112.578 76.9951 112.623 76.8831 112.623 76.7665C112.623 76.6497 112.578 76.5377 112.498 76.4532C112.418 76.3686 112.308 76.3181 112.191 76.312Z" fill="#6596E1"/>
<path d="M94.9057 117.23C94.7856 117.23 94.6701 117.277 94.5849 117.363C94.4999 117.448 94.4519 117.563 94.4519 117.683C94.4519 117.804 94.4999 117.919 94.5849 118.004C94.6701 118.089 94.7856 118.137 94.9057 118.137H106.268C106.388 118.137 106.504 118.089 106.589 118.004C106.674 117.919 106.722 117.804 106.722 117.683C106.722 117.563 106.674 117.448 106.589 117.363C106.504 117.277 106.388 117.23 106.268 117.23H94.9057Z" fill="#6596E1"/>
<path d="M89.1312 77.2208C89.2476 77.2147 89.3574 77.1642 89.4376 77.0797C89.5179 76.9951 89.5625 76.8831 89.5625 76.7665C89.5625 76.6497 89.5179 76.5377 89.4376 76.4532C89.3574 76.3686 89.2476 76.3181 89.1312 76.312H69.6062C69.5616 76.6132 69.5307 76.9171 69.5133 77.2208H89.1312Z" fill="#6596E1"/>
<path d="M125.956 87.1039H108.82C108.704 87.11 108.594 87.1605 108.514 87.245C108.433 87.3296 108.389 87.4416 108.389 87.5582C108.389 87.675 108.433 87.787 108.514 87.8716C108.594 87.9561 108.704 88.0066 108.82 88.0127H125.956C126.072 88.0066 126.182 87.9561 126.262 87.8716C126.342 87.787 126.387 87.675 126.387 87.5582C126.387 87.4416 126.342 87.3296 126.262 87.245C126.182 87.1605 126.072 87.11 125.956 87.1039Z" fill="#6596E1"/>
<path d="M103.299 87.1039H92.6443C93.2242 87.3379 93.7727 87.6432 94.2773 88.0127H103.299C103.408 87.9958 103.506 87.9405 103.578 87.8571C103.649 87.7739 103.688 87.668 103.688 87.5582C103.688 87.4486 103.649 87.3426 103.578 87.2592C103.506 87.176 103.408 87.1208 103.299 87.1039Z" fill="#6596E1"/>
<path d="M115.921 99.1826C116.038 99.1765 116.147 99.126 116.228 99.0415C116.308 98.9569 116.353 98.8449 116.353 98.7281C116.353 98.6115 116.308 98.4995 116.228 98.4149C116.147 98.3304 116.038 98.2799 115.921 98.2738H92.6912C92.0698 98.6375 91.4156 98.9418 90.7369 99.1826H115.921Z" fill="#6596E1"/>
<path d="M92.644 87.104C90.3985 86.2148 88.0213 86.0263 81.7532 85.0877C76.5948 84.3151 75.6648 84.2197 73.9015 83.7758C71.1735 83.0925 69.3011 80.7365 69.513 77.2212C69.7872 72.6839 72.8078 69.1537 76.2253 66.1665C81.4556 61.5958 90.1753 56.2552 90.7853 49.3584C90.8875 48.3285 90.7333 47.2896 90.3364 46.3339C89.9397 45.3784 89.3127 44.5357 88.5112 43.8812C86.4577 42.2444 83.8612 42.9624 81.7061 44.0288C73.5358 48.3274 65.7222 53.2716 58.3395 58.8146C57.9084 57.0128 57.0618 55.3367 55.8672 53.9207C54.6727 52.5046 53.1633 51.3877 51.46 50.659C45.2363 47.9051 38.1757 50.411 33.6497 55.3426C31.6037 51.6585 27.0022 50.2994 22.9932 50.8624C17.8683 51.5829 14.0814 55.5906 11.8221 60.0037C9.21407 65.5681 7.59844 71.5456 7.04811 77.6662C6.60047 82.4179 6.78523 82.9461 6.65503 114.647C6.65665 114.527 6.70497 114.412 6.78974 114.328C6.87451 114.243 6.98902 114.195 7.10887 114.193C11.7452 114.159 -7.66201 114.193 56.3889 114.193C58.3571 112.904 60.5546 112.006 62.8617 111.547C64.992 107.052 66.5271 103.513 67.6109 100.851C73.2281 101.136 78.8586 100.999 84.455 100.44C86.5912 100.27 88.6997 99.8489 90.7369 99.1852C97.2333 96.9681 98.5948 89.4575 92.644 87.104ZM48.6328 72.0887C48.4145 72.6244 47.5366 72.3901 47.756 71.8481C49.4137 67.7428 52.0349 64.0968 55.3982 61.2177C55.8408 60.8457 56.4869 61.4806 56.0405 61.86C52.7868 64.6261 50.2459 68.1344 48.6328 72.0887ZM24.9785 67.1981C26.4557 63.8488 28.5033 60.7815 31.0297 58.1326C31.434 57.7072 32.0749 58.3508 31.6721 58.7749C29.2036 61.371 27.2042 64.3759 25.7633 67.6558C25.5291 68.1915 24.7454 67.7277 24.9785 67.1981Z" fill="#FFD7D7"/>
<path d="M178.903 191.172C175.506 187.324 171.575 183.984 167.229 181.252C160.146 177.019 153.798 176.967 145.745 178.05C140.643 178.736 132.557 180.254 132.21 180.406C132.275 180.394 132.342 180.395 132.407 180.411C132.471 180.427 132.531 180.457 132.582 180.499C132.634 180.541 132.676 180.593 132.705 180.653C132.734 180.712 132.749 180.778 132.751 180.844C132.751 181.517 132.94 205.162 132.751 224.562C132.749 224.654 132.72 224.745 132.666 224.821C132.612 224.896 132.537 224.954 132.449 224.986C139.275 223.379 146.008 221.398 152.615 219.05C161.307 215.986 164.254 214.627 167.22 213.494C168.508 213.015 169.719 212.35 170.816 211.523C171.25 211.21 171.616 210.814 171.893 210.356C172.17 209.898 172.351 209.39 172.426 208.86C172.501 208.331 172.468 207.792 172.33 207.275C172.191 206.759 171.95 206.276 171.62 205.855C173.204 205.917 174.775 205.537 176.156 204.757C177.078 204.177 177.754 203.278 178.056 202.232C178.358 201.185 178.265 200.064 177.794 199.082C178.606 198.907 179.34 198.473 179.886 197.846C180.432 197.22 180.76 196.433 180.822 195.604C180.757 193.939 180.072 192.359 178.903 191.172ZM154.445 203.54C158.743 203.84 163.027 204.295 167.297 204.904C167.413 204.936 167.512 205.013 167.571 205.118C167.631 205.223 167.646 205.347 167.614 205.463C167.58 205.577 167.502 205.674 167.398 205.733C167.294 205.792 167.171 205.809 167.055 205.781C162.869 205.182 158.665 204.736 154.445 204.444C153.864 204.408 153.862 203.499 154.445 203.54ZM158.72 190.018C158.198 189.752 158.659 188.969 159.179 189.233L174.327 196.912C174.849 197.176 174.389 197.96 173.868 197.696L158.72 190.018Z" fill="#FFD7D7"/>
<path d="M132.751 180.844C132.75 180.784 132.737 180.725 132.714 180.671C132.69 180.616 132.656 180.566 132.613 180.525C132.57 180.483 132.519 180.451 132.464 180.429C132.408 180.407 132.349 180.397 132.289 180.398C130.733 180.424 107.688 186.278 96.2463 188.636C95.1898 183.895 93.6813 179.266 91.7415 174.813C89.8817 170.421 87.3431 166.349 84.2183 162.746C73.8023 150.905 56.523 148.495 40.9957 153.492C43.6831 148.625 46.3412 143.741 48.97 138.84C48.2662 137.101 47.9221 135.238 47.9591 133.362C47.9958 131.487 48.4129 129.638 49.1847 127.928C49.707 126.825 50.5218 125.886 51.5404 125.213C51.6586 124.851 51.806 124.5 51.9821 124.164C50.6961 122.744 51.3497 120.274 52.261 118.556C53.255 116.78 54.6781 115.281 56.4001 114.195H7.11383C6.99387 114.197 6.87918 114.245 6.79434 114.33C6.7095 114.414 6.66128 114.529 6.65999 114.649C6.58435 122.576 6.19995 228.239 6.19995 228.794C6.20124 228.913 6.24946 229.028 6.3343 229.114C6.41914 229.197 6.53383 229.247 6.65379 229.247H97.588C97.7081 229.247 97.8229 229.197 97.9079 229.114C97.9929 229.028 98.0413 228.913 98.0431 228.794C98.0431 228.597 98.0431 228.401 98.0431 228.203C109.595 228.8 121.171 227.723 132.413 224.999L132.445 224.986C132.533 224.954 132.608 224.896 132.662 224.821C132.716 224.745 132.746 224.654 132.747 224.561C132.752 224.44 132.756 181.437 132.751 180.844ZM103.068 223.2H109.322C109.439 223.206 109.548 223.257 109.628 223.341C109.709 223.426 109.753 223.538 109.753 223.654C109.753 223.771 109.709 223.883 109.628 223.968C109.548 224.052 109.439 224.103 109.322 224.109H103.068C102.951 224.103 102.841 224.052 102.761 223.968C102.681 223.883 102.636 223.771 102.636 223.654C102.636 223.538 102.681 223.426 102.761 223.341C102.841 223.257 102.951 223.206 103.068 223.2ZM95.7787 188.728C96.3504 188.613 96.5935 189.489 96.0269 189.605C83.6826 192.085 78.1436 192.705 66.3413 188.445C53.2257 183.712 42.9177 178.338 30.8401 173.813C30.297 173.609 30.5337 172.731 31.0879 172.936C44.155 177.836 63.6877 187.613 74.4881 189.932C81.628 191.456 88.6004 190.177 95.7787 188.728ZM28.8101 127.293C28.9341 127.864 28.0661 128.104 27.9335 127.535C27.6233 126.194 27.7421 124.79 28.2729 123.52C28.8038 122.25 29.7198 121.179 30.8922 120.457C31.865 119.995 32.9332 119.768 34.0102 119.794C35.0872 119.821 36.143 120.1 37.0922 120.61C38.4731 121.492 39.6171 122.698 40.424 124.124C41.9492 126.372 45.4002 132.556 46.7157 134.938C46.7766 135.042 46.7937 135.166 46.7631 135.282C46.7326 135.399 46.6571 135.498 46.5532 135.559C46.5018 135.589 46.4449 135.609 46.3859 135.617C46.3268 135.625 46.2666 135.622 46.2091 135.607C46.0926 135.576 45.9929 135.501 45.932 135.397C42.759 130.092 39.4407 122.925 36.7127 121.446C35.8729 120.961 34.9242 120.698 33.9552 120.681C32.986 120.664 32.0285 120.893 31.1724 121.348C30.2185 121.979 29.4811 122.887 29.0588 123.95C28.6365 125.013 28.5497 126.18 28.8101 127.293ZM10.3577 120.008C10.3638 119.892 10.4143 119.782 10.4989 119.702C10.5834 119.622 10.6955 119.577 10.8121 119.577C10.9287 119.577 11.0408 119.622 11.1254 119.702C11.21 119.782 11.2605 119.892 11.2666 120.008V127.38C11.2605 127.497 11.21 127.606 11.1254 127.686C11.0408 127.767 10.9287 127.812 10.8121 127.812C10.6955 127.812 10.5834 127.767 10.4989 127.686C10.4143 127.606 10.3638 127.497 10.3577 127.38V120.008ZM97.5979 228.174C76.7411 226.762 63.674 219.775 46.8397 208.378C34.0603 199.727 29.7861 196.017 21.0105 189.996C20.5319 189.668 20.987 188.88 21.4693 189.213C31.326 195.975 33.3485 198.166 48.9155 208.681C64.6808 219.332 78.0915 226.027 97.5979 227.263C98.1633 227.301 98.1895 228.214 97.5979 228.174Z" fill="#C0C195"/>
<path d="M51.2627 126.572C48.6675 129.202 48.4033 134.334 49.538 137.766C50.769 135.46 51.9903 133.149 53.2021 130.832C52.5514 130.338 52.0336 129.69 51.6952 128.947C51.3565 128.203 51.208 127.387 51.2627 126.572Z" fill="#C0C195"/>
<path d="M31.0298 58.1324C28.5034 60.7815 26.4558 63.8488 24.9786 67.1981C24.7455 67.7275 25.5292 68.1901 25.7637 67.6556C27.2045 64.3763 29.2039 61.3717 31.6721 58.776C32.0753 58.3506 31.4341 57.7072 31.0298 58.1324Z" fill="#FFBABA"/>
<path d="M55.3983 61.2177C52.035 64.0967 49.4138 67.7428 47.7563 71.8481C47.5367 72.3901 48.4146 72.6243 48.6328 72.0886C50.246 68.1344 52.7868 64.6261 56.0406 61.86C56.487 61.4805 55.8409 60.8393 55.3983 61.2177Z" fill="#FFBABA"/>
<path d="M74.823 110.883C74.8212 110.804 74.7988 110.727 74.7585 110.659C74.7179 110.591 74.6606 110.534 74.5919 110.495C74.5231 110.455 74.4453 110.434 74.3662 110.434C74.2868 110.433 74.2088 110.453 74.1396 110.491C71.5703 111.991 68.9713 110.885 64.8074 111.235C60.0954 111.636 54.5154 114.291 52.255 118.551C51.3473 120.26 50.6926 122.74 51.9758 124.159C54.3591 119.586 60.3682 119.17 64.1923 122.022C64.4926 122.223 64.7659 122.462 65.0058 122.732C67.5886 122.096 69.9608 120.799 71.8891 118.967C72.9447 117.92 73.7554 116.652 74.2627 115.254C74.77 113.857 74.9614 112.364 74.823 110.883Z" fill="black"/>
<path d="M56.5876 125.246C55.6587 125.023 54.6899 125.027 53.7631 125.258C52.8362 125.489 51.9786 125.939 51.263 126.572C50.8822 131.134 57.401 134.353 62.7082 131.814C61.8488 128.719 59.7049 125.91 56.5876 125.246Z" fill="#FFD7D7"/>
<path d="M66.386 125.309C65.1893 119.491 53.9959 117.709 51.5344 125.21C51.9109 124.96 52.3181 124.758 52.746 124.611C56.8962 123.144 61.7707 125.479 63.5167 131.332C64.512 130.699 65.3092 129.798 65.8167 128.733C66.3242 127.668 66.5215 126.482 66.386 125.309Z" fill="#FFD7D7"/>
<path d="M40.424 124.124C39.6141 122.699 38.4677 121.494 37.0845 120.615C36.1356 120.105 35.0798 119.825 34.0028 119.799C32.9258 119.772 31.8576 120 30.8845 120.462C29.7124 121.184 28.7964 122.255 28.2654 123.525C27.7345 124.795 27.6159 126.199 27.9259 127.54C28.0573 128.109 28.9328 127.869 28.8027 127.298C28.5414 126.183 28.6282 125.015 29.0514 123.951C29.4748 122.886 30.214 121.977 31.1697 121.346C32.026 120.892 32.9835 120.663 33.9528 120.68C34.9218 120.697 35.8705 120.96 36.7101 121.444C39.4381 122.925 42.6907 129.98 45.9296 135.396C45.9904 135.5 46.0901 135.575 46.2067 135.605C46.2641 135.621 46.3243 135.624 46.3834 135.616C46.4425 135.608 46.4993 135.588 46.5507 135.558C46.6023 135.528 46.6472 135.488 46.6833 135.44C46.7193 135.393 46.7457 135.339 46.7606 135.281C46.7757 135.223 46.7793 135.163 46.7712 135.104C46.7631 135.045 46.7435 134.988 46.7133 134.937C45.4063 132.556 41.9541 126.367 40.424 124.124Z" fill="black"/>
<path d="M84.5754 132.703C82.8047 122.962 72.7656 121.842 69.9136 127.926C69.0373 129.792 68.6238 131.842 68.7084 133.901C68.5681 133.827 68.9043 133.851 63.9964 133.851C63.6652 130.007 61.4916 126.032 57.8782 124.675C56.289 123.998 54.5004 123.958 52.8828 124.563C51.2649 125.168 49.9417 126.372 49.1869 127.926C47.7456 131.116 47.5623 134.733 48.6736 138.053C49.2699 139.898 50.4465 141.501 52.0279 142.623C57.2359 146.336 64.1526 142.831 64.0435 134.758C68.8795 134.758 68.5943 134.794 68.7555 134.676C68.8387 135.824 69.0567 136.957 69.4052 138.053C70.686 142.085 74.8612 144.919 78.9816 143.881C82.7736 142.917 85.6008 138.34 84.5754 132.703ZM60.6098 141.507C57.1552 144.863 51.6063 142.78 49.8218 138.55C48.2495 134.83 48.5322 128.201 52.0353 125.949C53.4083 125.144 55.0357 124.891 56.5886 125.24C62.8258 126.574 65.529 136.736 60.6098 141.514V141.507ZM81.339 141.507C77.867 144.878 72.287 142.764 70.551 138.55C69.4334 135.62 69.3365 132.398 70.2757 129.406C70.7007 128.011 71.5759 126.795 72.7643 125.949C74.1398 125.151 75.7646 124.898 77.3176 125.24C83.5944 126.604 86.2345 136.76 81.344 141.514L81.339 141.507Z" fill="black"/>
<path d="M158.72 190.018L173.868 197.696C174.389 197.96 174.849 197.176 174.327 196.912L159.179 189.233C158.66 188.969 158.199 189.752 158.72 190.018Z" fill="#FFBABA"/>
<path d="M154.444 204.449C158.66 204.743 162.864 205.188 167.055 205.785C167.171 205.814 167.294 205.797 167.398 205.738C167.502 205.679 167.58 205.582 167.614 205.468C167.646 205.352 167.631 205.227 167.571 205.123C167.512 205.018 167.413 204.941 167.297 204.909C163.03 204.299 158.745 203.844 154.444 203.545C153.862 203.499 153.864 204.408 154.444 204.449Z" fill="#FFBABA"/>
<path d="M139.362 147.364L130.908 154.556C130.463 154.936 131.108 155.575 131.552 155.198L140.005 148.006C140.451 147.628 139.805 146.987 139.362 147.364Z" fill="#6596E1"/>
<path d="M130.386 153.796C133.28 151.489 136.117 149.117 138.899 146.68C139.339 146.294 138.694 145.653 138.256 146.037C135.472 148.473 132.635 150.845 129.744 153.154C129.286 153.518 129.934 154.158 130.386 153.796Z" fill="#6596E1"/>
<path d="M103.068 224.11H109.322C109.439 224.104 109.548 224.054 109.628 223.969C109.709 223.885 109.753 223.772 109.753 223.656C109.753 223.539 109.709 223.427 109.628 223.343C109.548 223.258 109.439 223.207 109.322 223.201H103.068C102.951 223.207 102.841 223.258 102.761 223.343C102.681 223.427 102.636 223.539 102.636 223.656C102.636 223.772 102.681 223.885 102.761 223.969C102.841 224.054 102.951 224.104 103.068 224.11Z" fill="#B0B04C"/>
<path d="M10.3577 120.008V127.38C10.3638 127.497 10.4143 127.606 10.4988 127.686C10.5834 127.767 10.6955 127.812 10.8121 127.812C10.9287 127.812 11.0408 127.767 11.1254 127.686C11.21 127.606 11.2605 127.497 11.2666 127.38V120.008C11.2605 119.892 11.21 119.782 11.1254 119.702C11.0408 119.622 10.9287 119.577 10.8121 119.577C10.6955 119.577 10.5834 119.622 10.4988 119.702C10.4143 119.782 10.3638 119.892 10.3577 120.008Z" fill="#B0B04C"/>
<path d="M63.6963 217.698C48.0585 209.286 31.8035 196.303 21.4693 189.213C20.987 188.881 20.5319 189.668 21.0105 189.997C29.3508 195.718 34.4433 199.982 46.8397 208.378C63.798 219.864 76.8552 226.769 97.5979 228.174C98.1895 228.214 98.1647 227.306 97.5979 227.265C85.7342 226.591 74.1623 223.325 63.6963 217.698Z" fill="#B0B04C"/>
<path d="M74.473 189.922C63.5921 187.585 44.3324 177.894 31.073 172.927C30.5249 172.721 30.2882 173.599 30.825 173.803C42.9585 178.353 53.2108 183.706 66.3262 188.435C78.1459 192.702 83.6864 192.071 96.012 189.595C96.5849 189.479 96.3416 188.603 95.7638 188.718C88.5508 190.187 81.5919 191.456 74.473 189.922Z" fill="#B0B04C"/>
<path d="M214.526 228.354V189.988C214.58 187.958 215.422 186.029 216.874 184.609C218.326 183.19 220.273 182.391 222.304 182.383C224.334 182.375 226.289 183.158 227.752 184.566C229.215 185.973 230.072 187.895 230.142 189.925C230.142 190.346 230.135 190.767 230.142 191.187C230.149 191.303 230.2 191.413 230.284 191.493C230.369 191.574 230.48 191.618 230.597 191.618C230.714 191.618 230.825 191.574 230.911 191.493C230.994 191.413 231.046 191.303 231.053 191.187C231.134 189.828 230.976 188.464 230.586 187.159C229.916 185.202 228.573 183.546 226.796 182.488C225.019 181.43 222.923 181.038 220.883 181.383C218.843 181.727 216.993 182.786 215.662 184.369C214.331 185.953 213.606 187.958 213.617 190.026C213.617 190.844 213.617 228.313 213.617 228.354C213.623 228.469 213.674 228.579 213.758 228.661C213.843 228.739 213.955 228.785 214.072 228.785C214.188 228.785 214.3 228.739 214.385 228.661C214.47 228.579 214.52 228.469 214.526 228.354Z" fill="#FFC431"/>
<path d="M229.558 180.048C227.678 178.843 225.529 178.123 223.303 177.951C221.076 177.78 218.842 178.162 216.8 179.065C214.788 180.019 213.088 181.526 211.9 183.409C210.712 185.293 210.084 187.477 210.091 189.704C210.083 191.044 210.061 222.852 210.091 227.63C210.109 229.578 209.499 231.479 208.35 233.05C207.2 234.622 205.574 235.78 203.713 236.353C201.623 236.867 197.456 236.601 119.621 236.714C119.562 236.716 119.503 236.727 119.448 236.752C119.393 236.777 119.344 236.813 119.303 236.856C119.263 236.901 119.231 236.95 119.21 237.007C119.189 237.063 119.18 237.124 119.183 237.183C119.187 237.298 119.234 237.408 119.316 237.489C119.397 237.57 119.506 237.618 119.621 237.622H200.932C202.22 237.656 203.502 237.437 204.705 236.975C205.907 236.513 207.007 235.821 207.942 234.933C208.877 234.047 209.627 232.985 210.151 231.808C210.675 230.631 210.962 229.362 210.996 228.074C210.996 227.989 210.996 191.936 210.996 191.936C210.881 190.127 211.035 188.312 211.453 186.548C215.067 174.944 234.484 176.349 233.668 191.178C233.672 191.295 233.724 191.404 233.808 191.485C233.893 191.565 234.004 191.609 234.121 191.609C234.238 191.609 234.351 191.565 234.434 191.485C234.52 191.404 234.57 191.295 234.576 191.178C234.784 186.564 233.316 182.686 229.558 180.048Z" fill="#FFC431"/>
<path d="M233.625 179.04C231.923 177.356 229.862 176.076 227.599 175.293C225.333 174.511 222.922 174.248 220.542 174.521C218.162 174.795 215.874 175.599 213.846 176.875C211.819 178.15 210.103 179.865 208.826 181.892C207.146 184.623 206.294 187.784 206.373 190.99C206.373 190.99 206.363 226.814 206.373 227.434C206.393 228.124 206.26 228.809 205.984 229.443C205.709 230.074 205.297 230.64 204.779 231.095C203.607 231.95 202.154 232.324 200.715 232.144H119.752C119.635 232.151 119.526 232.2 119.445 232.286C119.365 232.369 119.32 232.482 119.32 232.599C119.32 232.714 119.365 232.827 119.445 232.913C119.526 232.996 119.635 233.048 119.752 233.052C119.752 233.052 200.669 233.041 201.662 233.052C203.113 233.082 204.517 232.538 205.568 231.537C206.62 230.536 207.233 229.161 207.275 227.709C207.275 227.691 207.275 191.891 207.275 190.448C207.272 188.426 207.676 186.425 208.461 184.562C209.246 182.699 210.398 181.013 211.847 179.603C213.296 178.193 215.013 177.089 216.897 176.355C218.781 175.621 220.793 175.273 222.813 175.331C224.834 175.389 226.823 175.853 228.66 176.693C230.5 177.534 232.151 178.736 233.517 180.226C234.881 181.717 235.934 183.466 236.612 185.371C237.289 187.276 237.577 189.298 237.458 191.316C237.464 191.432 237.514 191.542 237.6 191.622C237.683 191.702 237.796 191.747 237.911 191.747C238.028 191.747 238.141 191.702 238.224 191.622C238.31 191.542 238.36 191.432 238.366 191.316C238.486 189.051 238.125 186.787 237.307 184.672C236.491 182.556 235.235 180.637 233.625 179.04Z" fill="#FFC431"/>
<path d="M238.215 178.745C235.828 175.368 232.426 172.839 228.505 171.527C224.582 170.214 220.344 170.185 216.405 171.445C212.465 172.704 209.03 175.186 206.597 178.531C204.164 181.875 202.86 185.908 202.875 190.044C202.875 191.443 202.875 194.649 202.875 194.649C202.881 194.765 202.932 194.875 203.016 194.955C203.101 195.036 203.213 195.08 203.33 195.08C203.446 195.08 203.558 195.036 203.643 194.955C203.727 194.875 203.778 194.765 203.784 194.649C203.624 191.622 203.799 188.586 204.306 185.597C205.38 181.168 208.045 177.29 211.795 174.701C215.545 172.112 220.117 170.994 224.639 171.559C229.161 172.125 233.316 174.335 236.312 177.768C239.309 181.201 240.936 185.617 240.887 190.174V191.116C240.891 191.233 240.943 191.342 241.027 191.423C241.112 191.503 241.223 191.548 241.34 191.548C241.457 191.548 241.57 191.503 241.653 191.423C241.739 191.342 241.789 191.233 241.795 191.116C242.03 186.707 240.767 182.348 238.215 178.745Z" fill="#FFC431"/>
<path d="M187.449 139.861C186.259 137.688 176.871 121.686 176.413 120.91C176.372 120.843 176.315 120.787 176.246 120.749C176.177 120.71 176.1 120.69 176.021 120.69C175.942 120.69 175.865 120.71 175.796 120.749C175.727 120.787 175.67 120.843 175.629 120.91C174.364 123.04 165.038 139.077 164.593 139.861C164.554 139.93 164.534 140.008 164.534 140.087C164.534 140.167 164.555 140.245 164.595 140.314C164.634 140.382 164.691 140.44 164.759 140.48C164.828 140.521 164.905 140.543 164.985 140.544H173.655V136.762C173.661 136.645 173.711 136.536 173.796 136.456C173.88 136.375 173.993 136.331 174.109 136.331C174.226 136.331 174.338 136.375 174.422 136.456C174.507 136.536 174.557 136.645 174.563 136.762V140.544H187.065C187.143 140.538 187.218 140.514 187.283 140.472C187.349 140.431 187.403 140.373 187.441 140.306C187.479 140.238 187.5 140.162 187.501 140.084C187.503 140.007 187.485 139.93 187.449 139.861Z" fill="#FFC431"/>
<path d="M164.781 104.934H156.839C156.719 104.935 156.604 104.983 156.52 105.068C156.435 105.153 156.387 105.268 156.385 105.388V113.336C156.386 113.456 156.434 113.571 156.519 113.656C156.604 113.741 156.719 113.79 156.839 113.791C162.254 113.829 164.052 113.842 164.684 113.8C164.98 113.781 165.218 113.748 165.251 113.238C165.292 112.629 165.275 110.872 165.236 105.394C165.237 105.273 165.189 105.156 165.104 105.07C165.018 104.984 164.902 104.935 164.781 104.934Z" fill="#D5E04F"/>
<path d="M196.33 96.6828C194.492 96.0092 192.491 95.9197 190.601 96.4267C188.71 96.9335 187.022 98.0123 185.768 99.5152C184.513 101.018 183.754 102.872 183.593 104.823C183.432 106.774 183.879 108.727 184.87 110.414C185.862 112.102 187.351 113.442 189.133 114.252C190.916 115.061 192.904 115.3 194.828 114.936C196.751 114.572 198.515 113.623 199.878 112.218C201.242 110.813 202.138 109.021 202.443 107.088C202.79 104.914 202.37 102.686 201.254 100.788C200.139 98.8898 198.398 97.4386 196.33 96.6828Z" fill="#FFE660"/>
<path d="M186.157 168.49C188.562 167.458 191.305 168.634 193.71 167.535C194.211 167.311 194.657 166.981 195.017 166.567C195.377 166.152 195.642 165.664 195.794 165.137C195.89 164.574 195.827 163.996 195.614 163.467C195.4 162.937 195.043 162.478 194.583 162.14C191.449 159.774 185.705 162.48 185.028 159.419C184.913 158.919 184.923 158.399 185.056 157.904C185.19 157.408 185.443 156.953 185.793 156.578C186.638 155.847 187.707 155.425 188.823 155.383C190.792 155.297 192.765 155.407 194.712 155.71C195.291 155.782 195.286 154.873 194.712 154.803C193.357 154.635 191.997 154.493 190.631 154.431C189.461 154.358 188.287 154.471 187.152 154.764C186.074 155.067 185.147 155.758 184.548 156.704C184.053 157.64 183.921 158.725 184.176 159.753C184.822 162.387 188.283 161.934 190.326 161.925C191.481 161.849 192.635 162.084 193.668 162.605C194.17 162.84 194.563 163.258 194.765 163.775C194.968 164.291 194.964 164.865 194.754 165.379C193.491 167.88 190.051 167.032 187.828 167.182C186.676 167.244 185.572 167.666 184.673 168.389C184.328 168.725 184.053 169.125 183.862 169.567C183.672 170.009 183.571 170.484 183.565 170.966C183.558 171.447 183.647 171.924 183.825 172.371C184.003 172.818 184.268 173.225 184.604 173.57C185.583 174.422 186.843 174.881 188.141 174.858C189.227 174.851 190.312 174.906 191.39 175.025C192.338 175.13 193.217 175.57 193.87 176.265C194.986 177.847 193.604 179.837 191.53 180.076C189.039 180.386 186.521 180.415 184.023 180.166C183.443 180.104 183.447 181.014 184.023 181.075C186.886 181.38 189.776 181.276 192.609 180.766C194.646 180.075 195.935 177.719 194.691 175.857C194.098 175.088 193.263 174.542 192.32 174.309C191.301 174.048 190.249 173.937 189.198 173.982C188.066 174.05 186.933 173.854 185.89 173.409C185.437 173.162 185.063 172.793 184.812 172.342C184.561 171.892 184.442 171.38 184.47 170.865C184.498 170.35 184.672 169.854 184.97 169.433C185.269 169.013 185.681 168.686 186.157 168.49Z" fill="#D5E04F"/>
<path d="M160.84 76.2798C160.802 76.3492 160.782 76.4275 160.782 76.507C160.782 76.5864 160.803 76.6644 160.843 76.7334C160.883 76.8024 160.939 76.8599 161.008 76.9002C161.076 76.9408 161.154 76.9629 161.234 76.9643H171.817C171.879 76.9611 171.939 76.9458 171.995 76.9189C172.051 76.8923 172.101 76.8549 172.142 76.8087C172.183 76.7625 172.215 76.7088 172.235 76.6502C172.255 76.5918 172.263 76.53 172.26 76.4683C172.242 76.1186 167.013 67.3567 166.918 67.1955C166.877 67.1281 166.819 67.0722 166.75 67.0334C166.682 66.9947 166.604 66.9744 166.525 66.9744C166.446 66.9744 166.369 66.9947 166.3 67.0334C166.231 67.0722 166.174 67.1281 166.133 67.1955C164.564 69.8367 161.057 75.9028 160.84 76.2798Z" fill="#DDDDBF"/>
<path d="M182.512 37.3463C181.907 35.422 180.704 33.7406 179.079 32.5461C177.453 31.3517 175.49 30.7064 173.472 30.7035H171.26C171.14 30.7051 171.026 30.7535 170.941 30.8381C170.856 30.9229 170.807 31.0374 170.805 31.1573V39.184C170.806 39.3044 170.854 39.4196 170.939 39.5046C171.025 39.5898 171.14 39.638 171.26 39.6389C171.625 39.6301 171.987 39.696 172.325 39.8321C172.663 39.9683 172.97 40.1719 173.226 40.431C173.483 40.6898 173.684 40.9984 173.817 41.3377C173.95 41.677 174.013 42.0398 174.001 42.4041V47.2153C174.002 47.3353 174.05 47.4498 174.135 47.5346C174.22 47.6193 174.335 47.6676 174.454 47.6692H182.486C182.606 47.668 182.721 47.6198 182.806 47.535C182.891 47.4503 182.939 47.3355 182.941 47.2153C182.994 39.7505 183.043 39.1368 182.512 37.3463Z" fill="#DCEFFF"/>
<path d="M159.185 46.4108C158.327 44.8445 151.539 33.2753 151.206 32.7137C151.165 32.6461 151.107 32.5904 151.038 32.5516C150.97 32.5128 150.892 32.4926 150.813 32.4926C150.734 32.4926 150.657 32.5128 150.588 32.5516C150.519 32.5904 150.462 32.6461 150.421 32.7137C149.509 34.2475 142.766 45.844 142.441 46.4108C142.403 46.48 142.382 46.558 142.383 46.6373C142.383 46.7167 142.404 46.7947 142.443 46.8635C142.483 46.9322 142.54 46.9897 142.608 47.0301C142.676 47.0704 142.754 47.0925 142.833 47.0939H158.793C158.871 47.0896 158.947 47.0657 159.014 47.0247C159.08 46.9834 159.135 46.9264 159.174 46.8585C159.213 46.7907 159.235 46.7142 159.237 46.636C159.238 46.5578 159.221 46.4804 159.185 46.4108Z" fill="#78B5FF"/>
<path d="M143.814 27.1249C143.03 25.1968 143.948 23.0205 143.06 21.0998C142.877 20.6965 142.61 20.3366 142.278 20.0442C141.945 19.7518 141.554 19.5334 141.131 19.4035C140.681 19.3124 140.215 19.346 139.784 19.5008C139.352 19.6555 138.971 19.9255 138.682 20.2814C136.884 22.4539 138.301 25.6443 137.288 27.5167C137.041 27.7338 136.749 27.893 136.433 27.9834C136.117 28.0738 135.785 28.0928 135.461 28.0393C135.137 27.9857 134.829 27.8605 134.559 27.6734C134.289 27.4861 134.064 27.2412 133.9 26.9562C133.424 26.0434 133.215 25.0144 133.298 23.9877C133.335 22.7693 133.436 21.5536 133.603 20.3459C133.681 19.7681 132.765 19.7718 132.695 20.3459C132.558 21.452 132.447 22.563 132.393 23.6766C132.308 25.6432 132.618 27.5206 134.265 28.5682C135.016 28.9628 135.883 29.0766 136.711 28.8895C138.819 28.4233 138.608 25.813 138.582 24.1638C138.5 23.2184 138.65 22.2672 139.021 21.3937C139.177 20.9766 139.489 20.6369 139.892 20.4474C140.295 20.2578 140.756 20.2334 141.176 20.3794C143.196 21.3143 142.478 24.1949 142.614 25.9234C142.804 28.3624 144.526 29.8752 146.69 29.2144C147.185 29.0688 147.633 28.7921 147.984 28.4134C149.886 26.0202 148.055 22.9486 149.925 21.1928C150.095 21.0532 150.291 20.9485 150.501 20.8848C150.712 20.8211 150.933 20.7996 151.152 20.8216C151.371 20.8436 151.583 20.9087 151.777 21.013C151.971 21.1174 152.142 21.259 152.281 21.4297C152.735 21.9741 152.991 22.6564 153.007 23.3652C153.21 25.2092 153.213 27.0699 153.015 28.9143C152.953 29.4958 153.863 29.4908 153.924 28.9143C154.173 26.5991 154.084 24.26 153.659 21.9703C153.546 21.5691 153.344 21.1983 153.069 20.885C152.794 20.5717 152.453 20.3237 152.07 20.1593C151.687 19.9948 151.272 19.918 150.855 19.9344C150.438 19.9508 150.031 20.06 149.662 20.2541C149.027 20.7144 148.568 21.3776 148.361 22.134C147.714 24.49 148.454 25.3034 147.648 27.3109C147.463 27.6709 147.178 27.9701 146.828 28.1726C146.477 28.375 146.075 28.4724 145.671 28.4528C145.267 28.4332 144.876 28.2975 144.547 28.0621C144.218 27.8265 143.963 27.5012 143.814 27.1249Z" fill="#6596E1"/>
<path d="M173.647 159.099C173.653 159.216 173.704 159.326 173.788 159.406C173.873 159.486 173.985 159.531 174.101 159.531C174.218 159.531 174.33 159.486 174.415 159.406C174.499 159.326 174.55 159.216 174.556 159.099V136.762C174.55 136.646 174.499 136.536 174.415 136.456C174.33 136.375 174.218 136.331 174.101 136.331C173.985 136.331 173.873 136.375 173.788 136.456C173.704 136.536 173.653 136.646 173.647 136.762V159.099Z" fill="black"/>
<path d="M168.063 94.9903V114.647C168.063 114.767 168.111 114.882 168.196 114.968C168.282 115.053 168.397 115.101 168.517 115.101C168.637 115.101 168.753 115.053 168.838 114.968C168.923 114.882 168.971 114.767 168.971 114.647V94.9903C168.971 94.8699 168.923 94.7545 168.838 94.6693C168.753 94.5843 168.637 94.5365 168.517 94.5365C168.397 94.5365 168.282 94.5843 168.196 94.6693C168.111 94.7545 168.063 94.8699 168.063 94.9903Z" fill="black"/>
<path d="M175.212 66.397V94.545C175.218 94.6613 175.269 94.7711 175.353 94.8514C175.438 94.9316 175.55 94.9763 175.667 94.9763C175.783 94.9763 175.895 94.9316 175.98 94.8514C176.064 94.7711 176.115 94.6613 176.121 94.545V66.397C176.115 66.2807 176.064 66.1709 175.98 66.0906C175.895 66.0103 175.783 65.9657 175.667 65.9657C175.55 65.9657 175.438 66.0103 175.353 66.0906C175.269 66.1709 175.218 66.2807 175.212 66.397Z" fill="black"/>
<path d="M180.125 59.4729V80.9175C180.131 81.034 180.181 81.1436 180.266 81.2239C180.351 81.3041 180.463 81.3488 180.579 81.3488C180.696 81.3488 180.808 81.3041 180.893 81.2239C180.977 81.1436 181.028 81.034 181.034 80.9175V59.4729C181.028 59.3566 180.977 59.2468 180.893 59.1665C180.808 59.0865 180.696 59.0416 180.579 59.0416C180.463 59.0416 180.351 59.0865 180.266 59.1665C180.181 59.2468 180.131 59.3566 180.125 59.4729Z" fill="black"/>
<path d="M114.856 179.707C114.313 179.91 114.549 180.79 115.098 180.582C121.286 178.259 127.73 176.685 134.292 175.894C134.866 175.825 134.872 174.916 134.292 174.985C127.647 175.773 121.122 177.358 114.856 179.707Z" fill="black"/>
<path d="M133.219 170.996C126.495 172.076 119.915 173.915 113.604 176.475C113.068 176.693 113.302 177.572 113.852 177.352C120.163 174.791 126.743 172.953 133.467 171.873C134.037 171.782 133.796 170.907 133.219 170.996Z" fill="black"/>
<path d="M11.0583 34.8702C13.1986 37.9702 18.3743 45.4821 18.3743 45.4821C18.7042 45.9607 19.4903 45.5056 19.158 45.0233L11.842 34.4114C11.5134 33.9327 10.726 34.3866 11.0583 34.8702Z" fill="black"/>
<path d="M24.3249 44.6463C24.4489 45.2178 25.3282 44.9761 25.2004 44.4057C24.8099 42.6424 21.7284 28.742 21.7284 28.742C21.6044 28.1703 20.7253 28.4122 20.8518 28.99C21.4519 31.7255 23.5908 41.3479 24.3249 44.6463Z" fill="black"/>
<path d="M203.236 196.24H180.719C181.154 194.459 180.151 192.669 178.903 191.172C174.974 186.649 170.254 182.879 164.973 180.047C157.914 169.977 142.554 149.767 141.849 148.858C141.794 148.781 141.712 148.728 141.62 148.71C141.527 148.693 141.431 148.712 141.353 148.764C141.092 148.942 132.64 155.931 132.499 156.049C132.416 156.136 132.37 156.251 132.37 156.37C132.37 156.49 132.416 156.605 132.499 156.691C138.297 162.954 137.552 162.623 151.719 177.486C137.842 178.042 114.008 184.977 96.2512 188.636C95.2117 183.891 93.7032 179.26 91.7476 174.813C89.8876 170.421 87.3489 166.349 84.2244 162.746C73.5529 150.779 56.2092 148.598 41.0018 153.492C43.6892 148.625 46.3475 143.741 48.9763 138.84C50.8251 143.22 55.9203 145.412 59.8139 143.242C62.8271 141.555 64.0919 138.083 64.0473 134.759C68.8833 134.759 68.5981 134.794 68.7593 134.676C68.8418 135.823 69.0598 136.957 69.4088 138.053C69.9853 140.047 71.2891 141.752 73.0623 142.831C74.8358 143.911 76.9494 144.285 78.9855 143.881C83.5338 142.648 85.4445 137.433 84.584 132.708C82.8207 123.004 72.778 121.82 69.9224 127.929C69.0459 129.795 68.6324 131.845 68.7172 133.905C68.5783 133.832 68.9131 133.854 64.0051 133.854C63.9377 133 63.7777 132.156 63.5276 131.336C66.4824 129.38 67.5874 125.33 65.0156 122.738C68.9836 121.583 72.3454 119.624 74.0392 115.82C74.0392 115.82 97.4973 115.827 99.707 115.82C102.77 115.817 105.793 115.129 108.555 113.806C111.317 112.484 113.748 110.56 115.671 108.176L142.524 77.2247H144.551C144.667 77.2186 144.777 77.1681 144.857 77.0835C144.937 76.999 144.982 76.8867 144.982 76.7701C144.982 76.6536 144.937 76.5415 144.857 76.457C144.777 76.3724 144.667 76.3217 144.551 76.3156H143.311C146.458 72.6887 146.287 72.9491 146.365 72.5956C146.386 72.2112 146.386 71.8257 146.365 71.4413C146.365 68.7913 146.383 67.5538 146.365 66.9475C146.341 66.1203 146.181 66.2035 145.709 66.1911C143.536 66.1316 132.355 66.1675 76.2365 66.1675C77.3264 65.214 78.5168 64.2493 79.5944 63.3962H146.246C146.365 63.3942 146.48 63.3457 146.565 63.2607C146.65 63.1757 146.698 63.0612 146.699 62.941V47.0938H158.803C158.865 47.0906 158.925 47.0753 158.981 47.0487C159.037 47.0219 159.087 46.9844 159.128 46.9384C159.17 46.8922 159.201 46.8384 159.222 46.78C159.242 46.7216 159.251 46.6596 159.247 46.5978C159.237 46.4291 159.762 47.3864 151.215 32.7098C151.175 32.6424 151.117 32.5865 151.048 32.5479C150.979 32.5091 150.902 32.4886 150.823 32.4886C150.744 32.4886 150.667 32.5091 150.598 32.5479C150.529 32.5865 150.471 32.6424 150.431 32.7098C149.533 34.2523 146.699 39.1145 146.699 39.1145V29.2143C147.197 29.0725 147.646 28.7952 147.995 28.4133C149.896 26.0201 148.065 22.9485 149.933 21.194C150.103 21.0543 150.299 20.9495 150.51 20.8857C150.72 20.8219 150.941 20.8003 151.16 20.8222C151.379 20.8441 151.592 20.909 151.785 21.0133C151.979 21.1175 152.15 21.259 152.289 21.4296C152.751 21.9703 153.008 22.6556 153.016 23.3665C153.219 25.21 153.222 27.0703 153.023 28.9143C152.961 29.4957 153.87 29.4907 153.932 28.9143C154.181 26.5991 154.092 24.26 153.668 21.9703C153.555 21.5691 153.353 21.1983 153.078 20.8849C152.803 20.5716 152.462 20.3237 152.078 20.1592C151.695 19.9948 151.28 19.9179 150.864 19.9343C150.447 19.9507 150.04 20.06 149.67 20.2541C149.035 20.7137 148.576 21.3771 148.37 22.1339C147.713 24.5271 148.48 25.2574 147.657 27.3108C147.449 27.7148 147.115 28.0393 146.704 28.2334V25.5723C146.816 23.5726 146.57 21.5687 145.978 19.6552C145.257 17.5054 144.009 15.5705 142.348 14.0268C140.687 12.4831 138.666 11.3799 136.469 10.8177C135.017 10.5197 133.538 10.3722 132.055 10.3775C125.685 10.2399 54.3268 10.2113 52.0069 10.437C48.6086 10.753 45.4505 12.325 43.1495 14.8456C40.8485 17.3662 39.5704 20.6542 39.5647 24.067V51.0011C37.3289 52.0459 35.3208 53.5206 33.6549 55.3411C31.6089 51.657 27.0072 50.2979 22.9983 50.8609C17.8733 51.5815 14.1174 55.6051 11.8271 60.0022C9.21845 65.5666 7.60277 71.5441 7.05307 77.6648C6.61287 82.76 6.21111 224.936 6.19995 228.793C6.20155 228.913 6.24989 229.028 6.33466 229.114C6.41941 229.197 6.53392 229.247 6.65379 229.247H97.588C97.7079 229.247 97.8227 229.197 97.9077 229.114C97.9924 229.028 98.0411 228.913 98.0432 228.793C98.0432 228.597 98.0432 228.401 98.0432 228.203C105.172 228.615 112.325 228.34 119.401 227.378C119.401 227.874 119.424 228.417 119.424 228.417C119.426 228.539 119.475 228.654 119.56 228.737C119.645 228.823 119.759 228.87 119.88 228.872H203.236C203.356 228.87 203.47 228.823 203.555 228.737C203.64 228.651 203.688 228.539 203.69 228.417V196.695C203.688 196.575 203.64 196.461 203.555 196.376C203.47 196.291 203.356 196.242 203.236 196.24ZM70.2746 129.412C70.6924 128.013 71.5689 126.796 72.7632 125.955C74.1364 125.151 75.7637 124.897 77.3164 125.246C83.5277 126.536 86.2756 136.736 81.339 141.514C77.9439 144.825 72.3553 142.833 70.551 138.556C69.4206 135.629 69.3229 132.403 70.2746 129.412ZM133.466 156.42L141.454 149.825C150.182 161.773 156.498 169.779 163.35 179.337C160.047 177.992 156.499 177.353 152.934 177.461C146.507 170.729 139.707 163.487 133.466 156.42ZM132.818 182.602C132.818 182.146 132.856 181.662 132.836 181.199C136.596 180.43 140.373 179.738 144.17 179.182C147.964 178.481 151.827 178.231 155.679 178.438C164.29 178.979 171.482 184.594 177.435 190.887C178.658 192.183 179.961 193.723 179.915 195.599C179.879 196.97 178.386 198.545 176.929 198.127C176.518 198.009 176.125 198.59 176.488 198.886C177.805 199.962 177.486 202.195 176.445 203.35C174.924 205.041 172.214 205.004 170.137 204.909C170.029 204.912 169.926 204.954 169.846 205.026C169.766 205.098 169.714 205.197 169.7 205.303C169.685 205.41 169.708 205.518 169.765 205.609C169.823 205.7 169.91 205.768 170.013 205.801C170.484 205.993 170.886 206.324 171.165 206.75C171.444 207.176 171.586 207.677 171.574 208.186C171.553 208.766 171.392 209.332 171.104 209.836C170.815 210.34 170.408 210.765 169.919 211.076C168.799 211.812 167.598 212.414 166.339 212.871C159.177 215.565 148.266 220.297 132.818 223.964V182.602ZM178.211 200.411C178.565 200.921 181.953 205.814 182.27 206.286C182.45 206.554 182.571 206.843 182.27 207.084C181.989 207.308 181.738 207.155 181.526 206.937C181.118 206.523 177.733 203.026 177.733 203.026C178.158 202.225 178.325 201.311 178.211 200.411ZM51.2629 126.57C51.2144 127.227 51.3017 127.886 51.519 128.507C51.7364 129.129 52.0793 129.698 52.5264 130.181C51.4261 132.287 50.3155 134.387 49.1946 136.482C48.5349 133.197 48.8832 128.983 51.2629 126.57ZM52.2847 125.816C55.8509 123.966 60.5007 125.668 62.4252 130.937C57.7231 133.279 51.0756 130.455 52.2847 125.816ZM60.61 141.514C57.2273 144.807 51.2442 142.977 49.538 137.766C50.7689 135.46 51.9902 133.149 53.202 130.832C54.5397 131.862 56.1372 132.499 57.8164 132.673C59.4954 132.846 61.1894 132.549 62.7092 131.814C63.6293 135.129 63.1793 139.026 60.61 141.514ZM65.2699 124.729C65.5849 125.777 65.5552 126.897 65.185 127.926C64.8148 128.956 64.124 129.839 63.214 130.445C61.2039 125.162 56.6544 123.263 52.7446 124.617C53.3923 123.381 54.4199 122.385 55.676 121.775C59.1195 120.333 63.7919 121.54 65.2699 124.729ZM71.8643 117.645C69.8521 119.901 67.1584 121.439 64.1923 122.025C60.3904 119.225 54.9779 119.734 52.4768 123.311C52.2157 122.786 52.1226 122.194 52.2103 121.614C52.7768 117.579 56.2775 114.779 60.0892 113.299C63.1216 112.128 66.4013 111.744 69.6223 112.183C71.0957 112.33 72.5835 112.131 73.966 111.6C74.028 113.804 73.2803 115.955 71.8643 117.645ZM145.452 72.4556C144.055 74.0676 116.899 105.366 114.814 107.768C112.97 110.005 110.654 111.805 108.032 113.039C105.41 114.274 102.547 114.912 99.6488 114.908C97.4852 114.908 74.4347 114.908 74.3925 114.908C74.8405 113.617 74.9902 112.241 74.8303 110.883C74.8288 110.823 74.8155 110.763 74.7909 110.708C74.7665 110.653 74.7314 110.603 74.6876 110.561C74.6439 110.52 74.5923 110.487 74.5359 110.465C74.4795 110.443 74.4193 110.433 74.3591 110.434C72.9054 111.192 71.2546 111.487 69.6284 111.28C67.3759 111.034 65.0991 111.124 62.8729 111.547C63.1457 110.97 63.4124 110.391 63.6814 109.811H99.0611C102.088 109.9 105.098 109.318 107.874 108.105C110.649 106.892 113.121 105.079 115.112 102.796C116.585 101.11 143.565 70.0016 145.446 67.834L145.452 72.4556ZM144.879 67.1137L114.808 101.765C112.964 104.002 110.648 105.802 108.026 107.036C105.404 108.27 102.541 108.908 99.6428 108.904C97.4764 108.904 64.098 108.904 64.098 108.904C65.3256 106.244 66.5111 103.563 67.6172 100.85C73.2321 101.175 78.864 101.038 84.4564 100.44C86.5921 100.271 88.7003 99.8497 90.7371 99.1851H115.921C116.038 99.179 116.147 99.1285 116.228 99.0439C116.308 98.9594 116.353 98.8471 116.353 98.7306C116.353 98.614 116.308 98.5019 116.228 98.4174C116.147 98.3328 116.038 98.2821 115.921 98.276H92.6913C96.586 96.0578 97.9787 90.6699 94.2772 88.0152H103.299C103.408 87.998 103.506 87.943 103.578 87.8596C103.649 87.7764 103.688 87.6702 103.688 87.5606C103.688 87.4511 103.649 87.3451 103.578 87.2617C103.506 87.1785 103.408 87.1232 103.299 87.1061H92.644C88.1292 85.3552 78.4264 84.951 73.9015 83.778C71.2404 83.1345 69.306 80.802 69.5119 77.2233H89.1312C89.2475 77.2172 89.3573 77.1667 89.4376 77.0822C89.5178 76.9976 89.5625 76.8856 89.5625 76.769C89.5625 76.6525 89.5178 76.5402 89.4376 76.4556C89.3573 76.3711 89.2475 76.3206 89.1312 76.3145H69.6072C70.179 72.6044 72.4755 69.6395 75.2184 67.0776C75.2184 67.0751 143.787 67.1396 144.873 67.1137H144.879ZM150.814 33.8519L158.006 46.1911H143.622C143.748 45.9728 150.689 34.0589 150.814 33.8519ZM40.4736 24.067C40.4781 22.3495 40.8275 20.6504 41.5012 19.0704C42.1751 17.4905 43.1592 16.062 44.3956 14.8697C45.632 13.6775 47.0952 12.7457 48.6986 12.1297C50.3018 11.5137 52.0125 11.2261 53.7292 11.2839H132.875C136.265 11.2512 139.53 12.5668 141.951 14.9413C144.372 17.3159 145.75 20.5548 145.783 23.9455C145.783 23.989 145.783 25.2042 145.783 28.4467C145.751 28.4467 145.721 28.4579 145.688 28.4566C145.28 28.4392 144.886 28.3037 144.554 28.067C144.222 27.83 143.966 27.502 143.817 27.1223C143.033 25.1943 143.975 23.0069 143.063 21.0973C142.882 20.6926 142.616 20.3315 142.283 20.0388C141.95 19.7461 141.558 19.5286 141.133 19.401C140.684 19.3096 140.218 19.3431 139.786 19.4978C139.354 19.6526 138.973 19.9227 138.684 20.2789C136.886 22.4526 138.303 25.6418 137.292 27.5142C137.045 27.7313 136.753 27.8907 136.437 27.9809C136.121 28.0713 135.789 28.0902 135.465 28.0368C135.141 27.9831 134.833 27.858 134.563 27.6709C134.293 27.4835 134.068 27.2387 133.904 26.9537C133.426 26.0411 133.217 25.0119 133.3 23.9851C133.331 22.7663 133.433 21.5504 133.605 20.3434C133.677 19.7643 132.768 19.7705 132.696 20.3434C132.307 22.3612 132.301 24.4343 132.68 26.4541C132.936 27.3282 133.501 28.0794 134.27 28.5682C135.02 28.9657 135.889 29.0795 136.716 28.8895C138.824 28.4406 138.613 25.8129 138.587 24.1637C138.505 23.2184 138.655 22.2672 139.026 21.3937C139.182 20.9765 139.494 20.6369 139.897 20.4473C140.3 20.2577 140.761 20.2334 141.181 20.3793C143.201 21.3143 142.483 24.1948 142.619 25.9234C142.766 27.8131 143.888 29.3954 145.786 29.3681V40.678C145.002 42.0235 142.775 45.8452 142.446 46.4107C142.407 46.4799 142.387 46.5579 142.388 46.6372C142.388 46.7166 142.409 46.7946 142.448 46.8634C142.488 46.9324 142.544 46.9896 142.613 47.03C142.681 47.0706 142.759 47.0924 142.838 47.0938H145.786V62.486H80.7303C83.3767 60.5627 85.7726 58.3167 87.8628 55.7999C89.4639 53.9979 90.4828 51.7535 90.7853 49.3619C90.8908 48.3318 90.7382 47.2917 90.3412 46.3356C89.9442 45.3794 89.3151 44.5371 88.5112 43.8847C86.4577 42.2479 83.8612 42.9659 81.706 44.0323C73.5367 48.3309 65.7231 53.2739 58.3395 58.8143C57.9005 57.016 57.051 55.3436 55.8574 53.9287C54.6639 52.5137 53.1588 51.3946 51.46 50.6589C49.7253 49.9122 47.8576 49.5233 45.969 49.5152C44.0806 49.5071 42.2098 49.88 40.4686 50.6118L40.4736 24.067ZM7.69663 81.4418C7.99175 71.5083 11.5121 55.5123 21.0167 52.2646C25.4993 50.7344 31.1562 51.9174 33.16 56.3566C33.1954 56.4163 33.2441 56.4671 33.3021 56.5052C33.3602 56.543 33.4261 56.5676 33.4948 56.5764C33.5636 56.5852 33.6335 56.5782 33.6993 56.5561C33.7649 56.534 33.8249 56.497 33.8743 56.4483C39.9169 49.4883 49.2938 48.2409 54.9543 54.2648C56.374 55.7724 57.2931 57.6818 57.5856 59.7319C57.6185 59.8482 57.696 59.9465 57.8013 60.0058C57.9066 60.0651 58.0308 60.0802 58.1474 60.0482C65.5723 54.481 73.4098 49.4863 81.592 45.1073C82.7172 44.4307 83.9694 43.9922 85.2709 43.8191C86.3146 43.7873 87.3354 44.1275 88.1513 44.779C88.9673 45.4304 89.525 46.3507 89.7252 47.3754C89.9234 48.536 89.8774 49.7253 89.5902 50.8672C89.3027 52.0091 88.7804 53.0785 88.0562 54.0069C83.5029 60.8404 74.7954 64.1997 70.4344 71.4672C68.5855 74.5487 67.6086 79.0908 69.9236 82.2106C71.3387 83.8539 73.3426 84.8759 75.5036 85.0565C88.0488 87.1868 93.9672 86.7082 95.3251 90.8299C95.5695 91.7942 95.5562 92.8058 95.2865 93.7633C95.0169 94.7211 94.5004 95.5909 93.7886 96.2859C92.0945 97.8423 89.9527 98.8248 87.668 99.0933C80.9372 100.084 74.1211 100.363 67.332 99.9266C66.6648 99.939 67.332 100.085 61.742 111.813C59.8442 112.311 58.0403 113.114 56.4015 114.193C56.4015 114.193 8.14923 114.142 7.57759 114.168C7.61851 102.142 7.65571 82.4933 7.69663 81.4418ZM96.5155 227.177C85.0283 226.372 73.8424 223.142 63.6951 217.698C48.0252 209.229 29.5368 194.758 21.4706 189.213C20.987 188.88 20.5319 189.668 21.0118 189.996C29.4053 195.755 34.3405 199.909 46.8397 208.378C63.5362 219.682 76.5898 226.656 97.1391 228.137V228.338C97.1391 228.338 7.41887 228.322 7.11507 228.329C7.11507 223.113 7.56767 115.895 7.57139 115.102H55.1714C53.9778 116.045 52.9861 117.219 52.2547 118.554C51.3718 120.274 50.6812 122.726 51.9708 124.155C51.7988 124.495 51.6527 124.848 51.5344 125.21C50.5207 125.889 49.7073 126.827 49.1784 127.926C47.7968 130.992 47.5765 134.455 48.5584 137.671C47.1362 140.331 41.2027 151.235 39.6576 154.028C39.615 154.106 39.5959 154.195 39.6028 154.284C39.6098 154.373 39.6425 154.458 39.6969 154.529C39.7512 154.599 39.8251 154.653 39.9092 154.682C39.9933 154.712 40.0844 154.716 40.171 154.695C60.6844 147.952 80.9535 153.419 90.2287 173.693C92.5028 178.521 94.223 183.592 95.356 188.807C88.2224 190.244 81.6589 191.424 74.4757 189.923C63.0465 187.402 44.9872 178.158 31.0757 172.928C30.5276 172.722 30.2907 173.6 30.8277 173.804C48.5672 180.455 67.4697 191.04 79.8882 191.506C91.3061 191.935 112.061 185.554 131.836 181.407V222.778C131.836 223.2 131.756 223.744 131.798 224.204C120.257 226.981 108.359 227.984 96.5155 227.177ZM202.775 227.964H120.337V227.251C134.685 225.246 148.934 220.709 162.404 215.413C164.016 214.785 165.606 214.111 167.22 213.494C168.509 213.018 169.721 212.354 170.816 211.523C171.25 211.21 171.617 210.813 171.893 210.356C172.17 209.898 172.351 209.389 172.426 208.859C172.502 208.33 172.469 207.791 172.33 207.274C172.191 206.758 171.95 206.274 171.62 205.853C173.204 205.917 174.775 205.537 176.156 204.757C176.557 204.5 176.914 204.178 177.213 203.806C178.42 205.046 179.626 206.286 180.834 207.526C181.014 207.761 181.263 207.933 181.545 208.019C181.828 208.105 182.13 208.101 182.41 208.006C182.69 207.912 182.934 207.732 183.106 207.492C183.279 207.253 183.373 206.965 183.374 206.669C183.302 206.201 183.093 205.764 182.773 205.413C181.382 203.39 178.4 199.089 178.309 198.949C179.188 198.611 179.918 197.971 180.368 197.144H202.779L202.775 227.964Z" fill="black"/>
<path d="M81.7991 39.9167C82.1959 40.3496 82.8369 39.7048 82.4412 39.2744C82.4412 39.2744 76.374 32.6715 76.1968 32.4805L82.6608 24.6685C83.0328 24.2208 82.3916 23.5748 82.0185 24.0262L75.2743 32.1705C75.1926 32.2575 75.1473 32.3723 75.1473 32.4916C75.1473 32.6108 75.1926 32.7258 75.2743 32.8128C83.9976 42.1809 81.2684 39.3402 81.7991 39.9167Z" fill="black"/>
<path d="M111.59 32.4806L105.347 39.2744C104.951 39.7048 105.595 40.3496 105.989 39.9167L112.514 32.8178C112.596 32.7308 112.641 32.6161 112.641 32.4966C112.641 32.3773 112.596 32.2623 112.514 32.1755L105.772 24.0312C105.4 23.5798 104.759 24.2258 105.13 24.6735L111.59 32.4806Z" fill="black"/>
<path d="M87.0852 39.9652C90.9801 36.208 101.829 25.2216 101.829 25.2216C101.908 25.1351 101.95 25.0214 101.948 24.9042C101.945 24.7872 101.897 24.6756 101.814 24.5926C101.731 24.5099 101.62 24.4623 101.502 24.4598C101.385 24.4573 101.272 24.5002 101.185 24.5793C97.2928 28.3415 87.5106 38.2193 86.4428 39.3216C86.3637 39.4081 86.3209 39.5215 86.3233 39.6388C86.3258 39.756 86.3734 39.8676 86.4564 39.9506C86.5391 40.0335 86.6507 40.0813 86.7677 40.084C86.8849 40.0868 86.9986 40.0441 87.0852 39.9652Z" fill="black"/>
<path d="M117.941 77.2208H135.611C135.728 77.2147 135.837 77.1642 135.918 77.0797C135.998 76.9951 136.043 76.8831 136.043 76.7665C136.043 76.6497 135.998 76.5377 135.918 76.4532C135.837 76.3686 135.728 76.3181 135.611 76.312H117.941C117.825 76.3181 117.715 76.3686 117.635 76.4532C117.555 76.5377 117.51 76.6497 117.51 76.7665C117.51 76.8831 117.555 76.9951 117.635 77.0797C117.715 77.1642 117.825 77.2147 117.941 77.2208Z" fill="black"/>
<path d="M94.9058 77.2208H112.191C112.308 77.2147 112.418 77.1642 112.498 77.0797C112.578 76.9951 112.623 76.8831 112.623 76.7665C112.623 76.6497 112.578 76.5377 112.498 76.4532C112.418 76.3686 112.308 76.3181 112.191 76.312H94.9058C94.7894 76.3181 94.6799 76.3686 94.5996 76.4532C94.5194 76.5377 94.4745 76.6497 94.4745 76.7665C94.4745 76.8831 94.5194 76.9951 94.5996 77.0797C94.6799 77.1642 94.7894 77.2147 94.9058 77.2208Z" fill="black"/>
<path d="M94.9057 117.23C94.7856 117.23 94.6701 117.277 94.5849 117.363C94.4999 117.448 94.4519 117.563 94.4519 117.683C94.4519 117.804 94.4999 117.919 94.5849 118.004C94.6701 118.089 94.7856 118.137 94.9057 118.137H106.268C106.388 118.137 106.504 118.089 106.589 118.004C106.674 117.919 106.722 117.804 106.722 117.683C106.722 117.563 106.674 117.448 106.589 117.363C106.504 117.277 106.388 117.23 106.268 117.23H94.9057Z" fill="black"/>
<path d="M125.956 87.1039H108.82C108.704 87.11 108.594 87.1605 108.514 87.245C108.433 87.3296 108.389 87.4416 108.389 87.5582C108.389 87.675 108.433 87.787 108.514 87.8716C108.594 87.9561 108.704 88.0066 108.82 88.0127H125.956C126.072 88.0066 126.182 87.9561 126.262 87.8716C126.342 87.787 126.387 87.675 126.387 87.5582C126.387 87.4416 126.342 87.3296 126.262 87.245C126.182 87.1605 126.072 87.11 125.956 87.1039Z" fill="black"/>
<path d="M25.7637 67.6555C27.2126 64.3806 29.2111 61.3775 31.6721 58.776C32.0753 58.3519 31.4341 57.7083 31.0298 58.1337C28.5038 60.783 26.4562 63.8503 24.9786 67.1992C24.7455 67.7275 25.5292 68.1912 25.7637 67.6555Z" fill="black"/>
<path d="M48.6328 72.0887C50.266 68.1435 52.8064 64.639 56.048 61.8598C56.4933 61.4804 55.8471 60.8405 55.4045 61.2175C52.0412 64.0968 49.4201 67.7428 47.7623 71.8481C47.5366 72.3888 48.4159 72.6244 48.6328 72.0887Z" fill="black"/>
<path d="M31.1775 121.343C32.0337 120.889 32.9912 120.66 33.9602 120.677C34.9292 120.694 35.878 120.957 36.7178 121.441C37.9382 122.242 38.9475 123.327 39.6602 124.601C41.5971 127.463 44.9748 133.777 45.9371 135.389C45.9684 135.44 46.0097 135.484 46.0584 135.519C46.1068 135.554 46.1621 135.579 46.2202 135.592C46.2786 135.605 46.3388 135.607 46.3979 135.596C46.4567 135.586 46.5129 135.564 46.5634 135.532C46.6612 135.471 46.7318 135.374 46.7611 135.262C46.7904 135.151 46.776 135.032 46.7207 134.93C42.2085 126.947 39.6963 121.965 37.0884 120.607C36.1406 120.094 35.0846 119.812 34.0067 119.786C32.929 119.759 31.8604 119.988 30.8884 120.455C29.7165 121.176 28.8005 122.247 28.27 123.517C27.7393 124.787 27.6207 126.192 27.9311 127.533C27.9471 127.589 27.9742 127.642 28.0107 127.688C28.0472 127.734 28.0926 127.772 28.144 127.801C28.1954 127.829 28.252 127.847 28.3101 127.854C28.3685 127.86 28.4276 127.855 28.4842 127.839C28.5967 127.804 28.6923 127.729 28.752 127.628C28.812 127.526 28.8318 127.406 28.8077 127.291C28.5493 126.176 28.6377 125.009 29.0613 123.946C29.4847 122.883 30.2231 121.974 31.1775 121.343Z" fill="black"/>
<path d="M158.72 190.018L173.868 197.696C174.389 197.96 174.849 197.176 174.327 196.912L159.179 189.233C158.659 188.969 158.199 189.752 158.72 190.018Z" fill="black"/>
<path d="M167.614 205.468C167.646 205.352 167.631 205.228 167.571 205.123C167.512 205.018 167.413 204.941 167.297 204.909C163.03 204.299 158.745 203.844 154.444 203.545C153.862 203.504 153.864 204.413 154.444 204.454C158.66 204.748 162.864 205.194 167.055 205.79C167.172 205.819 167.295 205.801 167.399 205.741C167.503 205.681 167.581 205.583 167.614 205.468Z" fill="black"/>
<path d="M139.362 147.365L130.909 154.557C130.463 154.937 131.108 155.577 131.552 155.2L140.005 148.007C140.451 147.628 139.805 146.987 139.362 147.365Z" fill="black"/>
<path d="M130.386 153.796C133.279 151.489 136.117 149.117 138.898 146.68C139.339 146.294 138.694 145.653 138.255 146.037C135.472 148.474 132.635 150.846 129.744 153.154C129.286 153.518 129.932 154.158 130.386 153.796Z" fill="black"/>
<path d="M109.322 223.2H103.068C102.951 223.206 102.841 223.257 102.761 223.341C102.681 223.426 102.636 223.538 102.636 223.654C102.636 223.771 102.681 223.883 102.761 223.968C102.841 224.052 102.951 224.103 103.068 224.109H109.322C109.439 224.103 109.548 224.052 109.628 223.968C109.709 223.883 109.753 223.771 109.753 223.654C109.753 223.538 109.709 223.426 109.628 223.341C109.548 223.257 109.439 223.206 109.322 223.2Z" fill="black"/>
<path d="M10.7966 119.569C10.6815 119.573 10.5721 119.621 10.4907 119.702C10.4092 119.784 10.3617 119.893 10.3577 120.008V127.38C10.3638 127.497 10.4143 127.606 10.4988 127.687C10.5834 127.767 10.6955 127.811 10.8121 127.811C10.9287 127.811 11.0408 127.767 11.1254 127.687C11.21 127.606 11.2605 127.497 11.2666 127.38V120.008C11.2624 119.888 11.2105 119.774 11.1224 119.692C11.0343 119.609 10.9171 119.565 10.7966 119.569Z" fill="black"/>
<path d="M219.517 181.728C217.788 182.318 216.288 183.437 215.23 184.926C214.171 186.415 213.607 188.199 213.617 190.026C213.617 190.843 213.617 228.313 213.617 228.354C213.623 228.469 213.674 228.579 213.758 228.66C213.843 228.739 213.955 228.784 214.072 228.784C214.188 228.784 214.3 228.739 214.385 228.66C214.47 228.579 214.52 228.469 214.526 228.354C214.526 228.354 214.526 190.19 214.526 189.988C214.58 187.958 215.423 186.029 216.874 184.61C218.326 183.19 220.274 182.392 222.304 182.384C224.335 182.376 226.289 183.159 227.752 184.566C229.215 185.974 230.072 187.896 230.142 189.926C230.142 190.346 230.135 190.766 230.142 191.187C230.149 191.303 230.2 191.413 230.284 191.493C230.369 191.573 230.48 191.618 230.597 191.618C230.714 191.618 230.825 191.573 230.911 191.493C230.994 191.413 231.046 191.303 231.053 191.187C231.141 189.827 230.98 188.463 230.584 187.159C230.221 186.071 229.646 185.065 228.893 184.201C228.137 183.337 227.218 182.632 226.187 182.127C225.158 181.621 224.038 181.326 222.893 181.257C221.747 181.189 220.6 181.349 219.517 181.728Z" fill="black"/>
<path d="M229.558 180.048C227.678 178.844 225.529 178.124 223.303 177.953C221.077 177.781 218.844 178.163 216.802 179.065C214.788 180.018 213.088 181.525 211.9 183.409C210.711 185.293 210.084 187.476 210.091 189.704C210.083 191.044 210.091 227.63 210.091 227.63C210.141 231.857 207.354 236.536 200.972 236.718C195.562 236.869 179.011 236.612 119.621 236.718C119.562 236.718 119.503 236.732 119.448 236.757C119.393 236.781 119.344 236.815 119.303 236.86C119.263 236.903 119.231 236.955 119.21 237.011C119.189 237.068 119.18 237.126 119.183 237.187C119.187 237.302 119.235 237.41 119.316 237.494C119.397 237.575 119.506 237.622 119.621 237.627H200.932C202.22 237.661 203.502 237.44 204.705 236.98C205.907 236.518 207.007 235.823 207.942 234.937C208.877 234.051 209.627 232.989 210.151 231.812C210.675 230.635 210.962 229.366 210.996 228.079C210.996 227.993 210.996 191.94 210.996 191.94C210.883 190.131 211.037 188.315 211.455 186.552C215.062 174.969 234.486 176.346 233.668 191.182C233.668 191.302 233.715 191.418 233.801 191.503C233.887 191.588 234.002 191.636 234.121 191.636C234.243 191.636 234.358 191.588 234.443 191.503C234.527 191.418 234.576 191.302 234.576 191.182C234.806 189.047 234.464 186.89 233.582 184.932C232.698 182.975 231.31 181.289 229.558 180.048Z" fill="black"/>
<path d="M208.816 181.892C207.145 184.628 206.294 187.785 206.363 190.99C206.363 190.99 206.353 226.814 206.363 227.434C206.381 228.124 206.247 228.809 205.971 229.441C205.696 230.074 205.285 230.638 204.769 231.095C203.595 231.945 202.143 232.32 200.705 232.144H119.752C119.635 232.151 119.526 232.2 119.445 232.286C119.365 232.369 119.32 232.482 119.32 232.599C119.32 232.714 119.365 232.827 119.445 232.913C119.526 232.996 119.635 233.048 119.752 233.052C119.752 233.052 200.669 233.052 201.662 233.052C202.382 233.07 203.098 232.946 203.769 232.687C204.44 232.428 205.054 232.04 205.576 231.544C206.097 231.048 206.515 230.453 206.806 229.797C207.098 229.138 207.257 228.428 207.275 227.709C207.275 227.691 207.275 191.891 207.275 190.448C207.272 188.426 207.676 186.425 208.461 184.562C209.246 182.699 210.398 181.013 211.847 179.603C213.296 178.193 215.013 177.089 216.897 176.355C218.781 175.621 220.793 175.273 222.813 175.331C224.834 175.389 226.823 175.853 228.66 176.693C230.5 177.534 232.151 178.736 233.517 180.226C234.881 181.717 235.934 183.467 236.612 185.371C237.289 187.276 237.577 189.298 237.458 191.316C237.464 191.432 237.514 191.542 237.6 191.622C237.683 191.702 237.796 191.747 237.911 191.747C238.028 191.747 238.141 191.702 238.224 191.622C238.31 191.542 238.36 191.432 238.366 191.316C238.477 189.052 238.114 186.79 237.295 184.675C236.479 182.561 235.228 180.641 233.625 179.04C231.921 177.354 229.86 176.073 227.594 175.289C225.33 174.506 222.917 174.242 220.536 174.516C218.155 174.789 215.866 175.594 213.837 176.871C211.809 178.148 210.093 179.864 208.816 181.892Z" fill="black"/>
<path d="M211.1 174.096C208.549 175.899 206.47 178.29 205.039 181.067C203.608 183.844 202.866 186.925 202.878 190.049C202.878 191.447 202.878 194.654 202.878 194.654C202.878 194.774 202.925 194.89 203.011 194.975C203.096 195.06 203.211 195.108 203.331 195.108C203.452 195.108 203.567 195.06 203.652 194.975C203.737 194.89 203.785 194.774 203.785 194.654C203.624 191.626 203.799 188.591 204.307 185.602C205.381 181.173 208.047 177.295 211.797 174.706C215.547 172.117 220.118 170.999 224.64 171.564C229.161 172.13 233.316 174.34 236.312 177.773C239.311 181.206 240.939 185.622 240.887 190.179V191.121C240.894 191.238 240.943 191.347 241.029 191.427C241.112 191.508 241.225 191.553 241.342 191.553C241.457 191.553 241.57 191.508 241.656 191.427C241.739 191.347 241.791 191.238 241.796 191.121C242.003 187.462 241.173 183.819 239.403 180.609C237.634 177.4 234.996 174.754 231.79 172.977C228.586 171.199 224.944 170.361 221.284 170.559C217.624 170.757 214.095 171.983 211.1 174.096Z" fill="black"/>
<path d="M165.102 113.65C165.304 113.373 165.301 114.252 165.236 105.388C165.235 105.267 165.186 105.153 165.101 105.068C165.016 104.983 164.901 104.935 164.781 104.934H156.839C156.719 104.935 156.604 104.984 156.519 105.068C156.434 105.153 156.386 105.268 156.384 105.388V113.336C156.385 113.456 156.434 113.571 156.519 113.656C156.604 113.741 156.719 113.789 156.839 113.791C165.643 113.849 164.878 113.841 165.102 113.65ZM164.327 112.876H157.293V105.841H164.327V112.876Z" fill="black"/>
<path d="M193.037 115.104C194.919 115.106 196.759 114.551 198.324 113.507C199.89 112.464 201.111 110.979 201.833 109.242C202.555 107.504 202.746 105.592 202.381 103.746C202.016 101.9 201.112 100.204 199.783 98.872C198.454 97.54 196.76 96.6318 194.915 96.2628C193.07 95.8935 191.157 96.0797 189.418 96.7975C187.679 97.5156 186.192 98.7331 185.144 100.296C184.097 101.86 183.537 103.698 183.535 105.58C183.533 106.829 183.778 108.067 184.254 109.222C184.731 110.376 185.43 111.426 186.313 112.311C187.195 113.195 188.243 113.897 189.397 114.376C190.551 114.856 191.788 115.103 193.037 115.104ZM190.01 97.4962C191.609 96.8999 193.349 96.7912 195.01 97.1838C196.67 97.5763 198.177 98.4524 199.34 99.7014C200.503 100.95 201.269 102.516 201.542 104.2C201.815 105.885 201.582 107.612 200.873 109.165C200.164 110.717 199.011 112.024 197.559 112.921C196.107 113.818 194.422 114.264 192.717 114.203C191.012 114.142 189.363 113.577 187.979 112.578C186.595 111.58 185.537 110.194 184.941 108.596C184.143 106.451 184.228 104.078 185.179 101.997C186.129 99.9156 187.867 98.297 190.01 97.4962Z" fill="black"/>
<path d="M186.158 168.49C187.166 168.102 188.249 167.943 189.327 168.024C190.806 168.207 192.308 168.039 193.71 167.535C194.213 167.314 194.661 166.984 195.021 166.57C195.381 166.155 195.645 165.666 195.794 165.137C195.895 164.574 195.835 163.995 195.621 163.464C195.407 162.934 195.048 162.475 194.585 162.14C192.458 160.514 189.834 161.235 187.393 160.993C186.315 160.885 185.272 160.591 185.029 159.419C184.911 158.92 184.92 158.398 185.053 157.903C185.187 157.407 185.441 156.952 185.794 156.579C186.639 155.847 187.709 155.425 188.826 155.383C190.795 155.289 192.767 155.399 194.714 155.711C195.293 155.783 195.288 154.872 194.714 154.803C192.216 154.321 189.652 154.307 187.15 154.762C186.074 155.07 185.148 155.759 184.546 156.701C184.048 157.637 183.916 158.723 184.174 159.751C184.806 162.388 188.279 161.932 190.324 161.923C191.478 161.842 192.632 162.077 193.663 162.603C194.166 162.837 194.559 163.256 194.761 163.772C194.964 164.289 194.96 164.863 194.751 165.376C193.807 167.244 191.651 167.212 189.692 167.162C188.815 167.024 187.92 167.062 187.058 167.272C186.196 167.482 185.384 167.861 184.67 168.387C184.296 168.752 184.004 169.192 183.814 169.678C183.624 170.165 183.54 170.686 183.568 171.208C183.596 171.729 183.734 172.239 183.975 172.702C184.216 173.166 184.553 173.573 184.963 173.895C185.905 174.519 187.008 174.852 188.138 174.856C189.223 174.845 190.308 174.901 191.387 175.022C192.334 175.128 193.213 175.568 193.867 176.262C194.983 177.845 193.601 179.835 191.527 180.074C189.036 180.395 186.517 180.425 184.02 180.163C183.44 180.101 183.443 181.01 184.02 181.072C186.882 181.377 189.773 181.273 192.606 180.764C194.65 180.07 195.93 177.714 194.687 175.854C194.095 175.086 193.259 174.54 192.317 174.307C191.296 174.055 190.246 173.945 189.196 173.979C188.063 174.044 186.931 173.848 185.886 173.407C185.434 173.16 185.061 172.789 184.811 172.339C184.56 171.889 184.443 171.377 184.471 170.863C184.499 170.348 184.673 169.853 184.971 169.433C185.27 169.013 185.681 168.686 186.158 168.49Z" fill="black"/>
<path d="M161.015 76.9048C161.172 76.9941 160.519 76.9643 171.817 76.9643C171.895 76.96 171.971 76.9361 172.038 76.8951C172.105 76.8538 172.16 76.7966 172.199 76.7285C172.238 76.6606 172.259 76.584 172.261 76.5055C172.263 76.427 172.245 76.3495 172.209 76.2798L166.918 67.1981C166.854 67.0939 166.753 67.0191 166.634 66.99C166.516 66.9611 166.391 66.9801 166.287 67.0432C166.12 67.1449 166.497 66.593 160.84 76.2798C160.811 76.3324 160.792 76.3903 160.785 76.4501C160.778 76.5098 160.782 76.5704 160.799 76.6286C160.815 76.6865 160.842 76.7409 160.879 76.7882C160.917 76.8356 160.963 76.8753 161.015 76.9048ZM166.525 68.3289L171.026 76.0555H162.023C162.213 75.7317 166.427 68.5001 166.525 68.324V68.3289Z" fill="black"/>
<path d="M171.26 39.6428C171.625 39.634 171.987 39.6996 172.325 39.836C172.663 39.9722 172.97 40.176 173.227 40.435C173.483 40.6941 173.685 41.0027 173.818 41.3422C173.951 41.6818 174.013 42.0448 174.001 42.4091V47.2203C174.002 47.3405 174.05 47.455 174.135 47.54C174.22 47.625 174.334 47.6735 174.454 47.6755H182.486C182.606 47.6739 182.721 47.6254 182.806 47.5404C182.891 47.4554 182.939 47.3405 182.941 47.2203C182.994 39.861 183.048 39.262 182.512 37.3463C181.906 35.4227 180.703 33.7419 179.078 32.5477C177.452 31.3533 175.489 30.7075 173.472 30.7035H171.26C171.14 30.7051 171.026 30.7535 170.941 30.8381C170.856 30.9229 170.807 31.0374 170.805 31.1573V39.184C170.805 39.305 170.852 39.4214 170.938 39.5075C171.023 39.5934 171.139 39.6421 171.26 39.6428ZM171.714 31.6125H173.476C174.658 31.6089 175.828 31.8502 176.912 32.3211C177.996 32.7923 178.97 33.4827 179.774 34.3491C180.578 35.2155 181.194 36.2391 181.582 37.3553C181.971 38.4715 182.124 39.6561 182.032 40.8343V46.7665H174.909V43.8773C175.108 42.5714 174.849 41.2374 174.177 40.1002C173.88 39.7201 173.508 39.4049 173.084 39.1745C172.661 38.9439 172.194 38.8027 171.714 38.7599V31.6125Z" fill="black"/>
<path d="M174.117 159.538C174.232 159.534 174.342 159.487 174.423 159.405C174.505 159.324 174.552 159.215 174.556 159.099V140.544H187.058C187.12 140.541 187.18 140.526 187.236 140.499C187.292 140.472 187.342 140.435 187.383 140.389C187.424 140.343 187.456 140.289 187.476 140.23C187.497 140.172 187.505 140.11 187.502 140.048C187.488 139.753 183.881 133.718 176.41 120.909C176.369 120.841 176.311 120.785 176.243 120.747C176.174 120.708 176.096 120.688 176.017 120.688C175.938 120.688 175.861 120.708 175.792 120.747C175.723 120.785 175.666 120.841 175.625 120.909L164.589 139.858C164.531 139.964 164.517 140.088 164.549 140.204C164.582 140.32 164.658 140.418 164.762 140.478C164.925 140.569 164.414 140.537 173.651 140.537V159.092C173.652 159.152 173.665 159.211 173.689 159.266C173.713 159.321 173.748 159.371 173.791 159.412C173.834 159.454 173.886 159.486 173.942 159.508C173.997 159.53 174.057 159.54 174.117 159.538ZM165.768 139.635L176.018 122.042L186.266 139.635H174.556V136.761C174.55 136.644 174.499 136.535 174.415 136.455C174.33 136.374 174.218 136.329 174.102 136.329C173.985 136.329 173.873 136.374 173.788 136.455C173.704 136.535 173.653 136.644 173.647 136.761V139.635H165.768Z" fill="black"/>
<path d="M168.971 114.647V94.9901C168.965 94.8738 168.914 94.764 168.83 94.684C168.745 94.6037 168.633 94.5588 168.517 94.5588C168.4 94.5588 168.288 94.6037 168.203 94.684C168.119 94.764 168.068 94.8738 168.062 94.9901V114.647C168.068 114.763 168.119 114.873 168.203 114.953C168.288 115.033 168.4 115.078 168.517 115.078C168.633 115.078 168.745 115.033 168.83 114.953C168.914 114.873 168.965 114.763 168.971 114.647Z" fill="black"/>
<path d="M176.12 94.5426V66.3946C176.114 66.278 176.063 66.1684 175.978 66.0882C175.894 66.0079 175.782 65.9633 175.665 65.9633C175.549 65.9633 175.436 66.0079 175.352 66.0882C175.267 66.1684 175.217 66.278 175.211 66.3946V94.5426C175.217 94.6589 175.267 94.7687 175.352 94.8489C175.436 94.9292 175.549 94.9738 175.665 94.9738C175.782 94.9738 175.894 94.9292 175.978 94.8489C176.063 94.7687 176.114 94.6589 176.12 94.5426Z" fill="black"/>
<path d="M181.04 80.9175V59.4729C181.034 59.3566 180.983 59.2468 180.899 59.1665C180.814 59.0865 180.702 59.0416 180.586 59.0416C180.469 59.0416 180.357 59.0865 180.272 59.1665C180.188 59.2468 180.137 59.3566 180.131 59.4729V80.9175C180.137 81.034 180.188 81.1436 180.272 81.2239C180.357 81.3041 180.469 81.3488 180.586 81.3488C180.702 81.3488 180.814 81.3041 180.899 81.2239C180.983 81.1436 181.034 81.034 181.04 80.9175Z" fill="black"/>
<path d="M115.098 180.584C121.288 178.265 127.731 176.691 134.292 175.894C134.865 175.825 134.871 174.916 134.292 174.985C127.648 175.773 121.123 177.358 114.858 179.707C114.313 179.91 114.549 180.792 115.098 180.584Z" fill="black"/>
<path d="M133.219 170.996C126.495 172.077 119.915 173.915 113.604 176.476C113.068 176.693 113.302 177.572 113.852 177.352C120.164 174.795 126.744 172.957 133.467 171.873C134.037 171.782 133.796 170.906 133.219 170.996Z" fill="black"/>
<path d="M18.3743 45.4821C18.7041 45.9594 19.4903 45.5056 19.1579 45.0233L11.8419 34.4114C11.5121 33.9327 10.7259 34.3866 11.057 34.8702L18.3743 45.4821Z" fill="black"/>
<path d="M24.3238 44.6463C24.4478 45.2178 25.3282 44.9761 25.2004 44.4057C24.8099 42.6424 21.7284 28.742 21.7284 28.742C21.6044 28.1716 20.7253 28.4122 20.8518 28.99C21.2374 30.7445 23.9008 42.7416 24.3238 44.6463Z" fill="black"/>
</svg>
