<svg width="247" height="249" viewBox="0 0 247 249" fill="none" xmlns="http://www.w3.org/2000/svg">
<path d="M143.033 98.0064C142.737 96.6541 142.119 95.3944 141.234 94.3355C140.349 93.2768 139.221 92.4501 137.95 91.927C136.508 91.3674 134.941 91.2205 133.422 91.5023C131.902 91.7841 130.49 92.4841 129.34 93.5244C129.32 91.8004 129.076 90.0864 128.615 88.426C126.094 80.925 111.027 77.439 102.395 87.5446C99.7694 90.6231 97.7873 94.2044 96.5672 98.0736C95.219 96.9894 93.6263 96.2571 91.9303 95.9418C90.2341 95.6264 88.4871 95.7378 86.8439 96.2659C81.8583 98.025 79.5044 103.901 82.5214 108.289C81.0839 108.153 79.634 108.319 78.2631 108.776C77.6256 108.995 77.0369 109.338 76.5312 109.787C76.0253 110.236 75.6121 110.78 75.3153 111.39C74.1396 114.254 76.4057 117.062 79.3129 117.952C86.1323 114.276 93.1714 111.03 100.389 108.233C108.046 105.369 115.87 103.743 123.773 105.829C124.069 104.557 124.606 103.355 125.355 102.289C125.589 101.888 125.952 101.579 126.383 101.413C126.815 101.248 127.289 101.235 127.729 101.378C128.146 101.572 128.502 101.878 128.758 102.263C129.013 102.648 129.159 103.096 129.177 103.559C130.013 102.09 131.287 100.677 132.896 101.521C133.318 101.802 133.672 102.175 133.931 102.613C134.189 103.051 134.346 103.543 134.39 104.051C134.761 106.13 134.409 106.762 134.409 110.007C134.409 112.138 136.028 113.101 138.131 113.314C138.34 112.955 138.547 112.595 138.748 112.232C138.032 112.163 137.348 111.894 136.775 111.453C136.202 111.013 135.764 110.419 135.509 109.74C135.254 109.06 135.194 108.323 135.334 107.61C135.475 106.898 135.81 106.24 136.303 105.71C136.785 105.154 137.419 104.753 138.124 104.556C138.83 104.36 139.578 104.376 140.275 104.604C140.826 104.835 141.327 105.174 141.75 105.6C142.132 104.507 142.454 103.393 142.713 102.264C143.112 100.883 143.221 99.4327 143.033 98.0064Z" fill="black"/>
<path d="M167.051 155.795C166.644 155.228 166.353 154.585 166.195 153.903C166.037 153.221 166.016 152.514 166.132 151.823C166.249 151.133 166.5 150.473 166.873 149.882C167.245 149.291 167.731 148.78 168.301 148.38C169.133 147.875 169.771 147.099 170.108 146.18C169.704 146.362 169.297 146.538 168.896 146.726C168.41 147.231 167.881 147.693 167.315 148.105C166.216 149.072 165.498 150.405 165.294 151.861C165.09 153.317 165.413 154.799 166.204 156.034C166.481 155.938 166.764 155.858 167.051 155.795Z" fill="#DCEFFF"/>
<path d="M175.879 139.557C175.865 139.562 175.851 139.567 175.837 139.569C171.906 139.975 167.942 139.906 164.028 139.363C163.975 139.348 163.925 139.323 163.881 139.289C163.838 139.255 163.801 139.212 163.774 139.164C163.747 139.116 163.73 139.062 163.723 139.007C163.716 138.952 163.72 138.896 163.735 138.842C163.767 138.736 163.839 138.645 163.935 138.591C164.031 138.536 164.144 138.52 164.251 138.547C168.075 139.066 171.947 139.126 175.785 138.725C176.105 138.614 176.385 138.411 176.59 138.14C176.672 137.963 176.708 137.768 176.694 137.573C176.679 137.378 176.616 137.19 176.509 137.027C176.168 136.379 175.665 135.832 175.049 135.441C173.724 134.611 172.259 134.032 170.726 133.734C170.542 133.713 170.363 133.656 170.199 133.567C169.9 133.883 170.323 133.611 162.626 132.179C162.094 132.081 162.321 131.265 162.85 131.364C165.049 131.772 167.239 132.226 169.421 132.724C169.305 132.6 166.13 128.982 165.919 128.74C162.157 129.526 153.298 131.953 149.594 132.991C150.994 140.748 151.323 150.439 145.759 155.916C149.008 155.211 152.19 154.221 155.268 152.957C164.586 149.168 173.495 143.967 174.818 144.74C175.915 145.387 176.967 146.109 177.966 146.901C178.56 147.404 179.323 147.659 180.098 147.613C180.699 147.657 181.292 147.458 181.748 147.062C182.205 146.665 182.487 146.103 182.533 145.497C180.188 143.666 177.966 141.682 175.879 139.557Z" fill="#A4796B"/>
<path d="M188.441 142.109C188.135 140.794 187.531 139.569 186.678 138.529C183.616 133.944 179.548 129.871 174.25 128.55C174.488 128.915 182.127 140.676 182.487 141.239C183.163 140.788 182.891 139.812 182.56 139.216C181.081 136.722 179.257 134.453 177.143 132.477C176.747 132.103 177.342 131.507 177.737 131.878C179.358 133.399 180.816 135.087 182.087 136.915C182.778 137.742 183.314 138.688 183.669 139.707C183.799 140.11 183.798 140.544 183.668 140.947C183.538 141.349 183.285 141.7 182.946 141.948C183.255 142.432 184.313 144.117 184.536 144.476C184.935 144.57 185.339 144.644 185.746 144.696C186.113 144.777 186.494 144.768 186.857 144.67C187.22 144.573 187.554 144.389 187.832 144.135C188.068 143.867 188.244 143.553 188.351 143.211C188.457 142.87 188.491 142.51 188.45 142.155C188.448 142.14 188.445 142.124 188.441 142.109Z" fill="#A4796B"/>
<path d="M123.882 118.399C124.166 121.988 124.853 125.532 125.931 128.963C126.813 131.659 128.303 134.111 130.284 136.128C130.863 131.294 130.28 126.389 128.583 121.83C127.504 119.115 125.697 116.757 123.363 115.019C121.8 113.843 120.616 113.999 119.134 113.849C117.744 113.708 116.159 113.227 115.822 111.654C115.731 110.859 115.91 110.056 116.331 109.377C116.752 108.698 117.39 108.184 118.139 107.919C119.868 107.232 121.78 107.919 123.426 108.652C123.421 107.699 123.536 106.749 123.771 105.825C115.867 103.741 108.055 105.366 100.387 108.229C94.9852 110.295 89.6968 112.651 84.5446 115.287C84.6402 115.238 84.7511 115.227 84.8547 115.256C84.9582 115.286 85.0469 115.354 85.1028 115.446C86.1355 117.472 87.0339 119.565 87.7926 121.71C91.6642 132.636 92.8646 147.606 91.8903 159.01C91.8872 159.117 91.8448 159.219 91.7713 159.297C91.6979 159.374 91.5987 159.422 91.4927 159.43C91.6162 159.456 91.2591 159.43 127.32 159.43C120.393 157.438 116.102 153.1 112.064 147.18C107.09 139.853 103.934 131.428 102.863 122.615C102.805 122.074 103.645 122.08 103.703 122.615C104.173 126.848 105.187 131 106.719 134.969C107.997 134.562 122.65 129.582 125.011 128.8C124.002 125.41 123.343 121.925 123.042 118.399C122.996 117.852 123.836 117.857 123.882 118.399Z" fill="#FFC431"/>
<path d="M102.863 122.613C103.352 127.067 104.427 131.436 106.059 135.604C106.033 135.497 106.048 135.382 106.103 135.286C106.158 135.19 106.248 135.119 106.353 135.088C106.477 135.05 106.6 135.005 106.724 134.963C105.192 130.994 104.178 126.841 103.708 122.609C103.645 122.077 102.805 122.071 102.863 122.613Z" fill="#FBB0A4"/>
<path d="M123.042 118.399C123.343 121.926 124.002 125.411 125.011 128.802L125.414 128.668C125.522 128.64 125.635 128.655 125.732 128.71C125.828 128.765 125.9 128.856 125.931 128.963C124.878 125.525 124.191 121.984 123.882 118.399C123.836 117.857 122.996 117.852 123.042 118.399Z" fill="#FBB0A4"/>
<path d="M144.585 116.302C144.21 115.383 143.569 114.599 142.746 114.053C140.364 112.78 137.593 114.096 135.326 112.27C135.03 111.975 134.795 111.622 134.637 111.233C134.479 110.844 134.4 110.426 134.406 110.006C134.406 106.842 134.761 106.11 134.388 104.05C134.344 103.542 134.187 103.05 133.928 102.612C133.669 102.174 133.316 101.801 132.893 101.52C131.288 100.676 130.011 102.089 129.175 103.558C129.156 103.095 129.011 102.646 128.755 102.262C128.5 101.877 128.144 101.571 127.726 101.377C127.287 101.234 126.812 101.247 126.381 101.412C125.949 101.578 125.587 101.887 125.353 102.288C124.083 104.157 123.411 106.373 123.426 108.638C121.78 107.907 119.869 107.217 118.139 107.904C117.39 108.169 116.752 108.684 116.331 109.362C115.91 110.041 115.731 110.844 115.822 111.639C116.159 113.217 117.744 113.693 119.134 113.834C120.631 113.985 121.802 113.834 123.363 115.005C125.697 116.742 127.504 119.1 128.583 121.815C130.28 126.374 130.863 131.279 130.284 136.113C128.297 134.101 126.806 131.647 125.931 128.948C125.899 128.842 125.827 128.752 125.731 128.697C125.635 128.642 125.522 128.626 125.414 128.653C125.28 128.698 106.477 135.039 106.353 135.076C106.248 135.107 106.158 135.178 106.103 135.275C106.048 135.371 106.033 135.485 106.059 135.593C108.813 142.889 114.334 152.164 120.837 156.446C129.405 162.085 141.238 161.585 146.742 154.817C154.064 145.824 149.073 127.024 144.585 116.302ZM133.133 156.633H136.781C136.893 156.633 136.999 156.678 137.078 156.758C137.157 156.837 137.201 156.944 137.201 157.057C137.201 157.169 137.157 157.277 137.078 157.356C136.999 157.435 136.893 157.48 136.781 157.48H133.133C133.077 157.481 133.022 157.471 132.97 157.45C132.917 157.43 132.87 157.399 132.83 157.359C132.79 157.32 132.758 157.273 132.736 157.221C132.715 157.169 132.703 157.113 132.703 157.057C132.703 157 132.714 156.944 132.735 156.892C132.757 156.84 132.789 156.792 132.829 156.753C132.869 156.713 132.916 156.682 132.969 156.662C133.021 156.641 133.077 156.632 133.133 156.633ZM124.694 112.759L126.33 114.428C126.71 114.816 126.116 115.415 125.735 115.027L124.1 113.357C123.715 112.969 124.309 112.37 124.689 112.759H124.694ZM128.646 113.032C128.364 112.001 128.162 110.949 128.042 109.886C127.976 109.347 128.815 109.353 128.882 109.886C129.016 110.87 129.207 111.846 129.457 112.807C129.486 112.915 129.472 113.031 129.417 113.129C129.362 113.226 129.271 113.298 129.163 113.328C129.056 113.358 128.941 113.343 128.844 113.288C128.747 113.233 128.676 113.141 128.646 113.032Z" fill="#A4796B"/>
<path d="M143.124 108.036C142.827 106.806 142.087 105.73 141.048 105.018C140.309 104.531 139.419 104.333 138.545 104.46C137.67 104.588 136.872 105.032 136.3 105.709C135.858 106.184 135.543 106.763 135.382 107.394C135.222 108.024 135.222 108.685 135.382 109.315C135.542 109.946 135.857 110.525 136.298 111.001C136.739 111.476 137.292 111.831 137.905 112.034C138.98 112.403 140.151 112.358 141.195 111.909C141.916 111.594 142.505 111.034 142.857 110.326C143.21 109.618 143.304 108.807 143.124 108.036Z" fill="#A4796B"/>
<path d="M128.881 109.886C128.814 109.353 127.975 109.347 128.041 109.886C128.16 110.949 128.362 112.001 128.645 113.032C128.66 113.086 128.685 113.136 128.719 113.18C128.753 113.224 128.795 113.261 128.843 113.288C128.891 113.316 128.944 113.333 128.998 113.34C129.053 113.347 129.109 113.343 129.162 113.328C129.215 113.313 129.265 113.288 129.308 113.254C129.352 113.22 129.388 113.177 129.416 113.129C129.443 113.08 129.46 113.027 129.467 112.972C129.474 112.916 129.47 112.861 129.455 112.807C129.206 111.846 129.014 110.871 128.881 109.886Z" fill="black"/>
<path d="M124.689 112.759C124.309 112.37 123.715 112.969 124.095 113.357L125.73 115.027C126.111 115.415 126.705 114.816 126.325 114.428L124.689 112.759Z" fill="black"/>
<path d="M136.776 156.633H133.133C133.022 156.633 132.915 156.678 132.836 156.757C132.757 156.837 132.713 156.944 132.713 157.057C132.713 157.169 132.757 157.277 132.836 157.356C132.915 157.435 133.022 157.48 133.133 157.48H136.781C136.893 157.48 136.999 157.435 137.078 157.356C137.157 157.277 137.201 157.169 137.201 157.057C137.201 156.944 137.157 156.837 137.078 156.757C136.999 156.678 136.893 156.633 136.781 156.633H136.776Z" fill="black"/>
<path d="M92.084 146.074C91.5321 135.544 89.8857 124.814 85.1027 115.44C85.0472 115.347 84.9585 115.279 84.8548 115.249C84.751 115.219 84.6401 115.231 84.5444 115.281C84.2974 115.382 67.4705 124.145 66.0996 124.875C64.5152 120.642 62.6638 116.513 60.7175 112.437C59.1504 109.158 57.588 105.963 53.5619 105.99C48.9331 106.027 46.6805 111.531 45.3233 115.994C42.9793 123.151 41.659 130.608 41.4021 138.14C35.2913 141.433 29.256 144.879 23.0291 147.944C22.3895 148.241 21.7756 148.592 21.1938 148.992C20.5848 149.445 20.0712 150.015 19.6831 150.67C19.2949 151.325 19.0398 152.051 18.9327 152.807C18.8256 153.562 18.8686 154.331 19.0591 155.07C19.2497 155.808 19.5841 156.501 20.0428 157.108C20.5796 157.827 21.2747 158.411 22.0734 158.813C22.8721 159.216 23.7526 159.426 24.6456 159.427C24.7691 159.427 91.3677 159.448 91.4926 159.427C91.5985 159.419 91.6978 159.372 91.7712 159.294C91.8446 159.217 91.8871 159.115 91.8902 159.007C92.252 154.706 92.3166 150.385 92.084 146.074ZM59.7333 131.757C60.6036 129.546 62.1355 127.662 64.1162 126.369C64.572 126.071 64.9919 126.804 64.5399 127.099C62.7384 128.271 61.3419 129.977 60.5435 131.982C60.3445 132.483 59.5343 132.264 59.7333 131.757ZM54.8427 159.427C49.7655 159.504 44.9959 155.487 43.1349 150.685C41.8166 147.172 41.2963 143.405 41.612 139.663C41.6529 139.121 42.4878 139.119 42.4518 139.663C41.6529 152.023 47.9994 158.353 54.8427 158.581C54.8979 158.582 54.9523 158.595 55.0026 158.619C55.0529 158.642 55.098 158.675 55.1357 158.715C55.1734 158.756 55.2026 158.804 55.222 158.856C55.241 158.909 55.2498 158.964 55.2478 159.02C55.2446 159.127 55.2008 159.229 55.1256 159.305C55.0502 159.381 54.9489 159.424 54.8427 159.427Z" fill="#FFBABA"/>
<path d="M62.2366 104.117C60.2371 103.147 45.2096 95.8788 44.4859 95.5053C44.4136 95.4657 44.3312 95.448 44.2492 95.4546C44.167 95.4612 44.0884 95.4915 44.0231 95.5422C43.9577 95.5927 43.9083 95.6613 43.881 95.7396C43.8536 95.8179 43.8491 95.9026 43.8684 95.9834C44.196 97.2037 44.7964 98.3321 45.6234 99.2826C48.6853 102.856 52.9643 105.143 57.6164 105.693C59.2039 105.843 60.8016 105.551 62.2353 104.848C62.2962 104.819 62.3473 104.774 62.3833 104.716C62.4192 104.659 62.4381 104.593 62.4378 104.525C62.4594 104.444 62.4509 104.358 62.4138 104.283C62.3768 104.208 62.3137 104.149 62.2366 104.117Z" fill="black"/>
<path d="M19.5242 143.138C19.5115 143.073 19.4818 143.014 19.4384 142.965C19.3949 142.917 19.3392 142.881 19.2772 142.861C19.2049 142.815 19.1179 142.799 19.0341 142.816C18.9503 142.833 18.876 142.881 18.8264 142.951L6.28989 158.272C6.23414 158.332 6.19677 158.407 6.18229 158.489C6.16778 158.57 6.17676 158.653 6.20816 158.73C6.23955 158.806 6.292 158.871 6.35928 158.918C6.42655 158.965 6.50577 158.991 6.58753 158.994C9.31317 159.053 11.898 157.266 13.895 155.555C16.3127 153.509 18.1532 150.856 19.2315 147.865C19.7583 146.346 19.8596 144.711 19.5242 143.138Z" fill="black"/>
<path d="M172.029 120.938C171.716 120.584 171.411 120.223 171.115 119.855C171.115 119.855 171.397 123.937 171.417 124.22L172.349 125.644C172.365 125.519 172.365 125.795 172.029 120.938Z" fill="#DCEFFF"/>
<path d="M174.771 101.987C178.075 98.8655 180.158 96.749 181.934 93.6016C181.651 93.5518 181.374 93.4712 181.108 93.3615C179.492 96.0183 177.483 98.4112 175.152 100.458C170.372 104.845 170.212 106.71 170.543 111.569C170.846 112.181 171.16 112.782 171.511 113.371C171.128 107.877 170.638 105.894 174.771 101.987Z" fill="#DCEFFF"/>
<path d="M171.63 115.162C171.297 114.654 170.983 114.133 170.681 113.606C170.699 113.87 171.009 118.317 171.009 118.317C171.306 118.718 171.614 119.108 171.931 119.493C171.903 119.102 171.658 115.551 171.63 115.162Z" fill="#DCEFFF"/>
<path d="M186.122 62.8562C188.558 60.5874 191.273 58.6425 194.2 57.0695C194.676 56.8119 194.252 56.0735 193.776 56.3388C191.382 57.6403 189.122 59.1785 187.028 60.9303C181.455 65.5977 180.134 69.1833 181.612 76.3534C181.925 76.4258 182.233 76.5225 182.532 76.6422C181.221 70.635 181.606 67.1055 186.122 62.8562Z" fill="#DCEFFF"/>
<path d="M46.7335 154.805C43.0027 150.615 42.0888 145.283 42.4519 139.663C42.4876 139.119 41.6527 139.121 41.612 139.663C41.0439 147.372 43.4769 155.584 50.6844 158.581C51.9988 159.145 53.4137 159.433 54.8425 159.427C54.9539 159.427 55.0608 159.383 55.1396 159.303C55.2182 159.224 55.2624 159.116 55.2624 159.004C55.2624 158.892 55.2182 158.784 55.1396 158.705C55.0608 158.625 54.9539 158.581 54.8425 158.581C53.3082 158.535 51.799 158.177 50.4055 157.528C49.0119 156.879 47.763 155.953 46.7335 154.805Z" fill="#FBB0A4"/>
<path d="M64.1163 126.368C62.1356 127.661 60.6037 129.545 59.7334 131.756C59.5344 132.263 60.3509 132.482 60.5435 131.981C61.342 129.976 62.7385 128.27 64.54 127.098C64.992 126.804 64.5721 126.071 64.1163 126.368Z" fill="#FBB0A4"/>
<path d="M184.991 145.299C184.987 145.231 184.966 145.165 184.93 145.107C184.8 144.897 183.255 142.435 182.945 141.952C182.906 141.982 182.864 142.009 182.822 142.035C182.341 142.284 181.918 141.554 182.398 141.304C182.53 141.207 184.27 143.918 159.274 105.739C159.216 105.644 159.124 105.576 159.017 105.547C158.91 105.519 158.797 105.533 158.7 105.587C156.174 106.993 153.774 108.617 151.527 110.443C151.45 110.523 151.407 110.63 151.407 110.742C151.407 110.854 151.45 110.961 151.527 111.042C158.238 119.78 165.209 128.067 169.418 132.722C169.625 132.769 169.833 132.809 170.036 132.859C170.108 132.877 170.174 132.916 170.225 132.969C170.277 133.023 170.313 133.09 170.33 133.163C170.346 133.236 170.342 133.312 170.318 133.383C170.294 133.454 170.251 133.517 170.194 133.565C170.358 133.654 170.537 133.71 170.721 133.732C172.253 134.03 173.719 134.608 175.044 135.439C175.66 135.829 176.163 136.376 176.504 137.025C176.611 137.188 176.674 137.376 176.688 137.57C176.703 137.765 176.667 137.961 176.585 138.138C176.19 138.662 175.642 138.74 175.832 138.72C176.354 138.667 176.36 139.456 175.874 139.555C178.196 141.929 180.698 144.119 183.355 146.104C183.756 146.388 184.182 146.634 184.651 146.32C184.813 146.213 184.934 146.054 184.996 145.868C185.058 145.684 185.055 145.483 184.991 145.299Z" fill="#6596E1"/>
<path d="M151.104 109.143C153.101 107.221 155.389 105.632 157.884 104.438C158.371 104.205 157.945 103.474 157.46 103.707C154.902 104.936 152.556 106.569 150.509 108.544C150.118 108.921 150.713 109.519 151.104 109.143Z" fill="#6596E1"/>
<path d="M233.651 73.3305C231.495 69.0615 226.032 66.7134 218.728 69.8246C211.462 72.921 205.884 79.4434 202.538 86.3831C197.872 96.0492 196.416 106.125 193.559 117.823C191.909 124.58 191.003 125.169 190.139 128.559C189.902 129.187 189.797 129.858 189.83 130.529C189.863 131.2 190.034 131.857 190.332 132.458C191.443 134.032 194.16 133.539 195.797 132.353C197.38 126.802 199.481 121.415 202.073 116.264C203.396 113.822 205.078 111.024 207.895 110.158C208.486 109.945 209.115 109.863 209.741 109.917C210.366 109.97 210.972 110.158 211.519 110.468C212.066 110.777 212.541 111.202 212.912 111.712C213.283 112.222 213.541 112.806 213.668 113.426C214.134 112.928 219.578 107.067 221.831 104.64C227.936 98.0637 233.875 91.1763 234.879 81.8252C235.209 78.9341 234.787 76.0061 233.651 73.3305ZM217.501 99.2638C216.881 100.98 216.136 102.647 215.272 104.251C215.014 104.731 214.284 104.302 214.547 103.824C215.378 102.285 216.095 100.685 216.691 99.0386C216.875 98.5306 217.686 98.7509 217.501 99.2638ZM220.984 80.4557C221.689 79.1858 222.535 78.0001 223.504 76.9211C223.867 76.5152 224.459 77.1153 224.098 77.52C223.179 78.5461 222.377 79.6739 221.708 80.8815C221.65 80.9732 221.559 81.0386 221.453 81.0642C221.348 81.0898 221.237 81.0733 221.144 81.0185C221.05 80.9635 220.981 80.8743 220.952 80.7695C220.922 80.6647 220.933 80.5522 220.984 80.4557ZM227.858 86.0295C227.559 86.599 227.175 87.1192 226.719 87.5722C226.542 87.7822 226.313 87.9409 226.054 88.0317C225.796 88.1224 225.518 88.1421 225.248 88.0887C224.252 87.8162 224.089 86.5424 224.225 85.6759C224.362 84.7605 224.743 83.8999 225.327 83.1859C225.459 83.0288 225.621 82.8993 225.803 82.8054C225.985 82.7112 226.185 82.6542 226.389 82.6377C226.591 82.6209 226.798 82.6449 226.991 82.7083C227.186 82.7717 227.368 82.8731 227.523 83.0066C227.909 83.3985 228.152 83.9105 228.212 84.4592C228.273 85.0081 228.149 85.5616 227.858 86.0295ZM212.317 80.6262C211.646 81.6804 210.973 82.7352 210.301 83.791C210.008 84.248 209.282 83.8233 209.575 83.3627L211.593 80.1993C211.884 79.7422 212.611 80.1669 212.317 80.6262ZM212.846 90.5626C213.617 89.3127 214.275 87.9955 214.812 86.6271C215.009 86.1291 215.82 86.3457 215.622 86.8525C215.063 88.2906 214.376 89.6753 213.571 90.9896C213.285 91.4527 212.561 91.0269 212.846 90.5626Z" fill="#DCEFFF"/>
<path d="M149.956 107.547C151.872 105.498 154.184 103.865 156.749 102.75C157.243 102.534 156.817 101.804 156.325 102.019C153.696 103.167 151.328 104.844 149.366 106.948C148.992 107.344 149.584 107.942 149.956 107.547Z" fill="#6596E1"/>
<path d="M162.623 132.179C170.322 133.612 169.898 133.883 170.196 133.567C170.254 133.519 170.297 133.457 170.321 133.386C170.345 133.315 170.349 133.239 170.332 133.165C170.316 133.092 170.28 133.025 170.228 132.972C170.176 132.918 170.11 132.88 170.038 132.861C169.501 132.737 165.957 131.944 162.847 131.367C162.319 131.264 162.091 132.081 162.623 132.179Z" fill="black"/>
<path d="M213.692 113.5C213.572 112.872 213.319 112.278 212.951 111.757C212.582 111.237 212.106 110.803 211.556 110.485C211.005 110.167 210.393 109.973 209.761 109.916C209.129 109.858 208.493 109.939 207.895 110.153C205.078 111.024 203.396 113.817 202.073 116.259C199.693 120.921 197.754 125.798 196.281 130.826C194.116 137.599 192.534 143.209 188.165 150.844C188.526 150.771 190.896 150.296 191.436 150.192C191.789 149.895 192.142 149.599 192.503 149.313C199.497 143.759 204.802 138.471 209.422 129.469C210.75 126.877 211.86 124.177 212.74 121.399C213.523 118.91 214.335 116.122 213.692 113.5ZM206.566 118.255C205.744 119.338 205.026 120.497 204.425 121.719C204.178 122.207 203.459 121.777 203.698 121.292C204.301 120.07 205.018 118.911 205.841 117.828C206.166 117.403 206.896 117.823 206.566 118.255Z" fill="#78B5FF"/>
<path d="M164.255 138.547C164.148 138.52 164.035 138.536 163.938 138.591C163.842 138.646 163.771 138.736 163.739 138.842C163.724 138.896 163.72 138.952 163.727 139.007C163.733 139.062 163.751 139.116 163.778 139.164C163.805 139.212 163.842 139.255 163.885 139.289C163.929 139.323 163.978 139.348 164.032 139.363C167.946 139.906 171.91 139.975 175.841 139.569C176.399 139.429 176.372 138.666 175.789 138.725C171.951 139.123 168.079 139.063 164.255 138.547Z" fill="black"/>
<path d="M183.669 139.708C183.314 138.688 182.777 137.742 182.087 136.915C180.816 135.087 179.358 133.399 177.737 131.878C177.342 131.504 176.749 132.104 177.143 132.477C179.257 134.453 181.081 136.722 182.56 139.216C182.891 139.812 183.163 140.788 182.487 141.239C182.459 141.262 182.429 141.284 182.398 141.304C181.918 141.553 182.341 142.285 182.822 142.035C182.864 142.009 182.906 141.982 182.945 141.952C183.286 141.703 183.539 141.352 183.669 140.949C183.799 140.545 183.799 140.111 183.669 139.708Z" fill="black"/>
<path d="M240.275 81.144C240.115 80.6261 239.305 80.8477 239.466 81.3693C240.223 83.8375 240.151 86.4883 239.264 88.9115C238.18 91.3775 236.543 93.5551 234.479 95.2723C228.648 100.847 223.612 107.156 224.777 115.149C225.536 120.367 228.587 125.694 226.679 130.873C224.833 135.877 218.673 136.616 214.874 140.035C212.31 142.344 211.771 145.304 212.614 147.291C212.943 147.271 213.274 147.302 213.594 147.384C212.451 145.317 213.402 142.757 214.926 141.159C219.508 136.363 229.56 136.702 227.938 124.912C226.809 116.695 220.304 110.105 234.351 96.5621C236.426 94.8343 238.182 92.752 239.538 90.4105C240.948 87.5298 241.213 84.2142 240.275 81.144Z" fill="#DCEFFF"/>
<path d="M191.534 94.2141C190.918 93.5839 190.081 93.224 189.204 93.2127C188.327 93.2016 187.481 93.54 186.851 94.1543C185.334 95.6483 184.998 98.3873 184.915 100.514C184.865 101.666 185.072 102.815 185.521 103.875C185.757 104.443 186.135 104.939 186.619 105.315C187.103 105.691 187.676 105.934 188.281 106.019C190.686 106.174 192.161 102.609 192.839 100.272C193.211 99.2412 193.286 98.125 193.055 97.0529C192.824 95.9809 192.296 94.9966 191.534 94.2141Z" fill="#6596E1"/>
<path d="M189.534 84.8379C188.649 79.9824 183.263 75.9674 180.247 76.2413C179.578 76.3112 178.941 76.5638 178.404 76.9722C177.867 77.3805 177.451 77.9288 177.2 78.5581C175.291 83.2083 176.411 91.5373 181.104 93.3611C182.352 93.7933 183.704 93.8121 184.964 93.4152C186.224 93.0184 187.325 92.2266 188.107 91.155C188.767 90.2602 189.236 89.2361 189.481 88.1484C189.727 87.0605 189.745 85.933 189.534 84.8379Z" fill="#78B5FF"/>
<path d="M206.776 72.8599C206.34 72.5106 205.795 72.3288 205.238 72.3462C204.681 72.3639 204.148 72.5798 203.734 72.9556C201.86 74.5979 201.626 78.207 204.139 78.4411C206.512 78.6602 208.455 74.5257 206.776 72.8599Z" fill="#6596E1"/>
<path d="M227.527 83.0055C227.37 82.8717 227.191 82.7703 226.995 82.7071C226.8 82.6438 226.596 82.6198 226.391 82.6363C226.187 82.653 225.989 82.7101 225.807 82.804C225.626 82.8982 225.464 83.0274 225.331 83.1848C223.961 84.8343 223.693 87.6579 225.253 88.0851C225.522 88.1385 225.798 88.1188 226.059 88.028C226.317 87.937 226.546 87.7784 226.724 87.5683C227.177 87.1165 227.559 86.5974 227.857 86.0295C228.149 85.5618 228.275 85.0083 228.215 84.4592C228.154 83.9103 227.911 83.3978 227.527 83.0055Z" fill="#6596E1"/>
<path d="M216.149 150.03C215.989 149.229 215.55 148.512 214.911 148.009C214.271 147.506 213.475 147.251 212.665 147.291C198.308 148.139 186.339 151.026 172.28 154.497C170.538 154.926 166.372 155.982 166.208 156.039C165.628 156.234 165.12 156.601 164.752 157.093C164.384 157.585 164.173 158.178 164.146 158.793C164.148 158.906 164.193 159.013 164.271 159.092C164.35 159.171 164.456 159.216 164.568 159.217H215.862C215.973 159.216 216.079 159.171 216.158 159.092C216.236 159.013 216.281 158.905 216.282 158.793C216.28 158.661 216.249 150.782 216.149 150.03Z" fill="#6596E1"/>
<path d="M185.126 117.186C185.003 116.327 184.576 115.173 183.533 115.258C183.046 115.307 182.592 115.529 182.254 115.886C181.916 116.242 181.715 116.709 181.689 117.202C181.566 118.201 181.748 119.215 182.212 120.108C182.314 120.318 182.464 120.5 182.65 120.641C182.836 120.782 183.051 120.877 183.28 120.918C183.547 120.907 183.807 120.827 184.034 120.687C184.263 120.546 184.452 120.35 184.584 120.116C185.091 119.231 185.283 118.196 185.126 117.186Z" fill="#6596E1"/>
<path d="M207.034 138.625L204.591 143.09C204.331 143.568 205.056 143.997 205.316 143.519L207.759 139.053C208.02 138.575 207.295 138.147 207.034 138.625Z" fill="black"/>
<path d="M204.425 121.719C205.026 120.497 205.744 119.338 206.566 118.255C206.896 117.823 206.166 117.401 205.841 117.828C205.018 118.911 204.301 120.07 203.698 121.291C203.459 121.777 204.184 122.207 204.425 121.719Z" fill="black"/>
<path d="M216.691 99.0384C216.095 100.685 215.378 102.285 214.547 103.824C214.288 104.302 215.014 104.731 215.272 104.251C216.136 102.647 216.881 100.98 217.501 99.2639C217.686 98.751 216.875 98.5305 216.691 99.0384Z" fill="black"/>
<path d="M214.812 86.6271C214.275 87.9955 213.617 89.3127 212.846 90.5624C212.561 91.0269 213.287 91.4527 213.571 90.9896C214.376 89.6753 215.063 88.2907 215.622 86.8526C215.82 86.3457 215.013 86.1255 214.812 86.6271Z" fill="black"/>
<path d="M221.709 80.8826C222.377 79.675 223.179 78.5475 224.098 77.5211C224.459 77.1164 223.867 76.5163 223.504 76.9222C222.535 78.0015 221.69 79.1869 220.983 80.4568C220.933 80.5533 220.922 80.6658 220.952 80.7706C220.981 80.8754 221.05 80.9646 221.144 81.0196C221.237 81.0746 221.348 81.0909 221.453 81.0653C221.559 81.04 221.65 80.9743 221.709 80.8826Z" fill="black"/>
<path d="M211.592 80.1991C210.921 81.2533 210.248 82.3079 209.575 83.3628C209.282 83.8234 210.008 84.2479 210.301 83.7911C210.973 82.7353 211.645 81.6804 212.318 80.6263C212.611 80.1667 211.884 79.7423 211.592 80.1991Z" fill="black"/>
<path d="M215.614 124.05C215.029 125.247 214.444 126.443 213.86 127.639C213.622 128.127 214.347 128.556 214.585 128.067C215.17 126.87 215.755 125.674 216.339 124.479C216.577 123.991 215.853 123.561 215.614 124.05Z" fill="black"/>
<path d="M166.442 173.968C164.372 173.116 148.848 166.724 148.096 166.419C145.388 165.317 143.337 166.1 141.18 167.433C140.464 167.873 139.735 168.293 139.023 168.739C134.629 171.866 129.908 174.496 124.944 176.582C124.639 176.707 124.49 177.174 124.844 177.357C124.844 177.357 139.83 185.2 141.393 185.947C141.683 186.087 141.937 185.926 142.214 185.811C154.964 180.525 157.034 174.685 163.572 174.708C164.443 174.708 165.442 174.725 166.332 174.807C166.848 174.848 166.841 174.132 166.442 173.968Z" fill="#FFD7D7"/>
<path d="M189.351 167.92C172.32 162.287 173.104 162.516 172.926 162.507C165.145 162.764 166.406 161.897 160.082 161.736C156.73 161.65 151.052 162.618 149.686 165.684C149.658 165.792 149.674 165.907 149.729 166.004C149.783 166.101 149.873 166.173 149.98 166.205L167.837 173.302C167.908 173.323 167.984 173.324 168.056 173.304C168.128 173.285 168.194 173.246 168.245 173.192C169.886 171.516 171.854 170.202 174.025 169.332C175.503 168.914 177.026 168.679 178.56 168.634C182.122 168.483 185.689 168.52 189.246 168.746C189.731 168.781 189.785 168.063 189.351 167.92Z" fill="#FFD7D7"/>
<path d="M189.139 170.595C187.672 170.851 186.178 170.923 184.693 170.809C183.267 170.736 181.853 170.835 180.429 170.899C177.61 171.023 174.578 171.148 172.137 172.736C170.83 173.593 169.725 174.727 168.9 176.059C166.89 176.144 164.89 176.384 162.916 176.777C161.038 177.183 159.233 177.878 157.565 178.838C152.169 181.884 151.223 184.109 141.537 187.575L124.962 178.433C124.488 178.171 124.065 178.901 124.539 179.164C142.484 189.065 141.393 188.537 141.615 188.448C145.427 187.182 149.06 185.425 152.425 183.219C158.2 179.3 160.374 177.23 169.13 176.891C169.202 176.885 169.272 176.863 169.334 176.826C169.397 176.79 169.451 176.74 169.493 176.68C172.04 172.506 175.544 171.91 180.371 171.75C181.776 171.703 183.168 171.583 184.57 171.654C186.169 171.772 187.776 171.691 189.355 171.413C189.892 171.312 189.669 170.489 189.139 170.595Z" fill="#FFD7D7"/>
<path d="M189.128 173.326C186.276 174.053 183.331 173.613 180.433 173.763C177.822 173.9 175.009 173.986 172.752 175.46C171.495 176.301 170.379 177.34 169.447 178.535C167.333 178.814 165.186 179.006 163.097 179.434C155.316 181.032 152.178 187.31 141.802 189.748L124.867 180.611C124.391 180.353 123.966 181.084 124.444 181.342C142.694 191.19 141.567 190.651 141.857 190.608C152.347 188.069 155.626 182.148 162.358 180.47C165.198 179.761 169.715 179.536 169.997 179.184C170.836 178.135 171.801 177.196 172.872 176.389C173.957 175.674 175.181 175.197 176.462 174.991C182.796 173.995 184.904 175.223 189.352 174.143C189.459 174.113 189.55 174.041 189.605 173.944C189.66 173.846 189.674 173.73 189.645 173.622C189.615 173.514 189.544 173.422 189.447 173.366C189.35 173.311 189.235 173.297 189.128 173.326Z" fill="#FFD7D7"/>
<path d="M58.5217 95.393C58.6041 93.8791 58.6865 92.3652 58.7687 90.8513C58.7984 90.3073 57.9586 90.3084 57.9289 90.8513C57.8467 92.3652 57.7643 93.8791 57.6819 95.393C57.6523 95.9383 58.4921 95.9358 58.5217 95.393Z" fill="black"/>
<path d="M60.7088 95.6161L66.2959 91.0793C66.7158 90.7368 66.1194 90.1417 65.702 90.4803L60.116 95.0171C59.695 95.3671 60.2927 95.9583 60.7088 95.6161Z" fill="black"/>
<path d="M66.1551 95.8539C64.5027 96.2584 62.854 96.6756 61.2027 97.0865C61.1495 97.1012 61.0999 97.1263 61.0563 97.1605C61.0128 97.1947 60.9764 97.2372 60.949 97.2857C60.9218 97.3341 60.9043 97.3873 60.8976 97.4425C60.8908 97.4978 60.8949 97.5537 60.9095 97.6073C60.9241 97.661 60.9492 97.7112 60.9831 97.7551C61.017 97.7991 61.0592 97.8357 61.1071 97.8631C61.1551 97.8905 61.2081 97.9084 61.2627 97.9152C61.3175 97.922 61.3732 97.9179 61.4264 97.9032C63.0788 97.4998 64.7288 97.0815 66.3787 96.6706C66.4861 96.6407 66.5775 96.569 66.6325 96.4712C66.6875 96.3736 66.7016 96.2577 66.672 96.1495C66.6423 96.0411 66.5712 95.9492 66.4744 95.8938C66.3774 95.8383 66.2626 95.824 66.1551 95.8539Z" fill="black"/>
<path d="M174.407 123.329C174.809 123.69 175.405 123.095 175.001 122.73C171.354 119.435 168.572 115.283 166.902 110.643C166.72 110.134 165.914 110.353 166.092 110.869C167.789 115.656 170.648 119.939 174.407 123.329Z" fill="black"/>
<path d="M176.675 121.041C177.078 121.404 177.673 120.807 177.269 120.444C173.617 117.155 170.833 113.001 169.169 108.357C168.988 107.848 168.181 108.067 168.359 108.581C170.057 113.369 172.916 117.653 176.675 121.041Z" fill="black"/>
<path d="M145.767 178.696C148.089 177.159 150.46 175.708 152.834 174.241C152.93 174.185 153 174.092 153.028 173.983C153.056 173.874 153.04 173.759 152.984 173.662C152.927 173.565 152.835 173.495 152.727 173.466C152.62 173.438 152.505 173.454 152.409 173.511C149.992 174.891 147.665 176.426 145.342 177.964C144.893 178.263 145.313 178.996 145.767 178.696Z" fill="black"/>
<path d="M117.703 171.982C115.132 173.107 112.431 173.902 109.663 174.347C106.418 174.901 103.104 174.914 99.8547 174.384L99.8324 174.375C96.9969 173.929 94.2282 173.127 91.5914 171.986C91.522 171.948 91.4659 171.889 91.4302 171.818C91.3945 171.748 91.3808 171.667 91.3913 171.588C91.3873 171.598 91.3848 171.609 91.3839 171.62C91.4104 174.501 92.2435 177.316 93.787 179.741C95.3305 182.166 97.5221 184.102 100.109 185.327C108.917 189.159 117.876 180.897 117.91 171.68C117.9 171.743 117.875 171.802 117.84 171.854C117.804 171.906 117.757 171.95 117.703 171.982ZM96.2065 178.882C95.5798 178.02 95.0418 177.096 94.601 176.124C94.3787 175.626 95.1024 175.201 95.3272 175.697C95.7682 176.668 96.3062 177.592 96.9327 178.453C97.2463 178.894 96.5166 179.316 96.2065 178.882Z" fill="#B6DBFF"/>
<path d="M143.65 177.551C146.128 176.156 148.59 174.738 151.022 173.259C151.116 173.202 151.183 173.109 151.21 173.001C151.237 172.894 151.221 172.78 151.166 172.685C151.11 172.589 151.02 172.519 150.913 172.49C150.807 172.461 150.694 172.474 150.598 172.529C148.121 173.923 145.658 175.34 143.227 176.819C143.137 176.879 143.074 176.971 143.05 177.076C143.026 177.182 143.043 177.292 143.097 177.386C143.151 177.479 143.238 177.548 143.341 177.579C143.444 177.609 143.554 177.6 143.65 177.551Z" fill="black"/>
<path d="M117.74 171.287C116.931 170.899 116.097 170.566 115.244 170.291C107.54 167.605 99.1161 167.94 91.6469 171.231C91.575 171.261 91.5126 171.31 91.467 171.374C91.4212 171.438 91.394 171.513 91.3882 171.591C91.3826 171.669 91.3985 171.747 91.4342 171.817C91.4701 171.887 91.5245 171.945 91.5914 171.985C94.2287 173.126 96.9971 173.928 99.8324 174.375C99.7431 174.341 99.6676 174.279 99.6178 174.197C99.5682 174.115 99.5473 174.019 99.5583 173.923C99.5693 173.828 99.6119 173.739 99.6791 173.671C99.7464 173.603 99.8342 173.56 99.9288 173.548C101.201 173.297 102.429 172.862 103.577 172.256C105.265 171.339 107.035 169.619 109.1 169.84C109.573 169.887 110.03 170.04 110.436 170.289C110.843 170.538 111.188 170.876 111.446 171.278C111.659 171.736 111.717 172.252 111.612 172.746C111.507 173.24 111.245 173.687 110.866 174.017C110.819 174.077 110.754 174.12 110.682 174.142C113.103 173.734 115.462 173.011 117.698 171.99C117.759 171.956 117.811 171.908 117.848 171.848C117.885 171.789 117.907 171.721 117.911 171.65C117.915 171.58 117.902 171.51 117.872 171.447C117.842 171.383 117.797 171.328 117.74 171.287Z" fill="#78B5FF"/>
<path d="M89.446 172.222C89.5574 172.222 89.6643 172.178 89.7429 172.098C89.8217 172.019 89.8659 171.911 89.8659 171.799C89.8659 171.687 89.8217 171.579 89.7429 171.499C89.6643 171.42 89.5574 171.376 89.446 171.376C88.4982 171.286 87.5466 171.504 86.7295 171.996C85.9124 172.489 85.272 173.23 84.9012 174.115C83.9206 177.08 87.759 179.282 90.8367 177.714C91.3197 177.465 90.8948 176.739 90.4132 176.983C89.5377 177.422 88.5301 177.511 87.5924 177.232C87.1251 177.132 86.6938 176.906 86.3455 176.577C85.997 176.247 85.7449 175.828 85.6164 175.365C85.3903 173.318 87.4602 172.16 89.446 172.222Z" fill="#6596E1"/>
<path d="M110.357 164.107C109.933 162.446 108.381 160.601 106.477 161.101C106.06 161.204 105.693 161.452 105.441 161.802C105.189 162.152 105.067 162.58 105.099 163.012C105.216 164.311 106.746 164.699 108.433 166C108.866 166.39 109.272 166.81 109.649 167.255C109.728 167.333 109.835 167.378 109.946 167.378C110.058 167.378 110.165 167.333 110.244 167.255C110.903 166.428 110.597 165.046 110.357 164.107Z" fill="black"/>
<path d="M96.9252 178.453C96.2987 177.592 95.7607 176.668 95.3197 175.697C95.095 175.199 94.3712 175.632 94.5935 176.124C95.0339 177.096 95.5719 178.02 96.199 178.882C96.5163 179.316 97.2463 178.894 96.9252 178.453Z" fill="white"/>
<path d="M154.077 187.361C154.129 189.01 154.181 190.659 154.232 192.308C154.249 192.851 155.089 192.853 155.072 192.308L154.917 187.361C154.901 186.818 154.06 186.816 154.077 187.361Z" fill="black"/>
<path d="M156.398 185.921C156.35 185.949 156.309 185.986 156.275 186.03C156.242 186.075 156.217 186.125 156.203 186.179C156.189 186.233 156.186 186.289 156.194 186.344C156.201 186.399 156.219 186.452 156.247 186.5C157.182 187.724 158.116 188.948 159.051 190.17C159.109 190.265 159.201 190.333 159.308 190.362C159.416 190.39 159.529 190.376 159.626 190.322C159.723 190.265 159.792 190.172 159.821 190.063C159.849 189.954 159.833 189.839 159.777 189.742L156.972 186.073C156.914 185.978 156.822 185.909 156.715 185.881C156.608 185.852 156.495 185.867 156.398 185.921Z" fill="black"/>
<path d="M215.645 161.216C215.756 161.216 215.863 161.172 215.942 161.092C216.02 161.013 216.065 160.905 216.065 160.793C216.065 160.681 216.02 160.573 215.942 160.494C215.863 160.414 215.756 160.37 215.645 160.37H164.565C164.454 160.37 164.347 160.414 164.268 160.494C164.19 160.573 164.145 160.681 164.145 160.793C164.145 160.905 164.19 161.013 164.268 161.092C164.347 161.172 164.454 161.216 164.565 161.216H215.645Z" fill="#6596E1"/>
<path d="M162.747 186.377C162.854 186.406 162.969 186.392 163.066 186.336C163.163 186.281 163.234 186.189 163.264 186.081C163.293 185.972 163.279 185.857 163.224 185.759C163.169 185.661 163.078 185.59 162.971 185.56C161.365 185.075 159.748 184.596 158.123 184.167C158.016 184.137 157.901 184.151 157.804 184.207C157.707 184.263 157.636 184.355 157.607 184.463C157.577 184.571 157.592 184.687 157.647 184.785C157.702 184.882 157.793 184.954 157.901 184.983C159.51 185.47 161.122 185.948 162.747 186.377Z" fill="black"/>
<path d="M111.451 171.275C111.193 170.872 110.847 170.534 110.441 170.285C110.035 170.036 109.578 169.883 109.105 169.837C107.042 169.615 105.27 171.331 103.582 172.252C102.411 172.868 101.157 173.309 99.8607 173.562C99.4902 173.654 99.4471 174.283 99.8374 174.371L99.8596 174.38C103.109 174.91 106.423 174.898 109.668 174.343C110.092 174.339 110.508 174.226 110.876 174.014C111.254 173.682 111.516 173.236 111.619 172.742C111.723 172.247 111.664 171.732 111.451 171.275Z" fill="black"/>
<path d="M128.881 109.886C128.814 109.353 127.973 109.347 128.041 109.886C128.16 110.949 128.362 112 128.645 113.031C128.674 113.139 128.745 113.231 128.842 113.287C128.939 113.343 129.054 113.357 129.161 113.327C129.269 113.298 129.36 113.226 129.415 113.129C129.47 113.031 129.485 112.915 129.455 112.807C129.198 111.848 129.006 110.872 128.881 109.886Z" fill="black"/>
<path d="M124.689 112.759C124.309 112.37 123.715 112.969 124.095 113.357L125.73 115.027C126.111 115.415 126.705 114.816 126.326 114.428L124.689 112.759Z" fill="black"/>
<path d="M136.776 156.633H133.133C133.025 156.639 132.924 156.687 132.85 156.765C132.776 156.844 132.735 156.949 132.735 157.057C132.735 157.166 132.776 157.27 132.85 157.349C132.924 157.428 133.025 157.475 133.133 157.481H136.781C136.889 157.475 136.99 157.428 137.064 157.349C137.138 157.27 137.179 157.166 137.179 157.057C137.179 156.949 137.138 156.844 137.064 156.765C136.99 156.687 136.889 156.639 136.781 156.633H136.776Z" fill="black"/>
<path d="M43.8697 95.9895C44.1995 97.209 44.7995 98.3369 45.6247 99.2888C48.6884 102.86 52.9665 105.147 57.6177 105.699C59.2052 105.855 60.8047 105.562 62.2366 104.854C62.3019 104.818 62.3563 104.765 62.3942 104.701C62.4322 104.637 62.4522 104.563 62.4522 104.489C62.4522 104.414 62.4322 104.34 62.3942 104.276C62.3563 104.212 62.3019 104.159 62.2366 104.123C60.2372 103.153 45.2098 95.885 44.486 95.5115C44.4135 95.4721 44.3316 95.4549 44.2496 95.4617C44.1676 95.4682 44.0895 95.4988 44.0244 95.5493C43.959 95.5997 43.9099 95.6683 43.8825 95.7464C43.8551 95.8245 43.8506 95.9089 43.8697 95.9895ZM61.0153 104.468C55.8467 106.323 47.2017 101.631 44.9825 96.6829L61.0153 104.468Z" fill="black"/>
<path d="M19.5242 143.138C19.507 143.065 19.4705 142.998 19.4185 142.944C19.3665 142.89 19.301 142.852 19.2289 142.832C19.1569 142.813 19.0811 142.814 19.0095 142.835C18.938 142.856 18.8734 142.896 18.8227 142.951L6.28989 158.272C6.23414 158.332 6.19677 158.407 6.18229 158.488C6.16778 158.57 6.17676 158.653 6.20816 158.73C6.23955 158.806 6.292 158.871 6.35928 158.918C6.42655 158.965 6.50577 158.991 6.58753 158.994C9.31317 159.023 11.9178 157.287 13.895 155.555C16.3205 153.516 18.1626 150.861 19.2315 147.865C19.7613 146.347 19.8626 144.71 19.5242 143.138ZM7.53724 158.078L18.8573 144.238C19.4081 149.711 12.8675 157.073 7.53354 158.073L7.53724 158.078Z" fill="black"/>
<path d="M64.115 126.368C62.1342 127.661 60.6024 129.544 59.7332 131.756C59.5331 132.263 60.3507 132.482 60.5433 131.981C61.3524 129.982 62.7464 128.279 64.5398 127.098C64.9918 126.804 64.5719 126.071 64.115 126.368Z" fill="black"/>
<path d="M151.104 109.143C153.1 107.221 155.389 105.632 157.884 104.439C158.371 104.205 157.947 103.474 157.46 103.707C154.902 104.936 152.556 106.569 150.509 108.544C150.118 108.921 150.713 109.519 151.104 109.143Z" fill="black"/>
<path d="M156.321 102.019C153.693 103.168 151.325 104.845 149.362 106.948C148.992 107.345 149.585 107.944 149.955 107.547C151.876 105.503 154.186 103.871 156.748 102.75C157.24 102.534 156.813 101.805 156.321 102.019Z" fill="black"/>
<path d="M239.467 81.3695C240.223 83.8376 240.154 86.4883 239.264 88.9117C238.182 91.3782 236.545 93.5563 234.482 95.2723C228.677 100.818 223.603 107.141 224.777 115.149C225.529 120.355 228.585 125.705 226.679 130.873C224.835 135.877 218.673 136.616 214.875 140.035C212.314 142.342 211.78 145.315 212.605 147.291C205.498 147.831 198.429 148.801 191.437 150.198C194.189 148.053 196.829 145.768 199.349 143.351C205.473 137.209 210.061 129.688 212.734 121.406C213.527 118.901 214.361 116.004 213.67 113.421C223.032 103.355 225.271 101.024 227.75 97.8495C231.376 93.1882 234.327 87.8161 234.888 81.8214C235.236 78.9291 234.809 75.9954 233.653 73.3255C231.533 69.1312 226.207 66.6561 218.73 69.8196C211.556 72.8947 205.818 79.4559 202.54 86.3781C196.33 99.0148 195.261 115.169 191.6 124.334C191.032 125.711 190.545 127.12 190.142 128.554C189.908 129.183 189.805 129.853 189.838 130.523C189.871 131.194 190.04 131.851 190.334 132.453C191.452 134.031 194.18 133.524 195.799 132.348C193.997 138.805 191.432 145.02 188.158 150.859C181.11 152.311 174.684 153.872 167.054 155.796C166.521 155.046 166.193 154.169 166.101 153.252C166.008 152.334 166.156 151.409 166.529 150.567C167.64 148.219 169.673 147.97 170.11 146.184C171.456 145.515 172.874 145.005 174.335 144.663C174.499 144.624 174.672 144.65 174.818 144.736C175.155 144.902 175.477 145.097 175.781 145.319C178.035 146.863 178.622 147.707 180.104 147.61C180.705 147.653 181.298 147.454 181.754 147.058C182.211 146.661 182.493 146.099 182.539 145.493C182.815 145.701 183.087 145.911 183.369 146.116C183.768 146.4 184.193 146.641 184.665 146.331C185.453 145.797 184.862 144.993 184.541 144.489C184.94 144.583 185.345 144.657 185.751 144.709C186.118 144.789 186.499 144.78 186.862 144.683C187.225 144.585 187.559 144.401 187.837 144.147C188.163 143.761 188.376 143.29 188.453 142.789C188.53 142.287 188.468 141.774 188.273 141.306C187.858 140.321 187.324 139.391 186.684 138.537C183.606 133.931 179.56 129.881 174.255 128.559L172.354 125.653C172.37 125.528 172.354 125.587 172.026 120.937C172.776 121.781 173.573 122.583 174.412 123.337C174.814 123.698 175.411 123.102 175.006 122.738C173.903 121.739 172.877 120.657 171.935 119.501C171.871 118.574 171.671 115.687 171.635 115.171C173.057 117.342 174.753 119.316 176.68 121.046C177.082 121.409 177.678 120.811 177.274 120.448C175.004 118.404 173.06 116.02 171.512 113.378C171.133 107.893 170.636 105.908 174.776 101.992C178.086 98.8643 180.167 96.7478 181.939 93.6065C183.092 93.8175 184.281 93.7005 185.372 93.2683C186.462 92.8362 187.412 92.1062 188.114 91.1602C190.924 87.3691 190.168 81.3184 184.122 77.4652C183.623 77.1413 183.093 76.8669 182.54 76.646C181.234 70.6288 181.64 67.0944 186.129 62.8575C188.565 60.5875 191.28 58.6426 194.207 57.0708C194.683 56.8118 194.259 56.0748 193.784 56.3401C191.389 57.6412 189.129 59.1793 187.036 60.9316C181.462 65.599 180.141 69.1846 181.62 76.3547C180.745 76.1079 179.809 76.1967 178.994 76.6037C178.18 77.0109 177.543 77.7074 177.208 78.5595C175.274 83.1784 176.442 91.5686 181.111 93.3625C177.668 99.4082 172.331 101.753 170.888 106.004C170.383 107.815 170.267 109.713 170.546 111.573C170.026 110.53 169.569 109.456 169.176 108.357C168.995 107.849 168.188 108.068 168.366 108.583C168.988 110.326 169.765 112.008 170.688 113.61L171.017 118.322C169.277 115.983 167.893 113.395 166.909 110.644C166.727 110.135 165.921 110.354 166.099 110.87C167.256 114.126 168.951 117.16 171.114 119.845C171.173 120.673 171.407 123.973 171.424 124.221C170.821 123.302 159.282 105.739 159.282 105.739C159.223 105.644 159.131 105.575 159.024 105.547C158.917 105.519 158.803 105.534 158.706 105.588C156.18 106.994 153.78 108.618 151.535 110.444C151.458 110.524 151.415 110.632 151.415 110.743C151.415 110.855 151.458 110.962 151.535 111.043C155.935 116.77 160.975 123.013 165.923 128.735C162.162 129.521 153.291 131.951 149.599 132.986C148.539 127.258 146.86 121.663 144.592 116.303C144.217 115.384 143.577 114.601 142.754 114.054C141.258 113.254 140.134 113.525 138.136 113.314C138.345 112.955 138.552 112.595 138.753 112.232C139.338 112.376 139.948 112.37 140.53 112.214C141.111 112.058 141.644 111.757 142.08 111.34C142.516 110.922 142.841 110.401 143.025 109.823C143.209 109.246 143.247 108.632 143.134 108.036C142.905 107.11 142.428 106.265 141.754 105.593C142.137 104.501 142.459 103.387 142.718 102.258C143.117 100.879 143.227 99.4318 143.041 98.0077C142.758 96.621 142.119 95.3332 141.189 94.2727C140.467 93.4295 139.585 92.74 138.596 92.245C137.606 91.7499 136.528 91.459 135.425 91.3893C134.323 91.3198 133.217 91.4728 132.174 91.8398C131.131 92.2067 130.171 92.7799 129.35 93.5257C129.329 91.8017 129.086 90.0879 128.625 88.4273C126.082 80.8851 111.02 77.4987 102.406 87.5459C99.7831 90.6262 97.8008 94.2062 96.577 98.0736C89.9338 92.9605 81.5001 96.7802 81.195 103.842C81.1656 105.429 81.6322 106.985 82.5288 108.29C81.0917 108.161 79.6436 108.326 78.2718 108.777C76.9861 109.224 75.9267 110.163 75.3227 111.391C74.1469 114.255 76.4081 117.061 79.3202 117.955C76.2698 119.524 67.4643 124.154 66.1058 124.877C64.5214 120.644 62.67 116.516 60.7236 112.44C60.0057 110.509 58.8686 108.765 57.3954 107.335C56.312 106.455 54.9584 105.982 53.5669 105.998C50.3757 106.013 48.3231 108.728 47.0659 111.378C43.6512 119.901 41.7363 128.959 41.4071 138.145C35.2963 141.438 29.2608 144.886 23.0339 147.95C22.3943 148.246 21.7804 148.597 21.1988 148.997C20.2333 149.727 19.5202 150.745 19.1605 151.906C18.8008 153.068 18.8127 154.314 19.1945 155.468C19.5763 156.623 20.3087 157.627 21.2879 158.338C22.2671 159.049 23.4435 159.432 24.6506 159.432C26.5896 159.448 124.965 159.432 127.279 159.432C135.14 161.612 142.062 159.557 145.755 155.918C154.104 154.132 161.192 150.344 168.897 146.731C168.412 147.237 167.883 147.698 167.316 148.11C166.217 149.076 165.499 150.41 165.295 151.866C165.091 153.322 165.414 154.804 166.205 156.04C165.626 156.235 165.119 156.602 164.751 157.094C164.383 157.586 164.172 158.178 164.145 158.794C164.146 158.905 164.19 159.012 164.269 159.091C164.347 159.171 164.453 159.216 164.564 159.217H215.859C215.97 159.215 216.076 159.17 216.155 159.091C216.233 159.012 216.278 158.905 216.279 158.794C216.203 150.186 216.225 150.647 216.148 150.035C216.019 149.39 215.709 148.797 215.254 148.325C214.8 147.853 214.221 147.523 213.586 147.373C212.456 145.31 213.404 142.757 214.927 141.164C219.567 136.309 229.564 136.735 227.938 124.917C226.827 116.886 220.31 110.102 234.351 96.5671C236.426 94.8388 238.182 92.7568 239.538 90.4157C240.949 87.5352 241.213 84.221 240.279 81.1504C240.115 80.6262 239.305 80.8478 239.467 81.3695ZM177.84 88.105C177.017 85.5382 176.91 82.7929 177.531 80.1693C177.619 79.5645 177.844 78.9882 178.188 78.485C178.532 77.9818 178.986 77.565 179.516 77.2671C182.727 76.2985 186.86 80.3074 188.189 83.1773C188.6 84.1239 188.821 85.143 188.839 86.1759C188.858 87.2088 188.675 88.2354 188.3 89.1967C187.859 90.2874 187.103 91.22 186.132 91.8751C185.161 92.5302 184.018 92.8776 182.849 92.8733C180.187 92.7364 178.581 90.4592 177.84 88.105ZM186.255 139.41C186.896 140.234 187.358 141.183 187.614 142.198C187.778 143.294 187.22 144.142 185.251 143.77C184.781 143.677 184.317 143.556 183.862 143.408C183.556 142.922 183.253 142.435 182.943 141.952C183.283 141.704 183.536 141.353 183.666 140.95C183.796 140.548 183.796 140.114 183.667 139.711C183.311 138.692 182.775 137.746 182.085 136.919C180.813 135.091 179.355 133.403 177.735 131.882C177.341 131.508 176.747 132.108 177.141 132.48C179.259 134.452 181.083 136.722 182.558 139.22C182.887 139.826 183.106 140.847 182.39 141.286C182.39 141.286 175.276 130.125 174.962 129.648C179.816 131.242 183.431 135.064 186.251 139.41H186.255ZM152.416 110.821C154.418 109.213 156.548 107.774 158.784 106.519C159.905 108.219 180.532 139.663 183.862 144.782C184.471 145.717 184.253 145.888 183.388 145.247C182.103 144.293 178.201 140.664 176.704 139.177C177.1 138.938 177.388 138.551 177.505 138.1C177.552 137.749 177.526 137.393 177.431 137.052C177.335 136.711 177.172 136.394 176.949 136.12C176.146 135.087 175.072 134.302 173.848 133.854C172.82 133.422 171.755 133.086 170.666 132.848C169.744 132.066 160.297 121.07 152.414 110.821H152.416ZM141.331 110.847C140.637 111.319 139.799 111.525 138.968 111.429C138.136 111.333 137.367 110.94 136.797 110.322C136.412 109.835 136.18 109.243 136.132 108.622C136.084 108.001 136.221 107.38 136.527 106.839C136.833 106.297 137.293 105.861 137.848 105.586C138.402 105.312 139.026 105.211 139.638 105.297C142.168 106.085 143.384 109.417 141.328 110.847H141.331ZM75.9328 113.758C75.3004 111.401 77.4642 109.67 79.5143 109.294C80.8038 109.073 82.1176 109.034 83.418 109.178C83.5002 109.176 83.5801 109.15 83.6479 109.103C83.716 109.056 83.7687 108.99 83.8004 108.914C83.8318 108.837 83.8406 108.753 83.8255 108.671C83.8105 108.59 83.7723 108.515 83.7157 108.454C82.7068 107.314 82.1084 105.865 82.017 104.34C81.9257 102.815 82.3465 101.304 83.2118 100.05C84.1206 98.7796 85.3625 97.7906 86.7985 97.1935C88.2343 96.5963 89.8067 96.4148 91.3393 96.6692C93.2421 96.9574 95.022 97.7924 96.4659 99.0746C96.548 99.1524 96.6572 99.1948 96.7699 99.1923C96.8826 99.1896 96.99 99.1425 97.0686 99.061C97.3858 98.7273 100.346 86.723 109.994 83.1709C115.397 81.2351 121.965 81.9348 126.056 85.9237C128.403 88.2071 128.372 91.0842 128.542 94.4993C128.545 94.5819 128.571 94.6621 128.618 94.7302C128.664 94.7981 128.729 94.8513 128.805 94.883C128.881 94.9147 128.964 94.9235 129.045 94.9088C129.126 94.8939 129.2 94.8558 129.26 94.7992C134.119 89.1159 143.71 93.4162 142.104 101.024C141.841 102.375 141.488 103.706 141.046 105.008C140.804 104.84 140.543 104.701 140.27 104.592C139.293 104.276 138.23 104.363 137.317 104.836C136.403 105.308 135.713 106.128 135.399 107.113C135.084 108.098 135.171 109.169 135.64 110.091C136.109 111.011 136.921 111.707 137.899 112.024C137.685 112.406 137.466 112.785 137.243 113.161C136.541 113.019 135.883 112.71 135.324 112.26C135.027 111.965 134.792 111.612 134.634 111.223C134.476 110.834 134.398 110.416 134.404 109.996C134.404 106.801 134.756 106.182 134.385 104.04C134.34 103.532 134.182 103.042 133.923 102.604C133.665 102.167 133.312 101.793 132.891 101.511C131.285 100.666 130.007 102.079 129.172 103.548C129.154 103.085 129.008 102.637 128.753 102.252C128.497 101.867 128.141 101.561 127.724 101.368C127.284 101.225 126.809 101.237 126.378 101.402C125.946 101.568 125.583 101.877 125.349 102.278C124.596 103.344 124.059 104.549 123.77 105.825C115.838 103.732 108.096 105.378 100.387 108.229C93.5414 110.862 86.8657 113.923 80.3985 117.395C78.4571 116.858 76.4946 115.854 75.9328 113.758ZM91.0799 158.578C65.3475 158.578 55.4452 158.588 54.55 158.561C51.5568 158.388 48.7506 157.038 46.7335 154.802C43.8338 151.528 42.0024 147.083 42.4519 139.66C42.4851 139.116 41.6453 139.119 41.6121 139.66C41.2843 143.403 41.805 147.172 43.1348 150.682C44.5207 154.214 47.2338 157.052 50.6844 158.578H24.9964C24.0935 158.641 23.1913 158.451 22.3882 158.031C21.5851 157.61 20.9125 156.975 20.444 156.195C19.9755 155.414 19.7293 154.519 19.7324 153.607C19.7355 152.694 19.9877 151.801 20.4615 151.023C21.2673 149.876 22.404 149.007 23.717 148.533C25.0618 147.831 40.3895 139.685 42.0233 138.762C42.0872 138.725 42.1402 138.671 42.1771 138.607C42.2137 138.543 42.2328 138.47 42.2321 138.396C42.4315 131.398 43.5847 124.461 45.6591 117.781C46.8584 113.701 48.6058 107.867 52.5208 106.949C53.7364 106.676 55.0094 106.857 56.1023 107.46C57.6013 108.478 58.7537 109.936 59.4035 111.637C66.0613 125.436 65.1562 126.127 66.0094 125.871C66.1329 125.832 79.9476 118.533 84.5517 116.222C89.0904 125.269 90.7404 135.909 91.2454 146.075C91.4713 150.242 91.4161 154.42 91.0799 158.581V158.578ZM93.3573 158.578C92.9053 158.578 92.4285 158.541 91.968 158.555C92.998 145.316 91.4578 128.012 85.3223 115.834C93.9673 111.523 104.898 106.506 114.066 105.815C117.266 105.558 120.486 105.838 123.595 106.646C123.48 107.303 123.424 107.97 123.426 108.638C121.78 107.907 119.869 107.217 118.139 107.904C117.389 108.169 116.752 108.683 116.331 109.362C115.91 110.041 115.73 110.844 115.822 111.639C116.36 114.155 119.822 113.756 121.379 114.064C122.102 114.23 122.779 114.551 123.367 115.006C125.714 116.728 127.526 119.09 128.587 121.815C130.292 126.372 130.875 131.279 130.288 136.113C128.307 134.096 126.817 131.644 125.934 128.948C124.864 125.515 124.176 121.972 123.885 118.385C123.842 117.846 123.002 117.841 123.046 118.385C123.352 121.91 124.011 125.395 125.014 128.787C122.661 129.573 108.002 134.551 106.722 134.955C105.207 130.981 104.194 126.831 103.707 122.601C103.651 122.065 102.811 122.06 102.867 122.601C104.566 137.772 113.435 151.56 120.841 156.446C122.118 157.284 123.474 157.996 124.888 158.569L93.3573 158.578ZM123.728 157.139C120.143 155.315 117.048 152.645 114.707 149.355C111.484 145.235 108.894 140.65 107.024 135.754C110.426 134.667 106.382 135.951 125.284 129.597C126.286 132.548 128.013 135.195 130.305 137.29C130.517 137.467 130.958 137.449 131.007 137.103C131.691 132.485 131.35 127.771 130.007 123.302C128.468 118.1 124.795 114.408 122.308 113.448C120.288 112.667 117.147 113.645 116.627 111.38C116.595 110.989 116.656 110.596 116.807 110.234C116.957 109.872 117.192 109.552 117.492 109.301C119.221 107.671 121.829 108.829 123.648 109.663C123.712 109.699 123.784 109.718 123.858 109.717C123.931 109.717 124.003 109.697 124.066 109.66C124.13 109.623 124.183 109.571 124.22 109.507C124.257 109.443 124.278 109.371 124.279 109.297C124.077 106.803 124.833 104.326 126.391 102.378C126.532 102.259 126.7 102.179 126.88 102.143C127.06 102.107 127.246 102.118 127.421 102.173C127.596 102.229 127.754 102.327 127.881 102.461C128.008 102.594 128.1 102.757 128.149 102.935C128.406 103.695 128.486 104.505 128.383 105.301C128.344 105.817 129.044 105.819 129.208 105.413C129.645 104.328 131.061 101.196 132.666 102.37C133.901 103.273 133.771 106.105 133.632 107.638C133.481 109.289 133.276 111.462 134.584 112.742C135.962 113.853 137.707 114.396 139.466 114.262C140.3 114.226 141.133 114.338 141.929 114.594C142.826 115.025 143.519 115.794 143.86 116.735C147.089 124.067 149.946 134.997 149.581 143.562C149.498 146.089 148.987 148.583 148.068 150.935C144.406 160.097 132.385 161.445 123.728 157.141V157.139ZM146.736 154.827C151.131 149.402 150.901 140.807 149.739 133.811C151.591 133.282 163.467 130.076 166.551 129.469C166.887 129.853 169.301 132.594 169.418 132.722C167.236 132.224 165.045 131.77 162.847 131.36C162.319 131.263 162.091 132.078 162.623 132.177C170.715 133.682 172.511 133.857 175.049 135.439C177.025 136.701 178.071 138.631 173.672 138.896C170.528 139.086 167.374 138.968 164.253 138.545C164.145 138.518 164.032 138.534 163.935 138.588C163.839 138.643 163.768 138.733 163.735 138.84C163.706 138.948 163.72 139.064 163.774 139.161C163.829 139.259 163.92 139.33 164.028 139.36C167.942 139.903 171.906 139.973 175.837 139.568L175.879 139.555C177.707 141.405 179.633 143.156 181.649 144.797C181.771 145.119 181.773 145.475 181.653 145.798C181.534 146.121 181.302 146.389 181 146.551C180.436 146.812 179.794 146.85 179.203 146.657C177.976 146.051 175.838 143.967 174.572 143.794C171.039 143.825 158.399 152.069 146.736 154.83V154.827ZM192.089 132.551C191.859 132.536 191.635 132.465 191.437 132.345C191.239 132.224 191.073 132.058 190.952 131.859C190.729 131.383 190.643 130.852 190.705 130.329C191.026 127.239 192.187 125.677 193.247 122.126C196.29 111.954 197.514 101.18 201.351 91.205C204.899 81.5076 212.774 71.336 222.742 69.4524C224.066 69.1459 225.439 69.1128 226.775 69.3553C228.113 69.5977 229.387 70.1107 230.523 70.8629C232.854 72.4404 233.734 75.2652 234.024 77.9693C234.641 83.7475 232.465 89.4233 229.351 94.1731C226.016 99.2627 222.252 102.944 213.352 112.521C212.909 111.503 212.099 110.692 211.086 110.253C210.073 109.814 208.933 109.779 207.895 110.155C205.067 110.987 203.396 113.819 202.073 116.262C199.693 120.923 197.755 125.8 196.282 130.828C195.762 131.422 195.113 131.886 194.386 132.186C193.659 132.485 192.873 132.611 192.089 132.554V132.551ZM203.737 115.042C204.426 113.811 205.341 112.723 206.431 111.835C208.504 110.18 211.618 110.393 212.637 112.955C213.054 114.105 213.181 115.341 213.008 116.552C212.851 117.839 212.572 119.108 212.173 120.342C209.714 128.428 205.398 135.816 199.576 141.906C195.235 146.421 193.278 147.417 189.82 150.52L189.26 150.634C196.671 137.459 197.152 125.968 203.737 115.044V115.042ZM215.359 150.43C215.372 150.583 215.435 158.237 215.436 158.361C215.436 158.361 165.587 158.328 165.059 158.343C165.163 157.959 165.367 157.609 165.648 157.329C166.17 156.911 166.797 156.646 167.459 156.563C182.458 152.799 197.346 149.217 212.66 148.13C213.318 148.085 213.968 148.299 214.473 148.729C214.976 149.159 215.295 149.77 215.359 150.432V150.43Z" fill="black"/>
<path d="M188.281 106.018C190.677 106.171 192.164 102.6 192.839 100.271C193.206 99.2394 193.278 98.1248 193.047 97.0541C192.817 95.9832 192.292 94.9992 191.534 94.2142C191.203 93.8728 190.804 93.6068 190.364 93.4339C189.923 93.261 189.451 93.1853 188.978 93.2118C188.506 93.2383 188.045 93.3664 187.626 93.5878C187.207 93.809 186.84 94.118 186.549 94.4942C185.393 96.2791 184.821 98.3842 184.914 100.514C184.852 101.667 185.06 102.818 185.52 103.875C185.754 104.445 186.132 104.942 186.617 105.318C187.101 105.694 187.675 105.936 188.281 106.018ZM185.755 100.514C185.737 98.932 186.044 97.3638 186.657 95.9074C186.929 95.2217 187.431 94.6542 188.076 94.3038C190.223 93.172 192.673 95.7605 192.282 98.7858C192.114 99.991 191.753 101.161 191.213 102.249C190.851 103.288 190.195 104.198 189.326 104.864C187.553 105.984 185.527 103.692 185.755 100.514Z" fill="black"/>
<path d="M203.734 72.957C201.858 74.6004 201.627 78.2084 204.139 78.4424C206.505 78.6615 208.462 74.5295 206.776 72.8612C206.339 72.5121 205.795 72.3302 205.238 72.3476C204.681 72.3652 204.148 72.5812 203.734 72.957ZM204.139 77.5958C202.339 77.3606 203.314 74.6203 204.065 73.806C204.305 73.5174 204.634 73.3182 204.999 73.2397C205.364 73.1611 205.745 73.208 206.081 73.3728C207.198 74.1795 206.28 77.5175 204.145 77.5947L204.139 77.5958Z" fill="black"/>
<path d="M225.253 88.0849C225.522 88.1383 225.798 88.1186 226.059 88.0278C226.317 87.9368 226.546 87.7784 226.724 87.5683C227.177 87.1158 227.559 86.597 227.857 86.0295C228.147 85.5616 228.273 85.0086 228.212 84.4604C228.152 83.9119 227.907 83.4005 227.521 83.0091C227.206 82.7398 226.8 82.6073 226.389 82.6408C225.976 82.6746 225.596 82.8715 225.329 83.1884C223.947 84.8753 223.698 87.658 225.253 88.0849ZM225.039 85.8975C225.156 85.1913 225.421 84.5176 225.812 83.9205C225.884 83.8048 225.978 83.7048 226.088 83.6262C226.198 83.5474 226.324 83.4917 226.456 83.4623C226.634 83.4646 226.804 83.5207 226.95 83.6233C227.094 83.726 227.206 83.8705 227.267 84.0375C227.723 85.0609 226.865 86.1875 226.203 86.8935C225.956 87.16 225.536 87.4823 225.244 87.0989C225.026 86.7396 224.952 86.3098 225.039 85.8975Z" fill="black"/>
<path d="M183.533 115.258C183.046 115.306 182.592 115.529 182.254 115.885C181.916 116.242 181.716 116.709 181.691 117.202C181.566 118.201 181.748 119.216 182.212 120.108C182.315 120.318 182.465 120.5 182.65 120.641C182.836 120.782 183.052 120.877 183.28 120.918C183.548 120.908 183.808 120.829 184.036 120.689C184.264 120.548 184.453 120.351 184.584 120.116C185.096 119.232 185.288 118.196 185.127 117.186C185.003 116.327 184.576 115.173 183.533 115.258ZM183.398 120.074C183.225 120.113 183.006 119.825 182.925 119.657C182.584 118.993 182.437 118.245 182.5 117.501C182.473 117.188 182.558 116.875 182.741 116.621C182.923 116.366 183.191 116.186 183.494 116.114C183.586 116.093 183.683 116.102 183.77 116.14C183.857 116.177 183.93 116.242 183.978 116.324C184.846 117.755 184.026 120.006 183.398 120.074Z" fill="black"/>
<path d="M207.034 138.625L204.591 143.09C204.331 143.568 205.056 143.996 205.316 143.519L207.759 139.053C208.02 138.575 207.295 138.147 207.034 138.625Z" fill="black"/>
<path d="M204.425 121.719C205.026 120.497 205.744 119.338 206.566 118.255C206.895 117.823 206.166 117.401 205.841 117.828C205.019 118.911 204.301 120.071 203.698 121.291C203.459 121.778 204.184 122.207 204.425 121.719Z" fill="black"/>
<path d="M215.272 104.251C216.136 102.647 216.881 100.98 217.501 99.2639C217.686 98.751 216.873 98.5305 216.689 99.0384C216.094 100.685 215.378 102.285 214.547 103.824C214.288 104.302 215.014 104.731 215.272 104.251Z" fill="black"/>
<path d="M213.571 90.9896C214.376 89.6751 215.063 88.2907 215.622 86.8526C215.82 86.3457 215.005 86.1255 214.812 86.6271C214.275 87.9955 213.617 89.3127 212.846 90.5624C212.561 91.0269 213.284 91.4527 213.571 90.9896Z" fill="black"/>
<path d="M221.708 80.8826C222.377 79.6752 223.179 78.5477 224.098 77.5211C224.459 77.1178 223.867 76.5177 223.504 76.9222C222.535 78.0017 221.689 79.1879 220.983 80.458C220.935 80.5544 220.925 80.6658 220.956 80.7695C220.986 80.8729 221.055 80.961 221.147 81.0151C221.24 81.0694 221.35 81.0859 221.454 81.0612C221.558 81.0366 221.649 80.9727 221.708 80.8826Z" fill="black"/>
<path d="M210.301 83.7885C210.973 82.7327 211.645 81.6779 212.318 80.6237C212.611 80.1642 211.884 79.7397 211.592 80.1965C210.921 81.2507 210.248 82.3054 209.575 83.3602C209.282 83.822 210.008 84.2478 210.301 83.7885Z" fill="black"/>
<path d="M215.614 124.05L213.86 127.639C213.622 128.127 214.347 128.556 214.585 128.067C215.17 126.87 215.755 125.674 216.339 124.479C216.577 123.991 215.853 123.561 215.614 124.05Z" fill="black"/>
<path d="M143.314 166.321C142.569 166.623 141.854 166.995 141.178 167.433C140.463 167.873 139.734 168.293 139.02 168.739C134.628 171.867 129.906 174.497 124.941 176.582C124.636 176.707 124.488 177.173 124.841 177.357C124.841 177.357 139.829 185.2 141.39 185.947C141.681 186.087 141.935 185.926 142.212 185.811C154.86 180.57 157.049 174.685 163.57 174.708C164.434 174.708 165.453 174.725 166.33 174.807C166.842 174.854 166.841 174.14 166.441 173.975L148.095 166.427C146.57 165.792 144.865 165.754 143.314 166.321ZM163.257 173.862C156.943 173.931 153.737 180.211 141.652 185.123L126.04 177.022C134.258 173.565 136.087 171.295 142.608 167.575C143.403 167.122 144.29 166.856 145.202 166.797C146.114 166.739 147.027 166.889 147.873 167.236L163.975 173.861C163.735 173.862 163.496 173.854 163.257 173.862Z" fill="black"/>
<path d="M153.797 162.629C152.088 163.08 150.615 164.173 149.68 165.683C149.652 165.792 149.668 165.906 149.722 166.004C149.777 166.101 149.867 166.173 149.973 166.205L167.83 173.302C167.902 173.323 167.978 173.323 168.05 173.304C168.122 173.285 168.187 173.246 168.239 173.192C169.879 171.516 171.848 170.201 174.019 169.332C175.497 168.913 177.02 168.679 178.555 168.634C182.116 168.482 185.683 168.52 189.24 168.746C189.734 168.776 189.785 168.058 189.351 167.914C172.153 162.227 173.041 162.478 172.831 162.506C164.981 162.916 160.642 160.481 153.797 162.629ZM165.366 163.04C167.85 163.373 170.358 163.478 172.86 163.356L186.169 167.756C183.72 167.669 181.266 167.659 178.822 167.779C177.203 167.814 175.595 168.038 174.027 168.447C171.709 169.306 169.599 170.654 167.839 172.4L150.696 165.585C151.5 164.631 152.553 163.924 153.736 163.544C157.475 162.17 161.506 162.558 165.366 163.04Z" fill="black"/>
<path d="M124.542 179.164C142.486 189.06 141.396 188.537 141.619 188.448C145.025 187.302 148.295 185.779 151.369 183.908C154.792 181.741 158.085 178.905 162.257 177.807C164.576 177.321 166.926 177 169.29 176.847C169.784 176.638 171.166 172.933 176.178 172.13C177.567 171.907 178.97 171.78 180.377 171.749C186.318 171.485 186.868 171.937 189.365 171.413C189.891 171.288 189.671 170.49 189.141 170.596C187.674 170.853 186.18 170.924 184.695 170.81C183.269 170.737 181.855 170.836 180.431 170.9C177.613 171.024 174.592 171.163 172.139 172.738C170.836 173.598 169.732 174.731 168.902 176.06C166.893 176.158 164.894 176.398 162.919 176.779C161.043 177.193 159.24 177.888 157.567 178.839C152.123 181.889 151.165 184.133 141.539 187.577L124.965 178.435C124.488 178.171 124.067 178.906 124.542 179.164Z" fill="black"/>
<path d="M124.444 181.342C142.104 190.867 141.563 190.651 141.857 190.607C152.3 188.079 155.593 182.231 162.358 180.47C166.063 179.588 169.668 179.576 169.997 179.184C171.875 176.943 173.585 175.467 176.462 174.991C182.553 174.09 185.343 175.168 189.352 174.143C189.459 174.113 189.55 174.041 189.605 173.944C189.66 173.846 189.674 173.73 189.645 173.622C189.615 173.514 189.544 173.422 189.447 173.366C189.35 173.311 189.235 173.297 189.128 173.326C186.063 174.158 183.621 173.5 178.693 173.871C176.593 173.908 174.534 174.467 172.699 175.498C171.476 176.348 170.381 177.371 169.447 178.535C167.333 178.816 165.189 179.019 163.097 179.434C154.931 181.165 152.322 187.278 141.802 189.748C140.177 188.876 126.541 181.514 124.867 180.611C124.391 180.353 123.966 181.085 124.444 181.342Z" fill="black"/>
<path d="M57.9314 90.8513C57.8492 92.3652 57.7668 93.8791 57.6844 95.393C57.6547 95.9383 58.4945 95.9358 58.5242 95.393C58.6066 93.8791 58.689 92.3652 58.7712 90.8513C58.8008 90.3073 57.961 90.3084 57.9314 90.8513Z" fill="black"/>
<path d="M60.7101 95.6161L66.2961 91.0793C66.716 90.7368 66.1194 90.1417 65.702 90.4803L60.1162 95.0171C59.6938 95.3671 60.2927 95.9583 60.7101 95.6161Z" fill="black"/>
<path d="M66.654 96.1401C66.6224 96.0386 66.5539 95.9528 66.4625 95.8999C66.3709 95.8469 66.2631 95.8304 66.16 95.8537L61.209 97.0863C61.1015 97.1161 61.0103 97.1877 60.9551 97.2852C60.9 97.3828 60.8857 97.4985 60.9151 97.6067C60.9445 97.7151 61.0155 97.807 61.1122 97.8627C61.209 97.9181 61.3238 97.9329 61.4313 97.903L66.3837 96.6704C66.4892 96.6362 66.577 96.5611 66.6277 96.4617C66.6785 96.3623 66.6879 96.2467 66.654 96.1401Z" fill="black"/>
<path d="M145.767 178.696C148.09 177.158 150.446 175.673 152.834 174.242C152.928 174.181 152.995 174.086 153.019 173.976C153.044 173.867 153.024 173.752 152.965 173.656C152.908 173.565 152.819 173.499 152.716 173.472C152.613 173.445 152.503 173.459 152.41 173.511C149.993 174.893 147.665 176.426 145.342 177.964C144.893 178.263 145.314 178.996 145.767 178.696Z" fill="black"/>
<path d="M143.096 177.404C143.152 177.494 143.241 177.56 143.344 177.588C143.447 177.615 143.557 177.602 143.65 177.551C146.108 176.12 148.59 174.737 151.022 173.259C151.069 173.23 151.11 173.191 151.142 173.146C151.174 173.101 151.197 173.049 151.209 172.995C151.222 172.941 151.223 172.885 151.213 172.83C151.204 172.775 151.184 172.722 151.154 172.675C151.097 172.584 151.008 172.519 150.905 172.491C150.802 172.464 150.692 172.477 150.598 172.528C148.141 173.959 145.658 175.338 143.227 176.819C143.18 176.848 143.139 176.887 143.107 176.932C143.075 176.978 143.052 177.029 143.04 177.084C143.028 177.138 143.026 177.194 143.036 177.249C143.046 177.304 143.066 177.357 143.096 177.404Z" fill="black"/>
<path d="M91.6592 171.222C91.5799 171.253 91.5115 171.307 91.4625 171.377C91.4136 171.447 91.3862 171.53 91.3839 171.616C91.4171 180.63 99.7276 188.569 108.279 185.677C111.102 184.583 113.532 182.656 115.25 180.147C116.969 177.638 117.897 174.665 117.912 171.616C117.91 171.551 117.893 171.488 117.864 171.431C117.834 171.374 117.792 171.325 117.74 171.287C116.932 170.897 116.099 170.564 115.245 170.291C107.546 167.603 99.1258 167.935 91.6592 171.222ZM108.936 184.509C101.155 187.995 92.7732 181.121 92.2533 172.256C96.1829 173.897 100.395 174.742 104.648 174.742C108.902 174.742 113.114 173.897 117.043 172.256C116.907 174.843 116.082 177.347 114.656 179.503C113.229 181.659 111.253 183.388 108.936 184.509ZM102.122 173.802C103.728 173.159 105.255 172.331 106.672 171.334C107.115 171.016 107.627 170.81 108.165 170.733C108.704 170.656 109.253 170.711 109.766 170.892C110.02 170.957 110.252 171.092 110.434 171.283C110.617 171.473 110.743 171.711 110.799 171.969C110.855 172.228 110.839 172.497 110.752 172.747C110.664 172.996 110.51 173.216 110.305 173.382C107.607 173.875 104.856 174.016 102.122 173.802ZM116.416 171.617C114.819 172.236 113.179 172.735 111.509 173.111C112.264 171.689 111.002 170.247 109.6 169.906C107.561 169.352 105.572 170.994 103.952 171.998C102.702 172.715 101.349 173.233 99.9411 173.534C97.532 173.142 95.17 172.498 92.8931 171.613C100.443 168.563 108.868 168.565 116.416 171.618V171.617Z" fill="black"/>
<path d="M86.6327 173.055C87.4918 172.483 88.5032 172.188 89.5325 172.208C89.6295 172.183 89.7142 172.124 89.7712 172.041C89.8282 171.958 89.8541 171.857 89.8435 171.757C89.8329 171.656 89.7871 171.563 89.7142 171.494C89.6412 171.425 89.546 171.385 89.4461 171.381C85.3472 171.353 83.8578 174.754 85.2643 176.653C85.9328 177.445 86.8499 177.984 87.8635 178.178C88.8771 178.373 89.9261 178.212 90.8367 177.723C91.2763 177.5 90.9602 176.882 90.5391 176.957C89.6216 177.402 88.5773 177.504 87.5924 177.244C87.1252 177.145 86.6938 176.919 86.3453 176.589C85.9968 176.26 85.7449 175.841 85.6164 175.377C85.5686 174.934 85.6375 174.486 85.8158 174.079C85.9943 173.671 86.2762 173.318 86.6327 173.055Z" fill="black"/>
<path d="M106.993 165.027C108.014 165.589 108.916 166.347 109.649 167.257C109.729 167.336 109.835 167.38 109.946 167.38C110.058 167.38 110.164 167.336 110.243 167.257C110.904 166.428 110.589 165.048 110.357 164.107C109.921 162.45 108.381 160.591 106.477 161.101C106.06 161.203 105.692 161.451 105.44 161.801C105.187 162.151 105.066 162.58 105.098 163.012C105.187 164.001 106.237 164.563 106.993 165.027ZM105.929 162.748C106.128 161.261 108.906 161.627 109.548 164.333C109.699 164.928 109.779 165.539 109.787 166.153C108.138 164.303 105.79 163.791 105.929 162.748Z" fill="black"/>
<path d="M95.3234 175.697C95.0986 175.199 94.3749 175.632 94.5972 176.124C95.0382 177.096 95.576 178.02 96.2027 178.882C96.5189 179.316 97.2489 178.894 96.9278 178.453C96.3013 177.592 95.7637 176.668 95.3234 175.697Z" fill="black"/>
<path d="M154.077 187.361C154.129 189.01 154.181 190.658 154.232 192.308C154.249 192.851 155.089 192.853 155.072 192.308L154.917 187.361C154.901 186.818 154.06 186.816 154.077 187.361Z" fill="black"/>
<path d="M156.398 185.921C156.35 185.949 156.309 185.986 156.275 186.03C156.242 186.075 156.217 186.125 156.203 186.179C156.189 186.233 156.186 186.289 156.194 186.344C156.201 186.399 156.219 186.452 156.247 186.5L159.052 190.17C159.11 190.265 159.202 190.333 159.308 190.361C159.415 190.39 159.529 190.376 159.625 190.322C159.673 190.294 159.714 190.257 159.748 190.213C159.781 190.168 159.806 190.118 159.82 190.064C159.834 190.01 159.837 189.954 159.83 189.899C159.822 189.844 159.804 189.791 159.776 189.743C158.842 188.519 157.908 187.295 156.972 186.073C156.914 185.978 156.822 185.909 156.715 185.881C156.608 185.852 156.495 185.867 156.398 185.921Z" fill="black"/>
<path d="M215.645 160.37H164.564C164.452 160.37 164.346 160.414 164.267 160.494C164.188 160.573 164.144 160.681 164.144 160.793C164.144 160.905 164.188 161.013 164.267 161.092C164.346 161.172 164.452 161.216 164.564 161.216H215.645C215.756 161.216 215.863 161.172 215.941 161.092C216.02 161.013 216.065 160.905 216.065 160.793C216.065 160.681 216.02 160.573 215.941 160.494C215.863 160.414 215.756 160.37 215.645 160.37Z" fill="black"/>
<path d="M163.253 186.065C163.278 185.961 163.263 185.85 163.21 185.757C163.158 185.663 163.072 185.593 162.971 185.561C161.355 185.097 159.75 184.597 158.123 184.168C158.016 184.138 157.901 184.152 157.804 184.208C157.707 184.263 157.636 184.355 157.606 184.464C157.577 184.572 157.591 184.688 157.646 184.785C157.701 184.883 157.792 184.955 157.9 184.985L162.747 186.378C162.855 186.404 162.97 186.386 163.064 186.327C163.159 186.269 163.227 186.174 163.253 186.065Z" fill="black"/>
</svg>
