<svg width="24" height="24" viewBox="0 0 24 24" fill="none" xmlns="http://www.w3.org/2000/svg">
<path d="M11.9536 2.40625C6.67799 2.40625 2.40002 6.80306 2.40002 12.227C2.40002 16.5661 5.13741 20.2473 8.93337 21.5459C9.41081 21.6367 9.58614 21.3328 9.58614 21.0734C9.58614 20.8393 9.57722 20.0656 9.57317 19.245C6.91528 19.8391 6.35445 18.0863 6.35445 18.0863C5.91988 16.9511 5.29371 16.6493 5.29371 16.6493C4.42695 16.0398 5.35905 16.0523 5.35905 16.0523C6.31841 16.1216 6.82357 17.0643 6.82357 17.0643C7.67564 18.5657 9.0585 18.1316 9.60367 17.8808C9.68938 17.2459 9.93702 16.8128 10.2102 16.5675C8.08827 16.3191 5.85754 15.4771 5.85754 11.7141C5.85754 10.6419 6.23075 9.76579 6.84193 9.07806C6.74273 8.83067 6.41574 7.83184 6.93446 6.4791C6.93446 6.4791 7.73671 6.21515 9.56238 7.48578C10.3244 7.26812 11.1417 7.15905 11.9536 7.15536C12.7655 7.15905 13.5834 7.26812 14.3469 7.48578C16.1704 6.21515 16.9716 6.4791 16.9716 6.4791C17.4915 7.83184 17.1644 8.83067 17.0652 9.07806C17.6777 9.76579 18.0484 10.6418 18.0484 11.7141C18.0484 15.486 15.8135 16.3166 13.6861 16.5597C14.0288 16.8645 14.3341 17.4621 14.3341 18.3783C14.3341 19.6923 14.323 20.7499 14.323 21.0734C14.323 21.3347 14.495 21.641 14.9793 21.5446C18.7732 20.2445 21.5071 16.5646 21.5071 12.227C21.5071 6.80306 17.2298 2.40625 11.9536 2.40625Z" fill="#161614"/>
<path d="M5.97817 16.3961C5.95719 16.4449 5.88241 16.4595 5.81445 16.4261C5.74515 16.3941 5.70618 16.3275 5.72866 16.2785C5.74927 16.2283 5.82404 16.2143 5.8932 16.248C5.96266 16.28 6.00222 16.3472 5.97817 16.3961ZM6.44811 16.8272C6.40256 16.8706 6.31347 16.8504 6.253 16.7818C6.19051 16.7133 6.17882 16.6218 6.22505 16.5777C6.27203 16.5343 6.35843 16.5546 6.42106 16.6231C6.48355 16.6924 6.49569 16.7833 6.44804 16.8272M6.77052 17.3786C6.71193 17.4205 6.61617 17.3813 6.55706 17.2939C6.49854 17.2067 6.49854 17.1019 6.55833 17.0599C6.61767 17.0179 6.71193 17.0557 6.77187 17.1423C6.83032 17.2311 6.83032 17.3359 6.77045 17.3787M7.31569 18.0174C7.26332 18.0767 7.15183 18.0608 7.07016 17.9798C6.98669 17.9006 6.96339 17.7882 7.01591 17.7289C7.06888 17.6694 7.18105 17.6861 7.26332 17.7664C7.34626 17.8455 7.37159 17.9587 7.31577 18.0174M8.02031 18.233C7.99731 18.3099 7.88986 18.3449 7.78167 18.3122C7.67362 18.2786 7.60289 18.1885 7.62469 18.1107C7.64717 18.0333 7.75507 17.9969 7.86409 18.0319C7.97198 18.0654 8.04286 18.1548 8.02038 18.233M8.82233 18.3245C8.82503 18.4055 8.73324 18.4727 8.61965 18.4741C8.50539 18.4767 8.413 18.4111 8.4118 18.3315C8.4118 18.2497 8.50149 18.1831 8.61568 18.1812C8.72927 18.1789 8.82233 18.244 8.82233 18.3245ZM9.61011 18.2934C9.62375 18.3725 9.54478 18.4536 9.43201 18.4752C9.32112 18.496 9.21847 18.4472 9.20431 18.3689C9.19052 18.2879 9.27099 18.2068 9.38166 18.1858C9.49465 18.1656 9.59573 18.2131 9.61011 18.2934Z" fill="#161614"/>
</svg>
