<svg width="24" height="24" viewBox="0 0 24 24" fill="none" xmlns="http://www.w3.org/2000/svg">
<path d="M4.5 6.24242C4.5 5.73736 4.66892 5.3207 5.00676 4.99242C5.34459 4.66414 5.78379 4.5 6.32432 4.5C6.85522 4.5 7.28474 4.66161 7.61293 4.98485C7.95077 5.31818 8.11969 5.75252 8.11969 6.28788C8.11969 6.77273 7.9556 7.17676 7.62741 7.5C7.28958 7.83333 6.84556 8 6.29537 8H6.28089C5.75 8 5.32047 7.83333 4.99228 7.5C4.66409 7.16667 4.5 6.74747 4.5 6.24242ZM4.68822 19.5V9.37879H7.90251V19.5H4.68822ZM9.6834 19.5H12.8977V13.8485C12.8977 13.4949 12.9363 13.2222 13.0135 13.0303C13.1486 12.6869 13.3538 12.3965 13.6289 12.1591C13.904 11.9217 14.249 11.803 14.6641 11.803C15.7452 11.803 16.2857 12.5657 16.2857 14.0909V19.5H19.5V13.697C19.5 12.202 19.1622 11.0682 18.4865 10.2955C17.8108 9.52273 16.918 9.13636 15.8079 9.13636C14.5627 9.13636 13.5927 9.69697 12.8977 10.8182V10.8485H12.8832L12.8977 10.8182V9.37879H9.6834C9.7027 9.70202 9.71236 10.7071 9.71236 12.3939C9.71236 14.0808 9.7027 16.4495 9.6834 19.5Z" fill="black"/>
</svg>
