<svg width="24" height="24" viewBox="0 0 24 24" fill="none" xmlns="http://www.w3.org/2000/svg">
<path d="M8.62424 19.255C15.3523 19.255 19.0317 13.6944 19.0317 8.87255C19.0317 8.71463 19.0284 8.55744 19.0213 8.4009C19.7372 7.88412 20.3551 7.24426 20.8459 6.51133C20.1905 6.80201 19.4852 6.99765 18.7453 7.08586C19.5005 6.63412 20.0803 5.91945 20.3538 5.06757C19.6358 5.4925 18.8503 5.79205 18.0311 5.95331C17.3636 5.24403 16.4134 4.80042 15.3611 4.80042C13.3411 4.80042 11.7031 6.43457 11.7031 8.44892C11.7031 8.7353 11.7352 9.01377 11.798 9.28096C8.75788 9.12836 6.06214 7.67633 4.25801 5.46843C3.93307 6.02531 3.76216 6.65821 3.76273 7.3025C3.76273 8.5685 4.40847 9.68609 5.39049 10.3399C4.80961 10.3222 4.24149 10.1657 3.73388 9.88354C3.73334 9.89886 3.73334 9.91378 3.73334 9.93015C3.73334 11.6973 4.99417 13.1728 6.66788 13.5071C6.35353 13.5926 6.02916 13.6357 5.70336 13.6355C5.46807 13.6355 5.23877 13.6125 5.01591 13.5698C5.48159 15.0196 6.83192 16.0747 8.43291 16.1042C7.18096 17.0831 5.60389 17.6662 3.88985 17.6662C3.59827 17.6664 3.30692 17.6495 3.01733 17.6156C4.63618 18.6507 6.55841 19.2547 8.62442 19.2547" fill="black"/>
</svg>
